<?xml version="1.0" encoding="UTF-8" standalone="no"?>
<svg
   xmlns:dc="http://purl.org/dc/elements/1.1/"
   xmlns:cc="http://creativecommons.org/ns#"
   xmlns:rdf="http://www.w3.org/1999/02/22-rdf-syntax-ns#"
   xmlns:svg="http://www.w3.org/2000/svg"
   xmlns="http://www.w3.org/2000/svg"
   xmlns:sodipodi="http://sodipodi.sourceforge.net/DTD/sodipodi-0.dtd"
   xmlns:inkscape="http://www.inkscape.org/namespaces/inkscape"
   viewBox="0 0 1000 1000"
   version="1.1"
   id="svg655"
   sodipodi:docname="107-healthy.svg"
   inkscape:version="0.92.5 (2060ec1f9f, 2020-04-08)">
  <metadata
     id="metadata661">
    <rdf:RDF>
      <cc:Work
         rdf:about="">
        <dc:format>image/svg+xml</dc:format>
        <dc:type
           rdf:resource="http://purl.org/dc/dcmitype/StillImage" />
      </cc:Work>
    </rdf:RDF>
  </metadata>
  <defs
     id="defs659" />
  <sodipodi:namedview
     pagecolor="#ffffff"
     bordercolor="#666666"
     borderopacity="1"
     objecttolerance="10"
     gridtolerance="10"
     guidetolerance="10"
     inkscape:pageopacity="0"
     inkscape:pageshadow="2"
     inkscape:window-width="2560"
     inkscape:window-height="1379"
     id="namedview657"
     showgrid="false"
     inkscape:zoom="1.3350176"
     inkscape:cx="689.63496"
     inkscape:cy="79.779635"
     inkscape:window-x="0"
     inkscape:window-y="0"
     inkscape:window-maximized="1"
     inkscape:current-layer="svg655" />
  <title
     id="title405">107-healthy</title>
  <ellipse
     cx="481.171"
     cy="743.5"
     rx="412.829"
     ry="64.5"
     style="fill:#eae8ea"
     id="ellipse539" />
  <path
     d="M630.084,297H523.916C495.244,297,472,319.953,472,348.268V709.855a34.2,34.2,0,0,0,40.473,33.537,18.1,18.1,0,0,0,3.7-1.062c20.426-8.826,36.779-20.589,60.832-20.589s40.407,11.763,60.833,20.589a18.066,18.066,0,0,0,3.694,1.062A34.2,34.2,0,0,0,682,709.855V348.268C682,319.953,658.756,297,630.084,297Z"
     transform="translate(0 0)"
     style="fill:#fff"
     id="path541" />
  <path
     d="M630.083,297h-28C630.756,297,654,319.953,654,348.268V709.855a34.261,34.261,0,0,1-19.687,30.909q1.743.795,3.52,1.566a18.066,18.066,0,0,0,3.694,1.062A34.2,34.2,0,0,0,682,709.855V348.268C682,319.953,658.756,297,630.083,297Z"
     transform="translate(0 0)"
     style="fill:#eae8ea"
     id="path543" />
  <path
     d="M549,721.741c-22.656,0-38.482,10.435-57.313,19.023a33.535,33.535,0,0,0,20.786,2.628,18.1,18.1,0,0,0,3.7-1.062c16.213-7.006,29.864-15.856,46.832-19.21A71.684,71.684,0,0,0,549,721.741Z"
     transform="translate(0 0)"
     style="fill:#d9cedb"
     id="path545" />
  <path
     d="M630.084,297H523.916C495.244,297,472,319.953,472,348.268V709.855a34.2,34.2,0,0,0,40.473,33.537,18.1,18.1,0,0,0,3.7-1.062c20.426-8.826,36.779-20.589,60.832-20.589s40.407,11.763,60.833,20.589a18.066,18.066,0,0,0,3.694,1.062A34.2,34.2,0,0,0,682,709.855V348.268C682,319.953,658.756,297,630.084,297Z"
     transform="translate(0 0)"
     style="fill:none;stroke:#363a5a;stroke-linecap:round;stroke-linejoin:round;stroke-width:6px"
     id="path547" />
  <rect
     x="535.224"
     y="283"
     width="84"
     height="14"
     style="fill:#eae8ea"
     id="rect549" />
  <rect
     x="535.224"
     y="283"
     width="84"
     height="14"
     style="fill:none;stroke:#363a5a;stroke-linecap:round;stroke-linejoin:round;stroke-width:6px"
     id="rect551" />
  <path
     d="M620.349,283.333a781.317,781.317,0,0,1-86.248,0,6,6,0,0,1-5.653-6q0-17.365,0-34.731c0-11.041,8.826-22.01,19.607-24.4a133.129,133.129,0,0,1,58.3.039c10.8,2.384,19.648,13.344,19.648,24.4q0,17.343,0,34.684A6,6,0,0,1,620.349,283.333Z"
     transform="translate(0 0)"
     style="fill:#fff"
     id="path553" />
  <path
     d="M626,242.654c0-11.06-8.847-22.02-19.647-24.4a134.006,134.006,0,0,0-38.29-2.929,137.554,137.554,0,0,1,20.29,2.929c10.8,2.384,19.647,13.344,19.647,24.4q0,17.343,0,34.684a6,6,0,0,1-5.651,6q-17.052.942-34.124,1.129,26.068.3,52.124-1.129a6,6,0,0,0,5.651-6Q626,260,626,242.654Z"
     transform="translate(0 0)"
     style="fill:#eae8ea"
     id="path555" />
  <path
     d="M620.349,283.333a781.317,781.317,0,0,1-86.248,0,6,6,0,0,1-5.653-6q0-17.365,0-34.731c0-11.041,8.826-22.01,19.607-24.4a133.129,133.129,0,0,1,58.3.039c10.8,2.384,19.648,13.344,19.648,24.4q0,17.343,0,34.684A6,6,0,0,1,620.349,283.333Z"
     transform="translate(0 0)"
     style="fill:none;stroke:#363a5a;stroke-linecap:round;stroke-linejoin:round;stroke-width:6px"
     id="path557" />
  <path
     d="M472,393V709.855a34.2,34.2,0,0,0,40.473,33.537,18.1,18.1,0,0,0,3.7-1.062c20.426-8.826,36.779-20.589,60.832-20.589s40.407,11.763,60.833,20.589a18.066,18.066,0,0,0,3.694,1.062A34.2,34.2,0,0,0,682,709.855V393Z"
     transform="translate(0 0)"
     style="fill:#73e1ff"
     id="path559" />
  <path
     d="M653,393V695.855a34.2,34.2,0,0,1-40.473,33.537,18.066,18.066,0,0,1-3.694-1.062C588.407,719.5,572.054,707.741,548,707.741S507.594,719.5,487.168,728.33a18.1,18.1,0,0,1-3.695,1.062,34.116,34.116,0,0,1-4.869.566,34,34,0,0,0,33.869,13.434,18.1,18.1,0,0,0,3.7-1.062c20.426-8.826,36.779-20.589,60.832-20.589s40.407,11.763,60.833,20.589a18.066,18.066,0,0,0,3.694,1.062A34.2,34.2,0,0,0,682,709.855V393Z"
     transform="translate(0 0)"
     style="fill:#48d8f9"
     id="path561" />
  <path
     d="M472,393V709.855a34.2,34.2,0,0,0,40.473,33.537,18.1,18.1,0,0,0,3.7-1.062c20.426-8.826,36.779-20.589,60.832-20.589s40.407,11.763,60.833,20.589a18.066,18.066,0,0,0,3.694,1.062A34.2,34.2,0,0,0,682,709.855V393Z"
     transform="translate(0 0)"
     style="fill:none;stroke:#363a5a;stroke-linecap:round;stroke-linejoin:round;stroke-width:6px"
     id="path563" />
  <line
     x1="549"
     y1="258"
     x2="549"
     y2="283"
     style="fill:none;stroke:#363a5a;stroke-linecap:round;stroke-linejoin:round;stroke-width:6px"
     id="line565" />
  <line
     x1="568"
     y1="258"
     x2="568"
     y2="283"
     style="fill:none;stroke:#363a5a;stroke-linecap:round;stroke-linejoin:round;stroke-width:6px"
     id="line567" />
  <line
     x1="587"
     y1="258"
     x2="587"
     y2="283"
     style="fill:none;stroke:#363a5a;stroke-linecap:round;stroke-linejoin:round;stroke-width:6px"
     id="line569" />
  <line
     x1="606"
     y1="258"
     x2="606"
     y2="283"
     style="fill:none;stroke:#363a5a;stroke-linecap:round;stroke-linejoin:round;stroke-width:6px"
     id="line571" />
  <circle
     cx="528"
     cy="481"
     r="12"
     style="fill:#abefff"
     id="circle573" />
  <circle
     cx="600"
     cy="533"
     r="8"
     style="fill:#abefff"
     id="circle575" />
  <circle
     cx="552"
     cy="595"
     r="6"
     style="fill:#abefff"
     id="circle577" />
  <circle
     cx="578"
     cy="459"
     r="6"
     style="fill:#abefff"
     id="circle579" />
  <line
     x1="652"
     y1="420"
     x2="652"
     y2="566"
     style="fill:none;stroke:#363a5a;stroke-linecap:round;stroke-linejoin:round;stroke-width:6px"
     id="line581" />
  <path
     d="M179,447.816a109.194,109.194,0,0,0-24.949,4.27c-.073,2.865-.069,5.747.084,8.658a108.981,108.981,0,0,0,139.557,98.833c.073-2.865.07-5.747-.084-8.658A109.008,109.008,0,0,0,179,447.816Z"
     transform="translate(0 0)"
     style="fill:#76c526"
     id="path583" />
  <path
     d="M179,447.816a109.194,109.194,0,0,0-24.949,4.27c-.073,2.865-.069,5.747.084,8.658a108.981,108.981,0,0,0,139.557,98.833c.073-2.865.07-5.747-.084-8.658A109.008,109.008,0,0,0,179,447.816Z"
     transform="translate(0 0)"
     style="fill:none;stroke:#363a5a;stroke-linecap:round;stroke-linejoin:round;stroke-width:6px"
     id="path585" />
  <path
     d="M373.368,425.722a95.453,95.453,0,0,0-7.356-20.863c-2.479.36-4.962.788-7.446,1.349A95.246,95.246,0,0,0,294,541c2.479-.359,4.962-.787,7.446-1.349A95.268,95.268,0,0,0,373.368,425.722Z"
     transform="translate(0 0)"
     style="fill:#76c526"
     id="path587" />
  <path
     d="M373.368,425.721a94.551,94.551,0,0,0-3.283-11.218A95.3,95.3,0,0,1,295.9,511.651c-2.484.562-4.967.99-7.445,1.349a96.215,96.215,0,0,1-4.073-9.642A95.585,95.585,0,0,0,294,541c2.479-.359,4.961-.787,7.446-1.349A95.269,95.269,0,0,0,373.368,425.721Z"
     transform="translate(0 0)"
     style="fill:#5fa412"
     id="path589" />
  <path
     d="M373.368,425.722a95.453,95.453,0,0,0-7.356-20.863c-2.479.36-4.962.788-7.446,1.349A95.246,95.246,0,0,0,294,541c2.479-.359,4.962-.787,7.446-1.349A95.268,95.268,0,0,0,373.368,425.722Z"
     transform="translate(0 0)"
     style="fill:none;stroke:#363a5a;stroke-linecap:round;stroke-linejoin:round;stroke-width:6px"
     id="path591" />
  <path
     d="M337.733,457S315.275,486,294,541"
     transform="translate(0 0)"
     style="fill:none;stroke:#363a5a;stroke-linecap:round;stroke-linejoin:round;stroke-width:6px"
     id="path593" />
  <path
     d="M200.733,490s63.908,61.154,92.954,69.577"
     transform="translate(0 0)"
     style="fill:none;stroke:#363a5a;stroke-linecap:round;stroke-linejoin:round;stroke-width:6px"
     id="path595" />
  <path
     d="M403.262,634.5a112.5,112.5,0,1,1-224.953-3.362c1.645-58.247,45.923-106.1,105.174-101.019a109.523,109.523,0,0,0,14.389.321C357.422,527.691,403.262,574.726,403.262,634.5Z"
     transform="translate(0 0)"
     style="fill:#ff7d00"
     id="path597" />
  <path
     d="M375.134,561.34a120.464,120.464,0,0,1,7.276,41.572A122.6,122.6,0,0,1,212.984,715.951,112.628,112.628,0,0,0,403.262,634.5C403.262,605.813,392.7,580.064,375.134,561.34Z"
     transform="translate(0 0)"
     style="fill:#ff6c22"
     id="path599" />
  <path
     d="M352,544c-40,11-66.5,51.118-73,95-4,27,13,92,61.561,96.4a112.5,112.5,0,0,0,62.7-100.9C403.262,592.526,386.082,560.584,352,544Z"
     transform="translate(0 0)"
     style="fill:#ff6c22"
     id="path601" />
  <path
     d="M403.262,634.5a112.5,112.5,0,1,1-224.953-3.362c1.645-58.247,45.923-106.1,105.174-101.019a109.523,109.523,0,0,0,14.389.321C357.422,527.691,403.262,574.726,403.262,634.5Z"
     transform="translate(0 0)"
     style="fill:none;stroke:#363a5a;stroke-linecap:round;stroke-linejoin:round;stroke-width:6px"
     id="path603" />
  <path
     d="M213,596a5,5,0,0,1-4.442-7.288c19.008-36.961,56.315-41.507,57.894-41.683a5,5,0,0,1,1.116,9.938h0c-1.365.159-33.625,4.249-50.118,36.319A5,5,0,0,1,213,596Z"
     transform="translate(0 0)"
     style="fill:#ff9636"
     id="path605" />
  <circle
     cx="216"
     cy="627"
     r="4"
     style="fill:#ff9636"
     id="circle607" />
  <circle
     cx="246"
     cy="701"
     r="4"
     style="fill:#ff9636"
     id="circle609" />
  <circle
     cx="218"
     cy="672"
     r="6"
     style="fill:#ff9636"
     id="circle611" />
  <circle
     cx="262.5"
     cy="647.5"
     r="3.5"
     style="fill:#ff9636"
     id="circle613" />
  <circle
     cx="403.969"
     cy="639.236"
     r="107.764"
     style="fill:#ff7d00"
     id="circle615" />
  <path
     d="M461.7,548.227A107.768,107.768,0,0,1,324.713,712.245,107.765,107.765,0,1,0,461.7,548.227Z"
     transform="translate(0 0)"
     style="fill:#ff5b00"
     id="path617" />
  <circle
     cx="403.969"
     cy="639.236"
     r="96.236"
     style="fill:#fff"
     id="circle619" />
  <path
     d="M500.145,636q-.013-.416-.032-.831c-.04-.978-.092-1.953-.162-2.923-.008-.1-.012-.2-.019-.3-.08-1.066-.182-2.125-.3-3.181-.027-.248-.056-.495-.085-.743q-.165-1.412-.367-2.811c-.018-.129-.035-.258-.054-.386q-.238-1.59-.531-3.162c-.036-.194-.075-.388-.112-.582q-.27-1.414-.581-2.816c-.028-.125-.053-.251-.082-.375q-.36-1.593-.774-3.164c-.03-.116-.063-.232-.094-.347q-.392-1.466-.826-2.912c-.031-.1-.061-.207-.092-.31q-.487-1.6-1.027-3.175l-.014-.04q-.534-1.552-1.121-3.08l-.083-.219q-1.209-3.132-2.626-6.157c-.019-.042-.038-.084-.058-.125q-1.435-3.055-3.077-5.992l-.029-.051q-1.656-2.96-3.511-5.788h0A107.839,107.839,0,0,1,366.23,727.786h0a95.575,95.575,0,0,0,13.478,4.6l.024.007q1.131.292,2.272.559l.066.016q1.1.257,2.213.486l.149.033c.712.147,1.427.283,2.145.414l.236.046c.7.126,1.406.242,2.112.353l.287.047c.662.1,1.327.193,1.993.282.144.019.286.041.43.06.641.082,1.285.153,1.929.222.169.018.337.041.5.058.614.063,1.229.114,1.846.165.2.017.405.039.608.054.582.045,1.168.078,1.753.112.239.014.477.034.716.046.6.031,1.21.05,1.816.069.222.008.442.02.665.026q1.243.031,2.5.032A96.15,96.15,0,0,0,491.7,678.84q.963-2.132,1.826-4.317,1.293-3.278,2.348-6.67a95.352,95.352,0,0,0,2.824-11.582q.423-2.37.73-4.778a97.214,97.214,0,0,0,.773-12.257C500.205,638.152,500.181,637.074,500.145,636Z"
     transform="translate(0 0)"
     style="fill:#eae8ea"
     id="path621" />
  <circle
     cx="403.969"
     cy="639.236"
     r="107.764"
     style="fill:none;stroke:#363a5a;stroke-linecap:round;stroke-linejoin:round;stroke-width:6px"
     id="circle623" />
  <path
     d="M427.659,625.96a26.949,26.949,0,0,0-3.193-4.519,13.025,13.025,0,0,1-1.621-15.079l16.564-28.815A12.9,12.9,0,0,1,458.9,574.1a84.882,84.882,0,0,1,24.957,35.417,12.9,12.9,0,0,1-9.835,17.183l-32.742,5.843A13.029,13.029,0,0,1,427.659,625.96Z"
     transform="translate(0 0)"
     style="fill:#ffce43"
     id="path625" />
  <path
     d="M380.279,652.512a27.057,27.057,0,0,0,3.193,4.518,13.025,13.025,0,0,1,1.622,15.08l-16.565,28.815a12.9,12.9,0,0,1-19.488,3.449,84.876,84.876,0,0,1-24.956-35.418,12.9,12.9,0,0,1,9.835-17.183l32.742-5.843A13.028,13.028,0,0,1,380.279,652.512Z"
     transform="translate(0 0)"
     style="fill:#ffce43"
     id="path627" />
  <path
     d="M404.3,612.082a26.911,26.911,0,0,0-5.509.51,13.025,13.025,0,0,1-13.874-6.126l-16.693-28.741a12.9,12.9,0,0,1,6.743-18.607,84.88,84.88,0,0,1,43.148-3.934,12.9,12.9,0,0,1,9.976,17.1L416.8,603.57A13.031,13.031,0,0,1,404.3,612.082Z"
     transform="translate(0 0)"
     style="fill:#ffce43"
     id="path629" />
  <path
     d="M403.641,666.39a27.045,27.045,0,0,0,5.509-.51,13.025,13.025,0,0,1,13.874,6.126l16.694,28.741a12.9,12.9,0,0,1-6.744,18.606,84.868,84.868,0,0,1-43.148,3.935,12.9,12.9,0,0,1-9.975-17.1L391.139,674.9A13.029,13.029,0,0,1,403.641,666.39Z"
     transform="translate(0 0)"
     style="fill:#ffce43"
     id="path631" />
  <path
     d="M380.635,625.344a27,27,0,0,0-2.319,5.023,13.026,13.026,0,0,1-12.254,8.936l-33.237.043a12.9,12.9,0,0,1-12.722-15.16,84.879,84.879,0,0,1,18.218-39.311,12.9,12.9,0,0,1,19.8-.062l21.416,25.446A13.03,13.03,0,0,1,380.635,625.344Z"
     transform="translate(0 0)"
     style="fill:#ffce43"
     id="path633" />
  <path
     d="M427.3,653.128a27.037,27.037,0,0,0,2.32-5.023,13.026,13.026,0,0,1,12.254-8.937l33.237-.043a12.9,12.9,0,0,1,12.722,15.161A84.884,84.884,0,0,1,469.618,693.6a12.9,12.9,0,0,1-19.8.062L428.4,668.212A13.029,13.029,0,0,1,427.3,653.128Z"
     transform="translate(0 0)"
     style="fill:#ffce43"
     id="path635" />
  <path
     d="M424.466,621.441a27.007,27.007,0,0,1,3.193,4.519,13.029,13.029,0,0,0,13.618,6.581l32.742-5.843a12.9,12.9,0,0,0,9.835-17.182A84.879,84.879,0,0,0,458.9,574.1a12.9,12.9,0,0,0-19.488,3.449l-16.564,28.815A13.025,13.025,0,0,0,424.466,621.441Z"
     transform="translate(0 0)"
     style="fill:#ffce43"
     id="path637" />
  <path
     d="M363.205,678a31.488,31.488,0,0,1,14.749,6.53l7.14-12.421a13.026,13.026,0,0,0-1.621-15.079,27,27,0,0,1-3.194-4.518,13.029,13.029,0,0,0-13.617-6.582L345.8,649.654C347.339,671.714,352.157,676.422,363.205,678Z"
     transform="translate(0 0)"
     style="fill:#ffce43"
     id="path639" />
  <path
     d="M384.914,606.466a13.026,13.026,0,0,0,13.874,6.126,26.911,26.911,0,0,1,5.509-.51,13.031,13.031,0,0,0,12.5-8.512l11.288-31.285a12.9,12.9,0,0,0-9.976-17.1,84.88,84.88,0,0,0-43.148,3.934,12.9,12.9,0,0,0-6.743,18.607Z"
     transform="translate(0 0)"
     style="fill:#ffce43"
     id="path641" />
  <path
     d="M423.024,672.006a13.025,13.025,0,0,0-13.874-6.126,27.045,27.045,0,0,1-5.509.51,13.029,13.029,0,0,0-12.5,8.512l-5.875,16.282A65.368,65.368,0,0,0,390.205,696c5,4,24,6,24,9,0,2.121,3.5,12.238,5.549,17.985a85.057,85.057,0,0,0,13.22-3.632,12.9,12.9,0,0,0,6.744-18.606Z"
     transform="translate(0 0)"
     style="fill:#ffce43"
     id="path643" />
  <path
     d="M345.205,628c0,4.114.043,7.871.129,11.33l20.728-.027a13.027,13.027,0,0,0,12.254-8.936,26.974,26.974,0,0,1,2.319-5.023,13.03,13.03,0,0,0-1.1-15.085l-21.416-25.446a12.9,12.9,0,0,0-19.8.062,84.812,84.812,0,0,0-10.807,16.708C336.855,603.325,345.205,609.933,345.205,628Z"
     transform="translate(0 0)"
     style="fill:#ffce43"
     id="path645" />
  <path
     d="M475.114,639.125l-33.238.043a13.025,13.025,0,0,0-12.253,8.937,27.037,27.037,0,0,1-2.32,5.023,13.029,13.029,0,0,0,1.1,15.084l21.416,25.447a12.9,12.9,0,0,0,19.8-.062,84.884,84.884,0,0,0,18.218-39.311A12.9,12.9,0,0,0,475.114,639.125Z"
     transform="translate(0 0)"
     style="fill:#ffce43"
     id="path647" />
  <path
     d="M324.085,668.956a84.876,84.876,0,0,0,24.956,35.418,12.9,12.9,0,0,0,19.488-3.449l9.425-16.395A31.488,31.488,0,0,0,363.205,678c-11.048-1.578-15.866-6.286-17.408-28.346l-11.877,2.119A12.9,12.9,0,0,0,324.085,668.956Z"
     transform="translate(0 0)"
     style="fill:#ffb345"
     id="path649" />
  <path
     d="M390.205,696a65.368,65.368,0,0,1-4.941-4.816l-5.413,15a12.9,12.9,0,0,0,9.975,17.1,84.8,84.8,0,0,0,29.928-.3C417.7,717.238,395.205,700,390.205,696Z"
     transform="translate(0 0)"
     style="fill:#ffb345"
     id="path651" />
  <path
     d="M332.825,639.346l12.509-.016c-.086-3.459-.129-7.216-.129-11.33,0-18.067-8.35-24.675-17.691-26.417a85,85,0,0,0-7.411,22.6A12.9,12.9,0,0,0,332.825,639.346Z"
     transform="translate(0 0)"
     style="fill:#ffb345"
     id="path653" />
</svg>
