<svg xmlns="http://www.w3.org/2000/svg" viewBox="0 0 1000 1000"><path d="M793.432 662.59 655.74 749.421a56.955 56.955 0 0 1-47.809 6.048L457 706.953a56.955 56.955 0 0 0-48.072 6.215l-110.5 70.537a25.806 25.806 0 0 1-38.6-14.736l-95.37-334.34a25.807 25.807 0 0 1 11.03-28.893l139.16-87.949a62.363 62.363 0 0 1 52.4-6.655L513.163 358.1a62.365 62.365 0 0 0 52.566-6.758l104.638-66.589a25.807 25.807 0 0 1 38.671 14.693l95.355 334.294a25.806 25.806 0 0 1-10.961 28.85Z" style="fill:#cccdcf;opacity:.4"/><path d="M798.808 627.107 681.23 701.929a62.365 62.365 0 0 1-52.566 6.758l-146.125-46.968a62.366 62.366 0 0 0-52.4 6.654L303.8 748.222a25.806 25.806 0 0 1-38.6-14.736l-95.369-334.34a25.806 25.806 0 0 1 11.029-28.893L320.013 282.3a62.365 62.365 0 0 1 52.4-6.654l146.124 46.969a62.362 62.362 0 0 0 52.566-6.759l104.638-66.588a25.807 25.807 0 0 1 38.671 14.693l95.355 334.292a25.807 25.807 0 0 1-10.959 28.854Z" style="fill:#fff"/><path d="M468.513 623.926 446.65 562.24l-103.319 35.371-32.307-93.606-84.151 16.748 59 206.834a4.335 4.335 0 0 0 4.184 3.137 4.114 4.114 0 0 0 2.251-.681l120.114-75.913c-.522-.611 56.091-30.204 56.091-30.204Z" style="fill:#eaf4f7"/><path d="M798.808 627.107 681.23 701.929a62.365 62.365 0 0 1-52.566 6.758l-146.125-46.968a62.366 62.366 0 0 0-52.4 6.654L303.8 748.222a25.806 25.806 0 0 1-38.6-14.736l-95.369-334.34a25.806 25.806 0 0 1 11.029-28.893L320.013 282.3a62.365 62.365 0 0 1 52.4-6.654l146.124 46.969a62.362 62.362 0 0 0 52.566-6.759l104.638-66.588a25.807 25.807 0 0 1 38.671 14.693l95.355 334.292a25.807 25.807 0 0 1-10.959 28.854Z" style="fill:none;stroke:#363a5a;stroke-miterlimit:10;stroke-width:6px"/><path d="M360.066 585.575s1.792-.467 4.812-1.349" style="fill:none;stroke:#363a5a;stroke-linecap:round;stroke-linejoin:round;stroke-width:4px"/><path d="M379.416 579.572c21.234-7.387 52.394-20.943 52.768-36.975.5-21.3-102.732-127.866-47.233-134.308 185.288-21.506 102.267 132.6 186.772 129.156 35.7-1.455-30.321-50.539 71.682-86.018 15.121-5.26 7.609-43.716 2.536-63.822" style="fill:none;stroke:#363a5a;stroke-linecap:round;stroke-linejoin:round;stroke-width:4px;stroke-dasharray:10.176137924194336,15.264206886291504"/><path d="M643.979 380.226c-.844-3.017-1.4-4.8-1.4-4.8" style="fill:none;stroke:#363a5a;stroke-linecap:round;stroke-linejoin:round;stroke-width:4px"/><circle cx="353.612" cy="588.178" r="48.192" style="fill:#3dc0cb;opacity:.22"/><circle cx="353.612" cy="588.178" r="27.946" style="fill:#3dc0cb"/><path d="M353.612 560.232a27.9 27.9 0 0 0-22.158 10.924 27.942 27.942 0 0 1 37.86 40.139 27.946 27.946 0 0 0-15.7-51.063Z" style="fill:#64c7cf"/><circle cx="353.612" cy="588.178" r="27.946" style="fill:none;stroke:#363a5a;stroke-miterlimit:10;stroke-width:6px"/><path d="m366.347 338.84 80.153 15.193-18.407-32.352-66.339-23.145a30.94 30.94 0 0 0-23.645 1.352l-145.767 88.543a4.325 4.325 0 0 0-1.839 4.816l23.508 82.412 64.089-15.847-11.77-47.212Z" style="fill:#87d5f7;stroke:#259ad6;stroke-linecap:round;stroke-linejoin:round;stroke-width:4px"/><path style="fill:#fddcbf;stroke:#ecb072;stroke-linecap:round;stroke-linejoin:round;stroke-width:4px" d="m493.37 542.929 45.739 11.516 22.113 50.681-49.273-8.077-18.579-54.12z"/><path d="M643.426 391.11c-37.157 0-67.278-10.776-67.278-24.069s30.121-24.07 67.278-24.07 67.277 10.777 67.277 24.07-30.121 24.069-67.277 24.069Z" style="fill:#eaf4f7"/><path style="fill:#fddcbf;stroke:#ecb072;stroke-linecap:round;stroke-linejoin:round;stroke-width:4px" d="m664.538 527.486 83.927-36.534 33.155 101.009-135.902 77.232-24.91-70.3 53.14-29.891-9.41-41.516z"/><path d="M742.481 249.681c0-57.8-46.914-104.344-103.761-101.642-50.9 2.42-94.292 45.782-94.292 98.124 0 75.717 99 134.1 99 134.1s99.053-58.383 99.053-130.582Z" style="fill:#ee4637"/><path d="M679.585 350.964a44.189 44.189 0 0 1-54.6-.188c-29.3-23.2-71.677-65.323-71.677-114.86a96.3 96.3 0 0 1 19.808-58.17c-17.573 17.746-28.689 41.93-28.689 68.417 0 75.717 99 134.1 99 134.1s40.374-23.8 69.571-59.8a282.957 282.957 0 0 1-33.413 30.501Z" style="fill:#cd3c27"/><path d="M638.72 148.039a97.984 97.984 0 0 0-49.9 16.723 96.75 96.75 0 0 1 37.234-9.485c56.847-2.7 103.762 43.841 103.762 101.642 0 56.61-60.894 104.724-87.192 122.863.515.314.8.484.8.484s99.055-58.386 99.055-130.585c.002-57.8-46.912-104.344-103.759-101.642Z" style="fill:#f07378"/><path d="M643.426 288.605a40.756 40.756 0 1 1 40.755-40.756 40.756 40.756 0 0 1-40.755 40.756Z" style="fill:#fff"/><path d="M643.426 288.605a40.756 40.756 0 1 1 40.755-40.756 40.756 40.756 0 0 1-40.755 40.756Z" style="fill:none;stroke:#363a5a;stroke-miterlimit:10;stroke-width:6px"/><path d="M742.481 249.681c0-57.8-46.914-104.344-103.761-101.642-50.9 2.42-94.292 45.782-94.292 98.124 0 75.717 99 134.1 99 134.1s99.053-58.383 99.053-130.582Z" style="fill:none;stroke:#363a5a;stroke-linecap:round;stroke-linejoin:round;stroke-width:6px"/></svg>