<?xml version="1.0" encoding="UTF-8" standalone="no"?>
<svg
   viewBox="0 0 600 600.399"
   version="1.1"
   id="svg604"
   sodipodi:docname="118-macbook.svg"
   inkscape:version="1.1.2 (0a00cf5339, 2022-02-04)"
   xmlns:inkscape="http://www.inkscape.org/namespaces/inkscape"
   xmlns:sodipodi="http://sodipodi.sourceforge.net/DTD/sodipodi-0.dtd"
   xmlns="http://www.w3.org/2000/svg"
   xmlns:svg="http://www.w3.org/2000/svg"
   xmlns:rdf="http://www.w3.org/1999/02/22-rdf-syntax-ns#"
   xmlns:cc="http://creativecommons.org/ns#"
   xmlns:dc="http://purl.org/dc/elements/1.1/">
  <defs
     id="defs608" />
  <sodipodi:namedview
     id="namedview606"
     pagecolor="#ffffff"
     bordercolor="#666666"
     borderopacity="1.0"
     inkscape:pageshadow="2"
     inkscape:pageopacity="0.0"
     inkscape:pagecheckerboard="0"
     showgrid="false"
     inkscape:zoom="2.0563133"
     inkscape:cx="364.48725"
     inkscape:cy="341.87397"
     inkscape:window-width="2560"
     inkscape:window-height="1379"
     inkscape:window-x="0"
     inkscape:window-y="0"
     inkscape:window-maximized="1"
     inkscape:current-layer="svg604" />
  <title
     id="title2">118-macbook</title>
  <g
     style="opacity:0.47;isolation:isolate;mix-blend-mode:multiply"
     id="g10">
    <path
       d="m 449.658,200.181 103,-27.6 a 22.638,22.638 0 0 0 16.007,-27.726 v 0 A 22.638,22.638 0 0 0 540.939,128.848 L 378.646,172.332 A 22.638,22.638 0 0 1 350.92,156.324 v 0 A 22.638,22.638 0 0 1 366.926,128.6 L 440.8,108.8 a 22.638,22.638 0 0 0 16.01,-27.726 v 0 A 22.638,22.638 0 0 0 429.084,65.067 L 53.8,165.62 a 22.637,22.637 0 0 0 -16.008,27.725 v 0 A 22.638,22.638 0 0 0 65.52,209.357 L 123.953,193.7 a 22.639,22.639 0 0 1 27.726,16.008 v 0 a 22.637,22.637 0 0 1 -16.008,27.725 l -100.02,26.8 a 22.639,22.639 0 0 0 -16.008,27.726 v 0 a 22.638,22.638 0 0 0 27.726,16.008 l 62.42,-16.726 a 22.639,22.639 0 0 1 27.726,16.008 v 0 a 22.637,22.637 0 0 1 -16.008,27.725 l -4.429,1.187 A 22.638,22.638 0 0 0 101.074,363.9 v 0 a 22.638,22.638 0 0 0 27.726,16.009 l 4.2,-1.125 a 22.637,22.637 0 0 1 27.725,16.008 v 0 a 22.637,22.637 0 0 1 -16.007,27.726 l -62.19,16.663 a 22.638,22.638 0 0 0 -16.007,27.726 v 0 a 22.638,22.638 0 0 0 27.726,16.007 l 113.637,-30.449 a 22.638,22.638 0 0 1 27.726,16.008 v 0 A 22.638,22.638 0 0 1 219.6,496.2 l -18.212,4.879 a 22.639,22.639 0 0 0 -16.007,27.726 v 0 a 22.637,22.637 0 0 0 27.726,16.007 l 289.35,-77.531 a 22.638,22.638 0 0 0 16.007,-27.726 v 0 a 22.638,22.638 0 0 0 -27.726,-16.008 l -8.512,2.281 A 22.638,22.638 0 0 1 454.5,409.825 v 0 A 22.638,22.638 0 0 1 470.511,382.1 l 55.971,-15 a 22.638,22.638 0 0 0 16.008,-27.726 v 0 A 22.638,22.638 0 0 0 514.764,323.366 L 435.4,344.629 a 22.638,22.638 0 0 1 -27.726,-16.008 v 0 A 22.639,22.639 0 0 1 423.683,300.9 l 56.195,-15.057 a 22.637,22.637 0 0 0 16.007,-27.726 v 0 A 22.637,22.637 0 0 0 468.159,242.1 l -6.781,1.817 A 22.638,22.638 0 0 1 433.652,227.91 v 0 a 22.638,22.638 0 0 1 16.006,-27.729 z"
       style="fill:#76d1ff"
       id="path6" />
    <rect
       x="521.46802"
       y="221.72301"
       width="51.443001"
       height="45.279999"
       rx="22.638"
       transform="rotate(-15,547.19116,244.36411)"
       style="fill:#76d1ff"
       id="rect8" />
  </g>
  <g
     style="opacity:0.33;isolation:isolate;mix-blend-mode:multiply"
     id="g184">
    <rect
       x="177.95"
       y="261.845"
       width="260"
       height="45.478001"
       rx="14"
       style="fill:#4e4e4e;stroke:#000000;stroke-linecap:round;stroke-linejoin:round"
       id="rect12" />
    <rect
       x="177.95"
       y="261.845"
       width="260"
       height="45.478001"
       rx="14"
       style="fill:#4e4e4e"
       id="rect14" />
    <path
       d="m 191.95,261.845 h 232 a 14,14 0 0 1 14,14 v 20.438 a 8.549,8.549 0 0 1 -8.549,8.549 H 186.5 a 8.549,8.549 0 0 1 -8.549,-8.549 v -20.438 a 14,14 0 0 1 14,-14 z"
       style="opacity:0.17;mix-blend-mode:multiply;fill:#4e4e4e"
       id="path16" />
    <rect
       x="177.95"
       y="261.845"
       width="260"
       height="45.478001"
       rx="14"
       style="fill:#4e4e4e;stroke:#46505c;stroke-width:4px;stroke-linecap:round;stroke-linejoin:round"
       id="rect18" />
    <rect
       x="290.48001"
       y="172.44"
       width="34.941002"
       height="224"
       transform="rotate(90,307.9505,284.4395)"
       style="fill:#4e4e4e"
       id="rect20" />
    <rect
       x="290.48001"
       y="172.44"
       width="34.941002"
       height="224"
       transform="rotate(90,307.9505,284.4395)"
       style="fill:#4e4e4e;stroke:#46505c;stroke-linecap:round;stroke-linejoin:round"
       id="rect22" />
    <rect
       x="177.951"
       y="307.323"
       width="260"
       height="172"
       rx="14"
       style="fill:#4e4e4e"
       id="rect24" />
    <rect
       x="225.95"
       y="267.323"
       width="164"
       height="252"
       rx="10"
       transform="rotate(90,307.9505,393.3235)"
       style="fill:#4e4e4e;stroke:#e6f3ff;stroke-width:2px;stroke-miterlimit:10"
       id="rect26" />
    <path
       d="M 291.9,471.5 H 324 a 4,4 0 0 1 4,4 v 3.82 h -40.1 v -3.82 a 4,4 0 0 1 4,-4 z"
       style="fill:#4e4e4e"
       id="path28" />
    <rect
       x="177.951"
       y="307.323"
       width="260"
       height="172"
       rx="14"
       style="fill:#4e4e4e;stroke:#46505c;stroke-width:4px;stroke-linecap:round;stroke-linejoin:round"
       id="rect30" />
    <rect
       x="192.95"
       y="320.74301"
       width="230"
       height="92"
       rx="3"
       style="fill:#4e4e4e"
       id="rect32" />
    <rect
       x="224.035"
       y="390.24301"
       width="14"
       height="14"
       rx="1"
       style="fill:#4e4e4e;stroke:#626c84;stroke-linecap:round;stroke-linejoin:round"
       id="rect34" />
    <rect
       x="202.396"
       y="390.24301"
       width="14"
       height="14"
       rx="1"
       style="fill:#4e4e4e;stroke:#626c84;stroke-linecap:round;stroke-linejoin:round"
       id="rect36" />
    <rect
       x="245.673"
       y="390.24301"
       width="100.554"
       height="14"
       rx="1"
       style="fill:#4e4e4e;stroke:#626c84;stroke-linecap:round;stroke-linejoin:round"
       id="rect38" />
    <rect
       x="353.866"
       y="390.24301"
       width="14"
       height="14"
       rx="1"
       style="fill:#4e4e4e;stroke:#626c84;stroke-linecap:round;stroke-linejoin:round"
       id="rect40" />
    <rect
       x="389.505"
       y="398.11801"
       width="10"
       height="6.125"
       rx="1"
       style="fill:#4e4e4e;stroke:#626c84;stroke-linecap:round;stroke-linejoin:round"
       id="rect42" />
    <rect
       x="389.505"
       y="390.24301"
       width="10"
       height="6.125"
       rx="1"
       style="fill:#4e4e4e;stroke:#626c84;stroke-linecap:round;stroke-linejoin:round"
       id="rect44" />
    <rect
       x="403.505"
       y="398.11801"
       width="10"
       height="6.125"
       rx="1"
       style="fill:#4e4e4e;stroke:#626c84;stroke-linecap:round;stroke-linejoin:round"
       id="rect46" />
    <rect
       x="375.505"
       y="398.11801"
       width="10"
       height="6.125"
       rx="1"
       style="fill:#4e4e4e;stroke:#626c84;stroke-linecap:round;stroke-linejoin:round"
       id="rect48" />
    <rect
       x="202.396"
       y="370.323"
       width="33.639"
       height="14"
       rx="1"
       style="fill:#4e4e4e;stroke:#626c84;stroke-linecap:round;stroke-linejoin:round"
       id="rect50" />
    <rect
       x="243.854"
       y="370.323"
       width="14"
       height="14"
       rx="1"
       style="fill:#4e4e4e;stroke:#626c84;stroke-linecap:round;stroke-linejoin:round"
       id="rect52" />
    <rect
       x="265.49301"
       y="370.323"
       width="14"
       height="14"
       rx="1"
       style="fill:#4e4e4e;stroke:#626c84;stroke-linecap:round;stroke-linejoin:round"
       id="rect54" />
    <rect
       x="287.13101"
       y="370.323"
       width="14"
       height="14"
       rx="1"
       style="fill:#4e4e4e;stroke:#626c84;stroke-linecap:round;stroke-linejoin:round"
       id="rect56" />
    <rect
       x="308.76999"
       y="370.323"
       width="14"
       height="14"
       rx="1"
       style="fill:#4e4e4e;stroke:#626c84;stroke-linecap:round;stroke-linejoin:round"
       id="rect58" />
    <rect
       x="330.40799"
       y="370.323"
       width="14"
       height="14"
       rx="1"
       style="fill:#4e4e4e;stroke:#626c84;stroke-linecap:round;stroke-linejoin:round"
       id="rect60" />
    <rect
       x="352.047"
       y="370.323"
       width="14"
       height="14"
       rx="1"
       style="fill:#4e4e4e;stroke:#626c84;stroke-linecap:round;stroke-linejoin:round"
       id="rect62" />
    <rect
       x="375.505"
       y="370.323"
       width="38"
       height="14"
       rx="1"
       style="fill:#4e4e4e;stroke:#626c84;stroke-linecap:round;stroke-linejoin:round"
       id="rect64" />
    <rect
       x="236.035"
       y="349.84299"
       width="14"
       height="14"
       rx="1"
       style="fill:#4e4e4e;stroke:#626c84;stroke-linecap:round;stroke-linejoin:round"
       id="rect66" />
    <rect
       x="202.396"
       y="349.84299"
       width="26"
       height="14"
       rx="1"
       style="fill:#4e4e4e;stroke:#626c84;stroke-linecap:round;stroke-linejoin:round"
       id="rect68" />
    <rect
       x="257.673"
       y="349.84299"
       width="14"
       height="14"
       rx="1"
       style="fill:#4e4e4e;stroke:#626c84;stroke-linecap:round;stroke-linejoin:round"
       id="rect70" />
    <rect
       x="279.31201"
       y="349.84299"
       width="14"
       height="14"
       rx="1"
       style="fill:#4e4e4e;stroke:#626c84;stroke-linecap:round;stroke-linejoin:round"
       id="rect72" />
    <rect
       x="300.95001"
       y="349.84299"
       width="14"
       height="14"
       rx="1"
       style="fill:#4e4e4e;stroke:#626c84;stroke-linecap:round;stroke-linejoin:round"
       id="rect74" />
    <rect
       x="322.58899"
       y="349.84299"
       width="14"
       height="14"
       rx="1"
       style="fill:#4e4e4e;stroke:#626c84;stroke-linecap:round;stroke-linejoin:round"
       id="rect76" />
    <rect
       x="344.228"
       y="349.84299"
       width="14"
       height="14"
       rx="1"
       style="fill:#4e4e4e;stroke:#626c84;stroke-linecap:round;stroke-linejoin:round"
       id="rect78" />
    <rect
       x="365.866"
       y="349.84299"
       width="14"
       height="14"
       rx="1"
       style="fill:#4e4e4e;stroke:#626c84;stroke-linecap:round;stroke-linejoin:round"
       id="rect80" />
    <rect
       x="387.505"
       y="349.84299"
       width="26"
       height="14"
       rx="1"
       style="fill:#4e4e4e;stroke:#626c84;stroke-linecap:round;stroke-linejoin:round"
       id="rect82" />
    <rect
       x="224.297"
       y="330.24301"
       width="14"
       height="14"
       rx="1"
       style="fill:#4e4e4e;stroke:#626c84;stroke-linecap:round;stroke-linejoin:round"
       id="rect84" />
    <rect
       x="202.396"
       y="330.24301"
       width="14"
       height="14"
       rx="1"
       style="fill:#4e4e4e;stroke:#626c84;stroke-linecap:round;stroke-linejoin:round"
       id="rect86" />
    <rect
       x="246.198"
       y="330.24301"
       width="14"
       height="14"
       rx="1"
       style="fill:#4e4e4e;stroke:#626c84;stroke-linecap:round;stroke-linejoin:round"
       id="rect88" />
    <rect
       x="268.099"
       y="330.24301"
       width="14"
       height="14"
       rx="1"
       style="fill:#4e4e4e;stroke:#626c84;stroke-linecap:round;stroke-linejoin:round"
       id="rect90" />
    <rect
       x="290"
       y="330.24301"
       width="14"
       height="14"
       rx="1"
       style="fill:#4e4e4e;stroke:#626c84;stroke-linecap:round;stroke-linejoin:round"
       id="rect92" />
    <rect
       x="311.901"
       y="330.24301"
       width="14"
       height="14"
       rx="1"
       style="fill:#4e4e4e;stroke:#626c84;stroke-linecap:round;stroke-linejoin:round"
       id="rect94" />
    <rect
       x="333.802"
       y="330.24301"
       width="14"
       height="14"
       rx="1"
       style="fill:#4e4e4e;stroke:#626c84;stroke-linecap:round;stroke-linejoin:round"
       id="rect96" />
    <rect
       x="355.703"
       y="330.24301"
       width="14"
       height="14"
       rx="1"
       style="fill:#4e4e4e;stroke:#626c84;stroke-linecap:round;stroke-linejoin:round"
       id="rect98" />
    <rect
       x="377.604"
       y="330.24301"
       width="14"
       height="14"
       rx="1"
       style="fill:#4e4e4e;stroke:#626c84;stroke-linecap:round;stroke-linejoin:round"
       id="rect100" />
    <rect
       x="399.505"
       y="330.24301"
       width="14"
       height="14"
       rx="1"
       style="fill:#4e4e4e;stroke:#626c84;stroke-linecap:round;stroke-linejoin:round"
       id="rect102" />
    <rect
       x="224.035"
       y="390.24301"
       width="14"
       height="14"
       rx="1"
       style="fill:#4e4e4e"
       id="rect104" />
    <rect
       x="202.396"
       y="390.24301"
       width="14"
       height="14"
       rx="1"
       style="fill:#4e4e4e"
       id="rect106" />
    <rect
       x="245.673"
       y="390.24301"
       width="100.554"
       height="14"
       rx="1"
       style="fill:#4e4e4e"
       id="rect108" />
    <rect
       x="353.866"
       y="390.24301"
       width="14"
       height="14"
       rx="1"
       style="fill:#4e4e4e"
       id="rect110" />
    <rect
       x="389.505"
       y="398.11801"
       width="10"
       height="6.125"
       rx="1"
       style="fill:#4e4e4e"
       id="rect112" />
    <rect
       x="389.505"
       y="390.24301"
       width="10"
       height="6.125"
       rx="1"
       style="fill:#4e4e4e"
       id="rect114" />
    <rect
       x="403.505"
       y="398.11801"
       width="10"
       height="6.125"
       rx="1"
       style="fill:#4e4e4e"
       id="rect116" />
    <rect
       x="375.505"
       y="398.11801"
       width="10"
       height="6.125"
       rx="1"
       style="fill:#4e4e4e"
       id="rect118" />
    <rect
       x="202.396"
       y="370.323"
       width="33.639"
       height="14"
       rx="1"
       style="fill:#4e4e4e"
       id="rect120" />
    <rect
       x="243.854"
       y="370.323"
       width="14"
       height="14"
       rx="1"
       style="fill:#4e4e4e"
       id="rect122" />
    <rect
       x="265.49301"
       y="370.323"
       width="14"
       height="14"
       rx="1"
       style="fill:#4e4e4e"
       id="rect124" />
    <rect
       x="287.13101"
       y="370.323"
       width="14"
       height="14"
       rx="1"
       style="fill:#4e4e4e"
       id="rect126" />
    <rect
       x="308.76999"
       y="370.323"
       width="14"
       height="14"
       rx="1"
       style="fill:#4e4e4e"
       id="rect128" />
    <rect
       x="330.40799"
       y="370.323"
       width="14"
       height="14"
       rx="1"
       style="fill:#4e4e4e"
       id="rect130" />
    <rect
       x="352.047"
       y="370.323"
       width="14"
       height="14"
       rx="1"
       style="fill:#4e4e4e"
       id="rect132" />
    <rect
       x="375.505"
       y="370.323"
       width="38"
       height="14"
       rx="1"
       style="fill:#4e4e4e"
       id="rect134" />
    <rect
       x="236.035"
       y="349.84299"
       width="14"
       height="14"
       rx="1"
       style="fill:#4e4e4e"
       id="rect136" />
    <rect
       x="202.396"
       y="349.84299"
       width="26"
       height="14"
       rx="1"
       style="fill:#4e4e4e"
       id="rect138" />
    <rect
       x="257.673"
       y="349.84299"
       width="14"
       height="14"
       rx="1"
       style="fill:#4e4e4e"
       id="rect140" />
    <rect
       x="279.31201"
       y="349.84299"
       width="14"
       height="14"
       rx="1"
       style="fill:#4e4e4e"
       id="rect142" />
    <rect
       x="300.95001"
       y="349.84299"
       width="14"
       height="14"
       rx="1"
       style="fill:#4e4e4e"
       id="rect144" />
    <rect
       x="322.58899"
       y="349.84299"
       width="14"
       height="14"
       rx="1"
       style="fill:#4e4e4e"
       id="rect146" />
    <rect
       x="344.228"
       y="349.84299"
       width="14"
       height="14"
       rx="1"
       style="fill:#4e4e4e"
       id="rect148" />
    <rect
       x="365.866"
       y="349.84299"
       width="14"
       height="14"
       rx="1"
       style="fill:#4e4e4e"
       id="rect150" />
    <rect
       x="387.505"
       y="349.84299"
       width="26"
       height="14"
       rx="1"
       style="fill:#4e4e4e"
       id="rect152" />
    <rect
       x="224.297"
       y="330.24301"
       width="14"
       height="14"
       rx="1"
       style="fill:#4e4e4e"
       id="rect154" />
    <rect
       x="202.396"
       y="330.24301"
       width="14"
       height="14"
       rx="1"
       style="fill:#4e4e4e"
       id="rect156" />
    <rect
       x="246.198"
       y="330.24301"
       width="14"
       height="14"
       rx="1"
       style="fill:#4e4e4e"
       id="rect158" />
    <rect
       x="268.099"
       y="330.24301"
       width="14"
       height="14"
       rx="1"
       style="fill:#4e4e4e"
       id="rect160" />
    <rect
       x="290"
       y="330.24301"
       width="14"
       height="14"
       rx="1"
       style="fill:#4e4e4e"
       id="rect162" />
    <rect
       x="311.901"
       y="330.24301"
       width="14"
       height="14"
       rx="1"
       style="fill:#4e4e4e"
       id="rect164" />
    <rect
       x="333.802"
       y="330.24301"
       width="14"
       height="14"
       rx="1"
       style="fill:#4e4e4e"
       id="rect166" />
    <rect
       x="355.703"
       y="330.24301"
       width="14"
       height="14"
       rx="1"
       style="fill:#4e4e4e"
       id="rect168" />
    <rect
       x="377.604"
       y="330.24301"
       width="14"
       height="14"
       rx="1"
       style="fill:#4e4e4e"
       id="rect170" />
    <rect
       x="399.505"
       y="330.24301"
       width="14"
       height="14"
       rx="1"
       style="fill:#4e4e4e"
       id="rect172" />
    <path
       d="m 222.95,298.339 h 170 v 13.446 a 4,4 0 0 1 -4,4 h -162 a 4,4 0 0 1 -4,-4 z"
       style="fill:#4e4e4e"
       id="path174" />
    <path
       d="m 388.95,311.784 h -162 a 4,4 0 0 1 -4,-4 v 4 a 4,4 0 0 0 4,4 h 162 a 4,4 0 0 0 4,-4 v -4 a 4,4 0 0 1 -4,4 z"
       style="opacity:0.25;mix-blend-mode:multiply;fill:#4e4e4e"
       id="path176" />
    <path
       d="m 222.95,298.339 h 170 v 13.446 a 4,4 0 0 1 -4,4 h -162 a 4,4 0 0 1 -4,-4 z"
       style="fill:#4e4e4e;stroke:#46505c;stroke-width:2px;stroke-linecap:round;stroke-linejoin:round"
       id="path178" />
    <rect
       x="270.95099"
       y="417.74301"
       width="74"
       height="51"
       rx="2"
       style="fill:#4e4e4e"
       id="rect180" />
    <rect
       x="270.95099"
       y="417.74301"
       width="74"
       height="51"
       rx="2"
       style="fill:#4e4e4e;stroke:#626c84;stroke-linecap:round;stroke-linejoin:round"
       id="rect182" />
  </g>
  <g
     style="opacity:0.33;isolation:isolate;mix-blend-mode:multiply"
     id="g218">
    <path
       d="m 90.15,401.363 h 13.466 a 0.692,0.692 0 0 1 0.692,0.692 v 9.616 a 0.692,0.692 0 0 1 -0.692,0.692 H 90.15 a 5,5 0 0 1 -5,-5 v -1 a 5,5 0 0 1 5,-5 z"
       transform="matrix(0.573,-0.819,0.819,0.573,-292.917,251.165)"
       style="fill:#4e4e4e;stroke:#46505c;stroke-width:4px;stroke-linecap:round;stroke-linejoin:round"
       id="path186" />
    <path
       d="m 90.15,401.363 h 13.466 a 0.692,0.692 0 0 1 0.692,0.692 v 9.616 a 0.692,0.692 0 0 1 -0.692,0.692 H 90.15 a 5,5 0 0 1 -5,-5 v -1 a 5,5 0 0 1 5,-5 z"
       transform="matrix(0.573,-0.819,0.819,0.573,-292.917,251.165)"
       style="fill:#4e4e4e;stroke:#46505c;stroke-width:4px;stroke-linecap:round;stroke-linejoin:round"
       id="path188" />
    <circle
       cx="117.084"
       cy="374.922"
       r="32.576"
       style="fill:#4e4e4e;stroke:#46505c;stroke-width:4px;stroke-linecap:round;stroke-linejoin:round"
       id="circle190" />
    <circle
       cx="117.084"
       cy="374.922"
       r="32.576"
       style="fill:#4e4e4e;stroke:#46505c;stroke-width:4px;stroke-linecap:round;stroke-linejoin:round"
       id="circle192" />
    <circle
       cx="117.084"
       cy="374.922"
       r="25.355"
       style="fill:#4e4e4e;stroke:#46505c;stroke-width:4px;stroke-linecap:round;stroke-linejoin:round"
       id="circle194" />
    <circle
       cx="117.084"
       cy="374.922"
       r="25.355"
       style="fill:#4e4e4e;stroke:#46505c;stroke-width:4px;stroke-linecap:round;stroke-linejoin:round"
       id="circle196" />
    <path
       d="m 100.509,369.659 c 0.339,-0.764 0.706,-1.513 1.08,-2.246 1.7,-3.332 3.733,-6.786 6.978,-8.827 2.755,-1.734 6.608,-2.413 9.594,-0.879 2.59,1.33 4.151,4.065 6.514,5.767 a 42.738,42.738 0 0 0 4.954,2.605 7.44,7.44 0 0 1 3.813,3.921 c 0.8,2.444 -0.519,5.052 -0.532,7.624 a 7.58,7.58 0 0 0 1.137,4.017 3.909,3.909 0 0 1 0.875,1.979 2.6,2.6 0 0 1 -1.715,2.06 c -2.626,1.241 -5.693,0.793 -8.581,0.481 -2.888,-0.312 -6.086,-0.378 -8.369,1.418 a 24.329,24.329 0 0 0 -2.589,2.792 4.072,4.072 0 0 1 -6.25,0.637 26.771,26.771 0 0 1 -5.326,-6.041 16.421,16.421 0 0 1 -3.173,-6.557 c -0.519,-2.975 0.346,-5.952 1.59,-8.751 z"
       style="opacity:0.33;mix-blend-mode:multiply;fill:#4e4e4e;stroke:#46505c;stroke-width:4px;stroke-linecap:round;stroke-linejoin:round"
       id="path198" />
    <circle
       cx="122.212"
       cy="392.543"
       r="1.574"
       style="opacity:0.33;mix-blend-mode:multiply;fill:#4e4e4e;stroke:#46505c;stroke-width:4px;stroke-linecap:round;stroke-linejoin:round"
       id="circle200" />
    <circle
       cx="118.115"
       cy="393.12399"
       r="1.09"
       style="opacity:0.33;mix-blend-mode:multiply;fill:#4e4e4e;stroke:#46505c;stroke-width:4px;stroke-linecap:round;stroke-linejoin:round"
       id="circle202" />
    <circle
       cx="125.931"
       cy="391.07901"
       r="0.98799998"
       style="opacity:0.33;mix-blend-mode:multiply;fill:#4e4e4e;stroke:#46505c;stroke-width:4px;stroke-linecap:round;stroke-linejoin:round"
       id="circle204" />
    <circle
       cx="114.667"
       cy="393.53201"
       r="0.708"
       style="opacity:0.33;mix-blend-mode:multiply;fill:#4e4e4e;stroke:#46505c;stroke-width:4px;stroke-linecap:round;stroke-linejoin:round"
       id="circle206" />
    <circle
       cx="129.052"
       cy="390.035"
       r="0.43200001"
       style="opacity:0.33;mix-blend-mode:multiply;fill:#4e4e4e;stroke:#46505c;stroke-width:4px;stroke-linecap:round;stroke-linejoin:round"
       id="circle208" />
    <circle
       cx="97.408997"
       cy="368.931"
       r="1.0140001"
       style="opacity:0.33;mix-blend-mode:multiply;fill:#4e4e4e;stroke:#46505c;stroke-width:4px;stroke-linecap:round;stroke-linejoin:round"
       id="circle210" />
    <circle
       cx="125.014"
       cy="357.133"
       r="0.954"
       style="opacity:0.33;mix-blend-mode:multiply;fill:#4e4e4e;stroke:#46505c;stroke-width:4px;stroke-linecap:round;stroke-linejoin:round"
       id="circle212" />
    <circle
       cx="131.215"
       cy="361.83301"
       r="0.86400002"
       style="opacity:0.33;mix-blend-mode:multiply;fill:#4e4e4e;stroke:#46505c;stroke-width:4px;stroke-linecap:round;stroke-linejoin:round"
       id="circle214" />
    <circle
       cx="131.924"
       cy="364.28101"
       r="0.37799999"
       style="opacity:0.33;mix-blend-mode:multiply;fill:#4e4e4e;stroke:#46505c;stroke-width:4px;stroke-linecap:round;stroke-linejoin:round"
       id="circle216" />
  </g>
  <path
     d="m 80.375912,399.28061 7.721089,-11.03136 a 0.692,0.692 0 0 1 0.963735,-0.17012 l 7.878025,5.51399 a 0.692,0.692 0 0 1 0.170124,0.96374 l -7.721089,11.03136 a 5,5 0 0 1 -6.963407,1.22922 l -0.819262,-0.57342 a 5,5 0 0 1 -1.229215,-6.96341 z"
     style="isolation:isolate;fill:#ffffff;stroke:#e6f3ff;stroke-width:2px;stroke-miterlimit:10"
     id="path220" />
  <path
     d="m 89.06,388.081 a 0.692,0.692 0 0 0 -0.963,0.171 l -3.477,4.966 a 36.623,36.623 0 0 0 4.269,3.494 37.022,37.022 0 0 0 4.742,2.815 l 3.477,-4.968 a 0.69,0.69 0 0 0 -0.17,-0.963 z"
     style="opacity:0.18;isolation:isolate;fill:#4e4e4e;stroke:#46505c;stroke-width:4px;stroke-linecap:round;stroke-linejoin:round"
     id="path222" />
  <path
     d="m 80.375912,399.28061 7.721089,-11.03136 a 0.692,0.692 0 0 1 0.963735,-0.17012 l 7.878025,5.51399 a 0.692,0.692 0 0 1 0.170124,0.96374 l -7.721089,11.03136 a 5,5 0 0 1 -6.963407,1.22922 l -0.819262,-0.57342 a 5,5 0 0 1 -1.229215,-6.96341 z"
     style="isolation:isolate;fill:none;stroke:#46505c;stroke-width:4px;stroke-linecap:round;stroke-linejoin:round"
     id="path224" />
  <circle
     cx="109.862"
     cy="366.746"
     r="32.576"
     style="isolation:isolate;fill:#ffffff;stroke:#e6f3ff;stroke-width:2px;stroke-miterlimit:10"
     id="circle226" />
  <circle
     cx="109.862"
     cy="366.746"
     r="32.576"
     style="isolation:isolate;fill:none;stroke:#46505c;stroke-width:4px;stroke-linecap:round;stroke-linejoin:round"
     id="circle228" />
  <circle
     cx="109.862"
     cy="366.746"
     r="25.355"
     style="isolation:isolate;fill:#845b5b"
     id="circle230" />
  <circle
     cx="109.862"
     cy="366.746"
     r="25.355"
     style="isolation:isolate;fill:none;stroke:#46505c;stroke-width:2px;stroke-linecap:round;stroke-linejoin:round"
     id="circle232" />
  <path
     d="m 93.287,361.482 c 0.339,-0.763 0.706,-1.513 1.08,-2.246 1.7,-3.331 3.734,-6.785 6.978,-8.827 2.756,-1.734 6.608,-2.412 9.594,-0.879 2.59,1.33 4.151,4.066 6.514,5.767 a 42.752,42.752 0 0 0 4.955,2.6 7.447,7.447 0 0 1 3.813,3.918 c 0.8,2.445 -0.519,5.053 -0.533,7.624 a 7.58,7.58 0 0 0 1.137,4.017 3.91,3.91 0 0 1 0.876,1.979 2.6,2.6 0 0 1 -1.715,2.061 c -2.627,1.24 -5.694,0.793 -8.582,0.48 -2.888,-0.313 -6.085,-0.377 -8.369,1.418 a 24.412,24.412 0 0 0 -2.589,2.792 4.073,4.073 0 0 1 -6.25,0.638 26.8,26.8 0 0 1 -5.326,-6.042 16.409,16.409 0 0 1 -3.17,-6.552 c -0.527,-2.972 0.344,-5.949 1.587,-8.748 z"
     style="opacity:0.33;isolation:isolate;mix-blend-mode:multiply;fill:#845b5b"
     id="path234" />
  <circle
     cx="114.99"
     cy="384.366"
     r="1.574"
     style="opacity:0.33;isolation:isolate;mix-blend-mode:multiply;fill:#845b5b"
     id="circle236" />
  <circle
     cx="110.893"
     cy="384.94699"
     r="1.09"
     style="opacity:0.33;isolation:isolate;mix-blend-mode:multiply;fill:#845b5b"
     id="circle238" />
  <circle
     cx="118.709"
     cy="382.90302"
     r="0.98799998"
     style="opacity:0.33;isolation:isolate;mix-blend-mode:multiply;fill:#845b5b"
     id="circle240" />
  <circle
     cx="107.445"
     cy="385.35599"
     r="0.708"
     style="opacity:0.33;isolation:isolate;mix-blend-mode:multiply;fill:#845b5b"
     id="circle242" />
  <circle
     cx="121.83"
     cy="381.85901"
     r="0.43200001"
     style="opacity:0.33;isolation:isolate;mix-blend-mode:multiply;fill:#845b5b"
     id="circle244" />
  <circle
     cx="90.186996"
     cy="360.755"
     r="1.0140001"
     style="opacity:0.33;isolation:isolate;mix-blend-mode:multiply;fill:#845b5b"
     id="circle246" />
  <circle
     cx="117.792"
     cy="348.95599"
     r="0.954"
     style="opacity:0.33;isolation:isolate;mix-blend-mode:multiply;fill:#845b5b"
     id="circle248" />
  <circle
     cx="123.993"
     cy="353.65601"
     r="0.86400002"
     style="opacity:0.33;isolation:isolate;mix-blend-mode:multiply;fill:#845b5b"
     id="circle250" />
  <circle
     cx="124.702"
     cy="356.104"
     r="0.37799999"
     style="opacity:0.33;isolation:isolate;mix-blend-mode:multiply;fill:#845b5b"
     id="circle252" />
  <circle
     cx="112.084"
     cy="368.84"
     r="2"
     style="isolation:isolate;fill:#845b5b"
     id="circle254" />
  <circle
     cx="105.57"
     cy="361.159"
     r="3.5"
     style="isolation:isolate;fill:#845b5b"
     id="circle256" />
  <rect
     x="170"
     y="133.90401"
     width="260"
     height="164"
     rx="14"
     style="isolation:isolate;fill:none;stroke:#000000;stroke-linecap:round;stroke-linejoin:round"
     id="rect258" />
  <rect
     x="170"
     y="133.90401"
     width="260"
     height="164"
     rx="14"
     style="isolation:isolate;fill:#626c84"
     id="rect260" />
  <rect
     x="170"
     y="133.90401"
     width="260"
     height="164"
     rx="14"
     style="isolation:isolate;fill:#626c84"
     id="rect262" />
  <rect
     x="170"
     y="133.90401"
     width="260"
     height="155.01601"
     rx="14"
     style="opacity:0.17;isolation:isolate;mix-blend-mode:multiply;fill:#626c84"
     id="rect264" />
  <path
     d="m 184,137.9 h 232 a 14,14 0 0 1 14,14 v 132 0 -136 a 14,14 0 0 0 -14,-14 H 184 a 14,14 0 0 0 -14,14 v 4 a 14,14 0 0 1 14,-14 z"
     style="opacity:0.1;isolation:isolate;fill:#ffffff"
     id="path266" />
  <g
     style="opacity:0.1;isolation:isolate"
     id="g272">
    <polygon
       points="384.449,133.904 368.38,133.904 249.227,297.904 265.296,297.904 "
       style="fill:#ffffff"
       id="polygon268" />
    <polygon
       points="398.664,133.904 393.719,133.904 274.566,297.904 279.51,297.904 "
       style="fill:#ffffff"
       id="polygon270" />
  </g>
  <rect
     x="170"
     y="133.90401"
     width="260"
     height="164"
     rx="14"
     style="isolation:isolate;fill:none;stroke:#46505c;stroke-width:4px;stroke-linecap:round;stroke-linejoin:round"
     id="rect274" />
  <rect
     x="152.384"
     y="-412"
     width="126"
     height="224"
     transform="rotate(90)"
     style="isolation:isolate;fill:#fd848e"
     id="rect276" />
  <g
     style="opacity:0.06;isolation:isolate"
     id="g282">
    <polygon
       points="372.022,152.384 355.953,152.384 264.409,278.384 280.478,278.384 "
       style="fill:#ffffff"
       id="polygon278" />
    <polygon
       points="386.237,152.384 381.293,152.384 289.748,278.384 294.693,278.384 "
       style="fill:#ffffff"
       id="polygon280" />
  </g>
  <rect
     x="152.384"
     y="-412"
     width="126"
     height="224"
     transform="rotate(90)"
     style="isolation:isolate;fill:none;stroke:#46505c;stroke-linecap:round;stroke-linejoin:round"
     id="rect284" />
  <rect
     x="170"
     y="297.90399"
     width="260"
     height="172"
     rx="14"
     style="isolation:isolate;fill:#e6f3ff"
     id="rect286" />
  <rect
     x="301.90399"
     y="-426"
     width="164"
     height="252"
     rx="10"
     transform="rotate(90)"
     style="isolation:isolate;fill:#ffffff;stroke:#e6f3ff;stroke-width:2px;stroke-miterlimit:10"
     id="rect288" />
  <path
     d="m 283.949,462.084 h 32.1 a 4,4 0 0 1 4,4 v 3.82 h -40.1 v -3.82 a 4,4 0 0 1 4,-4 z"
     style="isolation:isolate;fill:#e6f3ff"
     id="path290" />
  <rect
     x="170"
     y="297.90399"
     width="260"
     height="172"
     rx="14"
     style="isolation:isolate;fill:none;stroke:#46505c;stroke-width:4px;stroke-linecap:round;stroke-linejoin:round"
     id="rect292" />
  <rect
     x="185"
     y="311.323"
     width="230"
     height="92"
     rx="3"
     style="isolation:isolate;fill:#e6f3ff"
     id="rect294" />
  <rect
     x="216.084"
     y="380.823"
     width="14"
     height="14"
     rx="1"
     style="isolation:isolate;fill:none;stroke:#626c84;stroke-linecap:round;stroke-linejoin:round"
     id="rect296" />
  <rect
     x="194.446"
     y="380.823"
     width="14"
     height="14"
     rx="1"
     style="isolation:isolate;fill:none;stroke:#626c84;stroke-linecap:round;stroke-linejoin:round"
     id="rect298" />
  <rect
     x="237.72301"
     y="380.823"
     width="100.554"
     height="14"
     rx="1"
     style="isolation:isolate;fill:none;stroke:#626c84;stroke-linecap:round;stroke-linejoin:round"
     id="rect300" />
  <rect
     x="345.91599"
     y="380.823"
     width="14"
     height="14"
     rx="1"
     style="isolation:isolate;fill:none;stroke:#626c84;stroke-linecap:round;stroke-linejoin:round"
     id="rect302" />
  <rect
     x="381.55399"
     y="388.698"
     width="10"
     height="6.125"
     rx="1"
     style="isolation:isolate;fill:none;stroke:#626c84;stroke-linecap:round;stroke-linejoin:round"
     id="rect304" />
  <rect
     x="381.55399"
     y="380.823"
     width="10"
     height="6.125"
     rx="1"
     style="isolation:isolate;fill:none;stroke:#626c84;stroke-linecap:round;stroke-linejoin:round"
     id="rect306" />
  <rect
     x="395.55399"
     y="388.698"
     width="10"
     height="6.125"
     rx="1"
     style="isolation:isolate;fill:none;stroke:#626c84;stroke-linecap:round;stroke-linejoin:round"
     id="rect308" />
  <rect
     x="367.55399"
     y="388.698"
     width="10"
     height="6.125"
     rx="1"
     style="isolation:isolate;fill:none;stroke:#626c84;stroke-linecap:round;stroke-linejoin:round"
     id="rect310" />
  <rect
     x="194.446"
     y="360.90399"
     width="33.639"
     height="14"
     rx="1"
     style="isolation:isolate;fill:none;stroke:#626c84;stroke-linecap:round;stroke-linejoin:round"
     id="rect312" />
  <rect
     x="235.90401"
     y="360.90399"
     width="14"
     height="14"
     rx="1"
     style="isolation:isolate;fill:none;stroke:#626c84;stroke-linecap:round;stroke-linejoin:round"
     id="rect314" />
  <rect
     x="257.54199"
     y="360.90399"
     width="14"
     height="14"
     rx="1"
     style="isolation:isolate;fill:none;stroke:#626c84;stroke-linecap:round;stroke-linejoin:round"
     id="rect316" />
  <rect
     x="279.181"
     y="360.90399"
     width="14"
     height="14"
     rx="1"
     style="isolation:isolate;fill:none;stroke:#626c84;stroke-linecap:round;stroke-linejoin:round"
     id="rect318" />
  <rect
     x="300.819"
     y="360.90399"
     width="14"
     height="14"
     rx="1"
     style="isolation:isolate;fill:none;stroke:#626c84;stroke-linecap:round;stroke-linejoin:round"
     id="rect320" />
  <rect
     x="322.45801"
     y="360.90399"
     width="14"
     height="14"
     rx="1"
     style="isolation:isolate;fill:none;stroke:#626c84;stroke-linecap:round;stroke-linejoin:round"
     id="rect322" />
  <rect
     x="344.09601"
     y="360.90399"
     width="14"
     height="14"
     rx="1"
     style="isolation:isolate;fill:none;stroke:#626c84;stroke-linecap:round;stroke-linejoin:round"
     id="rect324" />
  <rect
     x="367.55399"
     y="360.90399"
     width="38"
     height="14"
     rx="1"
     style="isolation:isolate;fill:none;stroke:#626c84;stroke-linecap:round;stroke-linejoin:round"
     id="rect326" />
  <rect
     x="228.084"
     y="340.42401"
     width="14"
     height="14"
     rx="1"
     style="isolation:isolate;fill:none;stroke:#626c84;stroke-linecap:round;stroke-linejoin:round"
     id="rect328" />
  <rect
     x="194.446"
     y="340.42401"
     width="26"
     height="14"
     rx="1"
     style="isolation:isolate;fill:none;stroke:#626c84;stroke-linecap:round;stroke-linejoin:round"
     id="rect330" />
  <rect
     x="249.72301"
     y="340.42401"
     width="14"
     height="14"
     rx="1"
     style="isolation:isolate;fill:none;stroke:#626c84;stroke-linecap:round;stroke-linejoin:round"
     id="rect332" />
  <rect
     x="271.36099"
     y="340.42401"
     width="14"
     height="14"
     rx="1"
     style="isolation:isolate;fill:none;stroke:#626c84;stroke-linecap:round;stroke-linejoin:round"
     id="rect334" />
  <rect
     x="293"
     y="340.42401"
     width="14"
     height="14"
     rx="1"
     style="isolation:isolate;fill:none;stroke:#626c84;stroke-linecap:round;stroke-linejoin:round"
     id="rect336" />
  <rect
     x="314.63901"
     y="340.42401"
     width="14"
     height="14"
     rx="1"
     style="isolation:isolate;fill:none;stroke:#626c84;stroke-linecap:round;stroke-linejoin:round"
     id="rect338" />
  <rect
     x="336.27701"
     y="340.42401"
     width="14"
     height="14"
     rx="1"
     style="isolation:isolate;fill:none;stroke:#626c84;stroke-linecap:round;stroke-linejoin:round"
     id="rect340" />
  <rect
     x="357.91599"
     y="340.42401"
     width="14"
     height="14"
     rx="1"
     style="isolation:isolate;fill:none;stroke:#626c84;stroke-linecap:round;stroke-linejoin:round"
     id="rect342" />
  <rect
     x="379.55399"
     y="340.42401"
     width="26"
     height="14"
     rx="1"
     style="isolation:isolate;fill:none;stroke:#626c84;stroke-linecap:round;stroke-linejoin:round"
     id="rect344" />
  <rect
     x="216.347"
     y="320.823"
     width="14"
     height="14"
     rx="1"
     style="isolation:isolate;fill:none;stroke:#626c84;stroke-linecap:round;stroke-linejoin:round"
     id="rect346" />
  <rect
     x="194.446"
     y="320.823"
     width="14"
     height="14"
     rx="1"
     style="isolation:isolate;fill:none;stroke:#626c84;stroke-linecap:round;stroke-linejoin:round"
     id="rect348" />
  <rect
     x="238.248"
     y="320.823"
     width="14"
     height="14"
     rx="1"
     style="isolation:isolate;fill:none;stroke:#626c84;stroke-linecap:round;stroke-linejoin:round"
     id="rect350" />
  <rect
     x="260.14899"
     y="320.823"
     width="14"
     height="14"
     rx="1"
     style="isolation:isolate;fill:none;stroke:#626c84;stroke-linecap:round;stroke-linejoin:round"
     id="rect352" />
  <rect
     x="282.04999"
     y="320.823"
     width="14"
     height="14"
     rx="1"
     style="isolation:isolate;fill:none;stroke:#626c84;stroke-linecap:round;stroke-linejoin:round"
     id="rect354" />
  <rect
     x="303.95001"
     y="320.823"
     width="14"
     height="14"
     rx="1"
     style="isolation:isolate;fill:none;stroke:#626c84;stroke-linecap:round;stroke-linejoin:round"
     id="rect356" />
  <rect
     x="325.85101"
     y="320.823"
     width="14"
     height="14"
     rx="1"
     style="isolation:isolate;fill:none;stroke:#626c84;stroke-linecap:round;stroke-linejoin:round"
     id="rect358" />
  <rect
     x="347.75201"
     y="320.823"
     width="14"
     height="14"
     rx="1"
     style="isolation:isolate;fill:none;stroke:#626c84;stroke-linecap:round;stroke-linejoin:round"
     id="rect360" />
  <rect
     x="369.65302"
     y="320.823"
     width="14"
     height="14"
     rx="1"
     style="isolation:isolate;fill:none;stroke:#626c84;stroke-linecap:round;stroke-linejoin:round"
     id="rect362" />
  <rect
     x="391.55399"
     y="320.823"
     width="14"
     height="14"
     rx="1"
     style="isolation:isolate;fill:none;stroke:#626c84;stroke-linecap:round;stroke-linejoin:round"
     id="rect364" />
  <rect
     x="216.084"
     y="380.823"
     width="14"
     height="14"
     rx="1"
     style="isolation:isolate;fill:#626c84"
     id="rect366" />
  <rect
     x="194.446"
     y="380.823"
     width="14"
     height="14"
     rx="1"
     style="isolation:isolate;fill:#626c84"
     id="rect368" />
  <rect
     x="237.72301"
     y="380.823"
     width="100.554"
     height="14"
     rx="1"
     style="isolation:isolate;fill:#626c84"
     id="rect370" />
  <rect
     x="345.91599"
     y="380.823"
     width="14"
     height="14"
     rx="1"
     style="isolation:isolate;fill:#626c84"
     id="rect372" />
  <rect
     x="381.55399"
     y="388.698"
     width="10"
     height="6.125"
     rx="1"
     style="isolation:isolate;fill:#626c84"
     id="rect374" />
  <rect
     x="381.55399"
     y="380.823"
     width="10"
     height="6.125"
     rx="1"
     style="isolation:isolate;fill:#626c84"
     id="rect376" />
  <rect
     x="395.55399"
     y="388.698"
     width="10"
     height="6.125"
     rx="1"
     style="isolation:isolate;fill:#626c84"
     id="rect378" />
  <rect
     x="367.55399"
     y="388.698"
     width="10"
     height="6.125"
     rx="1"
     style="isolation:isolate;fill:#626c84"
     id="rect380" />
  <rect
     x="194.446"
     y="360.90399"
     width="33.639"
     height="14"
     rx="1"
     style="isolation:isolate;fill:#626c84"
     id="rect382" />
  <rect
     x="235.90401"
     y="360.90399"
     width="14"
     height="14"
     rx="1"
     style="isolation:isolate;fill:#626c84"
     id="rect384" />
  <rect
     x="257.54199"
     y="360.90399"
     width="14"
     height="14"
     rx="1"
     style="isolation:isolate;fill:#626c84"
     id="rect386" />
  <rect
     x="279.181"
     y="360.90399"
     width="14"
     height="14"
     rx="1"
     style="isolation:isolate;fill:#626c84"
     id="rect388" />
  <rect
     x="300.819"
     y="360.90399"
     width="14"
     height="14"
     rx="1"
     style="isolation:isolate;fill:#626c84"
     id="rect390" />
  <rect
     x="322.45801"
     y="360.90399"
     width="14"
     height="14"
     rx="1"
     style="isolation:isolate;fill:#626c84"
     id="rect392" />
  <rect
     x="344.09601"
     y="360.90399"
     width="14"
     height="14"
     rx="1"
     style="isolation:isolate;fill:#626c84"
     id="rect394" />
  <rect
     x="367.55399"
     y="360.90399"
     width="38"
     height="14"
     rx="1"
     style="isolation:isolate;fill:#626c84"
     id="rect396" />
  <rect
     x="228.084"
     y="340.42401"
     width="14"
     height="14"
     rx="1"
     style="isolation:isolate;fill:#626c84"
     id="rect398" />
  <rect
     x="194.446"
     y="340.42401"
     width="26"
     height="14"
     rx="1"
     style="isolation:isolate;fill:#626c84"
     id="rect400" />
  <rect
     x="249.72301"
     y="340.42401"
     width="14"
     height="14"
     rx="1"
     style="isolation:isolate;fill:#626c84"
     id="rect402" />
  <rect
     x="271.36099"
     y="340.42401"
     width="14"
     height="14"
     rx="1"
     style="isolation:isolate;fill:#626c84"
     id="rect404" />
  <rect
     x="293"
     y="340.42401"
     width="14"
     height="14"
     rx="1"
     style="isolation:isolate;fill:#626c84"
     id="rect406" />
  <rect
     x="314.63901"
     y="340.42401"
     width="14"
     height="14"
     rx="1"
     style="isolation:isolate;fill:#626c84"
     id="rect408" />
  <rect
     x="336.27701"
     y="340.42401"
     width="14"
     height="14"
     rx="1"
     style="isolation:isolate;fill:#626c84"
     id="rect410" />
  <rect
     x="357.91599"
     y="340.42401"
     width="14"
     height="14"
     rx="1"
     style="isolation:isolate;fill:#626c84"
     id="rect412" />
  <rect
     x="379.55399"
     y="340.42401"
     width="26"
     height="14"
     rx="1"
     style="isolation:isolate;fill:#626c84"
     id="rect414" />
  <rect
     x="216.347"
     y="320.823"
     width="14"
     height="14"
     rx="1"
     style="isolation:isolate;fill:#626c84"
     id="rect416" />
  <rect
     x="194.446"
     y="320.823"
     width="14"
     height="14"
     rx="1"
     style="isolation:isolate;fill:#626c84"
     id="rect418" />
  <rect
     x="238.248"
     y="320.823"
     width="14"
     height="14"
     rx="1"
     style="isolation:isolate;fill:#626c84"
     id="rect420" />
  <rect
     x="260.14899"
     y="320.823"
     width="14"
     height="14"
     rx="1"
     style="isolation:isolate;fill:#626c84"
     id="rect422" />
  <rect
     x="282.04999"
     y="320.823"
     width="14"
     height="14"
     rx="1"
     style="isolation:isolate;fill:#626c84"
     id="rect424" />
  <rect
     x="303.95001"
     y="320.823"
     width="14"
     height="14"
     rx="1"
     style="isolation:isolate;fill:#626c84"
     id="rect426" />
  <rect
     x="325.85101"
     y="320.823"
     width="14"
     height="14"
     rx="1"
     style="isolation:isolate;fill:#626c84"
     id="rect428" />
  <rect
     x="347.75201"
     y="320.823"
     width="14"
     height="14"
     rx="1"
     style="isolation:isolate;fill:#626c84"
     id="rect430" />
  <rect
     x="369.65302"
     y="320.823"
     width="14"
     height="14"
     rx="1"
     style="isolation:isolate;fill:#626c84"
     id="rect432" />
  <rect
     x="391.55399"
     y="320.823"
     width="14"
     height="14"
     rx="1"
     style="isolation:isolate;fill:#626c84"
     id="rect434" />
  <path
     d="m 215,288.92 h 170 v 13.446 a 4,4 0 0 1 -4,4 H 219 a 4,4 0 0 1 -4,-4 z"
     style="isolation:isolate;fill:#626c84"
     id="path436" />
  <rect
     x="215"
     y="288.92001"
     width="170"
     height="2"
     style="opacity:0.12;isolation:isolate;fill:#ffffff"
     id="rect438" />
  <path
     d="M 381,302.365 H 219 a 4,4 0 0 1 -4,-4 v 4 a 4,4 0 0 0 4,4 h 162 a 4,4 0 0 0 4,-4 v -4 a 4,4 0 0 1 -4,4 z"
     style="opacity:0.25;isolation:isolate;mix-blend-mode:multiply;fill:#626c84"
     id="path440" />
  <path
     d="m 215,288.92 h 170 v 13.446 a 4,4 0 0 1 -4,4 H 219 a 4,4 0 0 1 -4,-4 z"
     style="isolation:isolate;fill:none;stroke:#46505c;stroke-width:2px;stroke-linecap:round;stroke-linejoin:round"
     id="path442" />
  <rect
     x="263"
     y="408.323"
     width="74"
     height="51"
     rx="2"
     style="isolation:isolate;fill:#e6f3ff"
     id="rect444" />
  <rect
     x="263"
     y="408.323"
     width="74"
     height="51"
     rx="2"
     style="isolation:isolate;fill:none;stroke:#626c84;stroke-linecap:round;stroke-linejoin:round"
     id="rect446" />
  <circle
     cx="300"
     cy="144.052"
     r="3"
     style="opacity:0.52;isolation:isolate;fill:#ffffff"
     id="circle448" />
  <circle
     cx="300"
     cy="144.052"
     r="3"
     style="isolation:isolate;fill:none;stroke:#46505c;stroke-linecap:round;stroke-linejoin:round"
     id="circle450" />
  <rect
     x="349.35999"
     y="165.129"
     width="14"
     height="2"
     rx="1"
     style="isolation:isolate;fill:#ffffff"
     id="rect452" />
  <rect
     x="375.33401"
     y="165.129"
     width="14"
     height="2"
     rx="1"
     style="isolation:isolate;fill:#ffffff"
     id="rect454" />
  <rect
     x="323.38699"
     y="165.129"
     width="14"
     height="2"
     rx="1"
     style="isolation:isolate;fill:#ffffff"
     id="rect456" />
  <circle
     cx="207.233"
     cy="166.64999"
     r="4.8369999"
     style="isolation:isolate;fill:#ffffff"
     id="circle458" />
  <g
     style="opacity:0.72;isolation:isolate"
     id="g464">
    <rect
       x="249.32401"
       y="219.61099"
       width="101.234"
       height="3.645"
       style="fill:#ffffff"
       id="rect460" />
    <rect
       x="262.12701"
       y="207.513"
       width="75.628998"
       height="3.698"
       style="fill:#ffffff"
       id="rect462" />
  </g>
  <rect
     x="283.11301"
     y="247.94501"
     width="39.772999"
     height="10.962"
     rx="5.4809999"
     style="isolation:isolate;fill:none;stroke:#ffffff;stroke-miterlimit:10"
     id="rect466" />
  <metadata
     id="metadata2109">
    <rdf:RDF>
      <cc:Work
         rdf:about="">
        <dc:title>118-macbook</dc:title>
      </cc:Work>
    </rdf:RDF>
  </metadata>
</svg>
