<?xml version="1.0" encoding="UTF-8" standalone="no"?>
<svg
   xmlns:dc="http://purl.org/dc/elements/1.1/"
   xmlns:cc="http://creativecommons.org/ns#"
   xmlns:rdf="http://www.w3.org/1999/02/22-rdf-syntax-ns#"
   xmlns:svg="http://www.w3.org/2000/svg"
   xmlns="http://www.w3.org/2000/svg"
   xmlns:sodipodi="http://sodipodi.sourceforge.net/DTD/sodipodi-0.dtd"
   xmlns:inkscape="http://www.inkscape.org/namespaces/inkscape"
   id="Layer_1"
   data-name="Layer 1"
   viewBox="0 0 1000 1000"
   version="1.1"
   sodipodi:docname="126-namaste-no-hand-shake.svg"
   inkscape:version="0.92.5 (2060ec1f9f, 2020-04-08)">
  <metadata
     id="metadata193">
    <rdf:RDF>
      <cc:Work
         rdf:about="">
        <dc:format>image/svg+xml</dc:format>
        <dc:type
           rdf:resource="http://purl.org/dc/dcmitype/StillImage" />
      </cc:Work>
    </rdf:RDF>
  </metadata>
  <sodipodi:namedview
     pagecolor="#ffffff"
     bordercolor="#666666"
     borderopacity="1"
     objecttolerance="10"
     gridtolerance="10"
     guidetolerance="10"
     inkscape:pageopacity="0"
     inkscape:pageshadow="2"
     inkscape:window-width="2560"
     inkscape:window-height="1379"
     id="namedview191"
     showgrid="false"
     inkscape:zoom="1.3350176"
     inkscape:cx="358.63267"
     inkscape:cy="300.64927"
     inkscape:window-x="0"
     inkscape:window-y="0"
     inkscape:window-maximized="1"
     inkscape:current-layer="Layer_1" />
  <defs
     id="defs4">
    <style
       id="style2">.cls-1{fill:#fff;}.cls-2{fill:#e4e8ec;}.cls-3{fill:#606060;}.cls-4{fill:#91bbfd;}.cls-5{fill:#ffc195;}.cls-6{fill:#ffa688;}.cls-7{fill:none;stroke:#171819;stroke-linecap:round;stroke-linejoin:round;stroke-width:6px;}.cls-8{fill:#ffdc00;}.cls-9{fill:#ff9770;}</style>
  </defs>
  <ellipse
     class="cls-2"
     cx="495.92"
     cy="869.82"
     rx="258.35"
     ry="45.2"
     id="ellipse8" />
  <path
     class="cls-5"
     d="M437.45,272.51,362,511l-91.82,62.79L284.56,731l158.67-85a100.24,100.24,0,0,0,52.92-88.12l.69-276.5A30.35,30.35,0,0,0,466.49,251h0A30.35,30.35,0,0,0,437.45,272.51Z"
     id="path158" />
  <path
     class="cls-6"
     d="M466.49,251a30.33,30.33,0,0,0-19.38,7,30.35,30.35,0,0,1,29.81,30.42l-.69,276.5a100.24,100.24,0,0,1-52.92,88.12L284.24,727.51l.32,3.49,158.67-85a100.24,100.24,0,0,0,52.92-88.12l.69-276.5A30.35,30.35,0,0,0,466.49,251Z"
     id="path160" />
  <path
     class="cls-7"
     d="M437.45,272.51,362,511l-91.82,62.79L284.56,731l158.67-85a100.24,100.24,0,0,0,52.92-88.12l.69-276.5A30.35,30.35,0,0,0,466.49,251h0A30.35,30.35,0,0,0,437.45,272.51Z"
     id="path162" />
  <path
     class="cls-8"
     d="M341.34,545.79l23.06,69.56a138.1,138.1,0,0,1,7,46.16l-.92,48.35A24.69,24.69,0,0,1,355.63,732l-153,66.42-53.45-215.3,150.38-57.19A32,32,0,0,1,341.34,545.79Z"
     id="path164" />
  <path
     class="cls-9"
     d="M364.4,615.35l-23.06-69.56a32,32,0,0,0-24.92-21.46l19.29,58.18a138.25,138.25,0,0,1,7,46.15L341.77,677a24.65,24.65,0,0,1-14.83,22.15L192.5,757.54l10.16,40.89,153-66.42a24.69,24.69,0,0,0,14.84-22.15l.92-48.35A138.1,138.1,0,0,0,364.4,615.35Z"
     id="path166" />
  <path
     class="cls-7"
     d="M341.34,545.79l23.06,69.56a138.1,138.1,0,0,1,7,46.16l-.92,48.35A24.69,24.69,0,0,1,355.63,732l-153,66.42-53.45-215.3,150.38-57.19A32,32,0,0,1,341.34,545.79Z"
     id="path168" />
  <path
     class="cls-6"
     d="M472.23,391.85h0a24,24,0,0,0-18.57,8.82,24,24,0,0,1,23.08,24V533h19.47V415.83A24,24,0,0,0,472.23,391.85Z"
     id="path170" />
  <path
     class="cls-7"
     d="M420.81,514.94l28.25-105.29a24,24,0,0,1,23.17-17.8h0a24,24,0,0,1,24,24V533"
     id="path172" />
  <path
     class="cls-5"
     d="M556.24,272.51,631.69,511l91.82,62.79L709.13,731l-158.67-85a100.24,100.24,0,0,1-52.92-88.12l-.7-276.5A30.37,30.37,0,0,1,527.2,251h0A30.35,30.35,0,0,1,556.24,272.51Z"
     id="path174" />
  <path
     class="cls-6"
     d="M527.2,251a30.33,30.33,0,0,1,19.38,7,30.36,30.36,0,0,0-29.82,30.42l.7,276.5a100.24,100.24,0,0,0,52.92,88.12l139.07,74.46-.32,3.49-158.67-85a100.24,100.24,0,0,1-52.92-88.12l-.7-276.5A30.37,30.37,0,0,1,527.2,251Z"
     id="path176" />
  <path
     class="cls-7"
     d="M556.24,272.51,631.69,511l91.82,62.79L709.13,731l-158.67-85a100.24,100.24,0,0,1-52.92-88.12l-.7-276.5A30.37,30.37,0,0,1,527.2,251h0A30.35,30.35,0,0,1,556.24,272.51Z"
     id="path178" />
  <path
     class="cls-8"
     d="M652.35,545.79l-23.06,69.56a138.36,138.36,0,0,0-7,46.16l.93,48.35A24.69,24.69,0,0,0,638.06,732l153,66.42,53.45-215.3L694.1,525.94A32,32,0,0,0,652.35,545.79Z"
     id="path180" />
  <path
     class="cls-9"
     d="M629.29,615.35l23.06-69.56a32,32,0,0,1,24.92-21.46L658,582.51a138.25,138.25,0,0,0-7,46.15l.93,48.35a24.65,24.65,0,0,0,14.83,22.15l134.43,58.38L791,798.43,638.06,732a24.69,24.69,0,0,1-14.84-22.15l-.93-48.35A138.36,138.36,0,0,1,629.29,615.35Z"
     id="path182" />
  <path
     class="cls-7"
     d="M652.35,545.79l-23.06,69.56a138.36,138.36,0,0,0-7,46.16l.93,48.35A24.69,24.69,0,0,0,638.06,732l153,66.42,53.45-215.3L694.1,525.94A32,32,0,0,0,652.35,545.79Z"
     id="path184" />
  <path
     class="cls-6"
     d="M521.46,391.85h0A24,24,0,0,1,540,400.67a24,24,0,0,0-23.08,24V533H497.48V415.83A24,24,0,0,1,521.46,391.85Z"
     id="path186" />
  <path
     class="cls-7"
     d="M572.88,514.94,544.63,409.65a24,24,0,0,0-23.17-17.8h0a24,24,0,0,0-24,24V533"
     id="path188" />
</svg>
