<svg xmlns="http://www.w3.org/2000/svg" version="1.1" id="Layer_1" x="0" y="0" viewBox="0 0 1000 1000" style="enable-background:new 0 0 1000 1000" xml:space="preserve"><style type="text/css" id="style2">.st0{opacity:.7;fill:#fff}.st1{fill:#413d51}.st2{fill:#8fe3f9}.st4{fill:#a4e0ea}.st5{fill:#7ad1e5}.st6{fill:none;stroke:#413d51;stroke-width:16;stroke-linecap:round;stroke-linejoin:round;stroke-miterlimit:10}.st7{fill:#f7e8ad}.st8{fill:#f7d6a1}.st10{fill:#fff}.st12,.st13{fill:none;stroke:#413d51;stroke-width:8;stroke-linecap:round;stroke-linejoin:round;stroke-miterlimit:10}.st13{opacity:.31;stroke:#72c8d6}</style><path class="st0" id="rect4" d="M0 0h1000v1000H0z"/><g id="g263"><ellipse id="XMLID_2_" class="st2" cx="501.8" cy="487.5" rx="228" ry="205.8"/><ellipse id="XMLID_188_" class="st2" cx="501.8" cy="487.5" rx="228" ry="205.8"/><path id="XMLID_193_" d="M507.8 689.3c52.1 0 100.1-15.3 138.5-41l-10.5-24.7c-22-51.9-74.2-85.8-132.1-85.8-57.9 0-110.1 33.9-132.1 85.8L363 644c39.3 28.3 89.8 45.3 144.8 45.3z" style="fill:#b2ebf9"/><path id="XMLID_189_" class="st4" d="m501.7 470.3-43.6 64 32.9 43.8c5.4 7.2 16.3 7.2 21.7 0l32.6-43.8-43.6-64z"/><path id="XMLID_192_" class="st5" d="M501.8 669.3c-121.5 0-220.7-85.7-227.6-193.8-.3 4-.4 8-.4 12 0 113.6 102.1 205.8 228 205.8s228-92.1 228-205.8c0-4-.1-8-.4-12-6.9 108.1-106.2 193.8-227.6 193.8z"/><path id="XMLID_76_" class="st4" d="M638.6 628.1c-38.1 25.8-85.5 41.2-136.8 41.2-50 0-96.2-14.5-133.7-39.1l-5 12.3c39.4 29.2 89.8 46.8 144.8 46.8 49.7 0 95.7-14.4 133.2-38.8 1.8-1.2 3.5-2.5 5.3-3.8l-7.8-18.6z"/><path id="XMLID_186_" class="st5" d="M268.2 488.2c6.4 13.1 15 25.3 25.8 36.2 52.3 52.3 137.2 52.3 189.5 0 43.8-43.8 50.9-110.3 21.5-161.5"/><path id="XMLID_185_" class="st5" d="M729 503.8c-24 36.1-65 59.8-111.6 59.8-74 0-134-60-134-134 0-33 11.9-63.2 31.7-86.6"/><ellipse id="XMLID_75_" class="st6" cx="501.8" cy="487.5" rx="228" ry="205.8"/><path id="XMLID_74_" class="st1" d="m501.7 442.3-43.6 64 43.8 58.3 43.5-58.3z"/><path id="XMLID_73_" class="st6" d="m501.7 442.3-43.6 64 43.8 58.3 43.5-58.3z"/><path id="XMLID_72_" class="st1" d="M600.7 303.9c-30-14-64.1-21.9-100-21.9s-70 7.9-100 21.9V444h200V303.9z"/><g id="XMLID_58_"><path id="XMLID_71_" class="st1" d="m613.5 317.9 108.7-3.3c-15.7 39.3-17.8 98.4-4.1 163-17.4 36.8-54.4 62.9-97.9 64.2-61.8 1.9-113.5-46.7-115.3-108.6-1.9-61.8 46.7-113.4 108.6-115.3z"/><path id="XMLID_70_" class="st6" d="m613.5 317.9 108.7-3.3c-15.7 39.3-17.8 98.4-4.1 163-17.4 36.8-54.4 62.9-97.9 64.2h0c-61.8 1.9-113.5-46.7-115.3-108.6h0c-1.9-61.8 46.7-113.4 108.6-115.3z"/><circle id="XMLID_69_" class="st7" cx="617.4" cy="429.7" r="112"/><circle id="XMLID_5_" class="st7" cx="617.4" cy="429.7" r="112"/><path id="XMLID_86_" class="st8" d="M696.6 350.5c-21.5-21.5-49.7-32.4-77.9-32.8 21.2 4.1 41.5 14.3 57.9 30.8 43.7 43.7 43.7 114.6 0 158.4-22.2 22.2-51.4 33.1-80.4 32.8 35.3 6.8 73.1-3.5 100.4-30.8 43.7-43.8 43.7-114.7 0-158.4z"/><ellipse id="XMLID_3_" transform="rotate(-45.001 590.701 429.7)" class="st0" cx="590.7" cy="429.7" rx="84" ry="84.6"/><path id="XMLID_12_" d="M711.4 376.6c-3.1-4-9.1-15-12.8-18.7-44-43.4-114.9-43-158.3 1.1-8.6 8.7-15.5 18.5-20.6 29 61.7-21.7 129.3-16.5 191.7-11.4z" style="fill:#efca92"/><circle id="XMLID_68_" class="st6" cx="617.4" cy="429.7" r="112"/><circle id="XMLID_67_" class="st6" cx="617.4" cy="429.7" r="112"/><path id="XMLID_66_" class="st1" d="M706.7 362.1c-3.1-4-6.4-7.9-10.1-11.6-43.7-43.7-114.6-43.7-158.4 0-8.7 8.7-15.6 18.4-20.8 28.8 62-21.2 126.9-22.8 189.3-17.2z"/><circle id="XMLID_57_" class="st1" cx="562.9" cy="438.1" r="42"/><circle id="XMLID_56_" class="st10" cx="539.1" cy="438.4" r="14"/></g><g id="XMLID_26_"><path id="XMLID_89_" class="st1" d="M388.8 317.9 280 314.6c15.7 39.3 17.8 98.4 4.1 163 17.4 36.8 54.4 62.9 97.9 64.2 61.8 1.9 113.5-46.7 115.3-108.6 1.9-61.8-46.7-113.4-108.5-115.3z"/><path id="XMLID_88_" class="st6" d="M388.8 317.9 280 314.6c15.7 39.3 17.8 98.4 4.1 163 17.4 36.8 54.4 62.9 97.9 64.2h0c61.8 1.9 113.5-46.7 115.3-108.6h0c1.9-61.8-46.7-113.4-108.5-115.3z"/><circle id="XMLID_87_" class="st7" cx="384.8" cy="429.7" r="112"/><circle id="XMLID_84_" class="st7" cx="384.8" cy="429.7" r="112"/><path id="XMLID_65_" class="st8" d="M305.6 350.5c21.5-21.5 49.7-32.4 77.9-32.8-21.2 4.1-41.5 14.3-57.9 30.8-43.7 43.7-43.7 114.6 0 158.4 22.2 22.2 51.4 33.1 80.4 32.8-35.3 6.8-73.1-3.5-100.4-30.8-43.7-43.8-43.7-114.7 0-158.4z"/><ellipse id="XMLID_64_" transform="rotate(-45.001 411.53 429.698)" class="st0" cx="411.5" cy="429.7" rx="84.6" ry="84"/><path id="XMLID_63_" d="M290.9 376.6c3.1-4 9.1-15 12.8-18.7 44-43.4 114.9-43 158.3 1.1 8.6 8.7 15.5 18.5 20.6 29-61.8-21.7-129.4-16.5-191.7-11.4z" style="opacity:.89;fill:#efca92"/><circle id="XMLID_62_" class="st6" cx="384.8" cy="429.7" r="112"/><circle id="XMLID_61_" class="st6" cx="384.8" cy="429.7" r="112"/><path id="XMLID_60_" class="st1" d="M295.6 362.1c3.1-4 6.4-7.9 10.1-11.6 43.7-43.7 114.6-43.7 158.4 0 8.7 8.7 15.6 18.4 20.8 28.8-62-21.2-127-22.8-189.3-17.2z"/><circle id="XMLID_59_" class="st1" cx="439.4" cy="438.1" r="42"/><circle id="XMLID_37_" class="st10" cx="463.2" cy="438.4" r="14"/></g><path id="XMLID_19_" class="st1" d="M447.9 718.3c-8.8 0-16-7.2-16-16v-18c0-8.8 7.2-16 16-16s16 7.2 16 16v18c0 8.8-7.1 16-16 16z"/><path id="XMLID_17_" class="st1" d="M415.9 718.3c-8.8 0-16-7.2-16-16v-18c0-8.8 7.2-16 16-16s16 7.2 16 16v18c0 8.8-7.1 16-16 16z"/><path id="XMLID_16_" class="st1" d="M479.7 718.3c-8.8 0-16-7.2-16-16v-18c0-8.8 7.2-16 16-16s16 7.2 16 16v18c0 8.8-7.2 16-16 16z"/><path id="XMLID_15_" class="st1" d="M521.9 718.3c-8.8 0-16-7.2-16-16v-18c0-8.8 7.2-16 16-16s16 7.2 16 16v18c0 8.8-7.2 16-16 16z"/><path id="XMLID_14_" class="st1" d="M553.7 718.3c-8.8 0-16-7.2-16-16v-18c0-8.8 7.2-16 16-16s16 7.2 16 16v18c0 8.8-7.2 16-16 16z"/><path id="XMLID_13_" class="st1" d="M585.7 718.3c-8.8 0-16-7.2-16-16v-18c0-8.8 7.2-16 16-16s16 7.2 16 16v18c0 8.8-7.2 16-16 16z"/><path id="XMLID_11_" class="st12" d="M491.9 587.6c0 8.4-6.8 15.2-15.2 15.2-8.4 0-15.2-6.8-15.2-15.2"/><path id="XMLID_9_" class="st12" d="M538.4 587.6c0 8.4-6.8 15.2-15.2 15.2-8.4 0-15.2-6.8-15.2-15.2"/><path id="XMLID_10_" class="st13" d="M323 548.8c-2.2 4.7-7.7 6.8-12.5 4.6s-6.8-7.7-4.6-12.5"/><path id="XMLID_1_" class="st13" d="M352.8 564.3c-2.2 4.7-7.7 6.8-12.5 4.6-4.7-2.2-6.8-7.7-4.6-12.5"/><path id="XMLID_78_" class="st13" d="M335.5 576.2c-2.2 4.7-7.7 6.8-12.5 4.6-4.7-2.2-6.8-7.7-4.6-12.5"/><path id="XMLID_77_" class="st13" d="M361.7 596.1c-2.2 4.7-7.7 6.8-12.5 4.6-4.7-2.2-6.8-7.7-4.6-12.5"/><path id="XMLID_79_" class="st13" d="M381.7 578.1c-2.2 4.7-7.7 6.8-12.5 4.6-4.7-2.2-6.8-7.7-4.6-12.5"/><path id="XMLID_85_" class="st13" d="M683.7 550.8c2.2 4.7 7.7 6.8 12.5 4.6s6.8-7.7 4.6-12.5"/><path id="XMLID_83_" class="st13" d="M654 566.3c2.2 4.7 7.7 6.8 12.5 4.6 4.7-2.2 6.8-7.7 4.6-12.5"/><path id="XMLID_82_" class="st13" d="M671.2 578.2c2.2 4.7 7.7 6.8 12.5 4.6 4.7-2.2 6.8-7.7 4.6-12.5"/><path id="XMLID_81_" class="st13" d="M645.1 598.1c2.2 4.7 7.7 6.8 12.5 4.6 4.7-2.2 6.8-7.7 4.6-12.5"/><path id="XMLID_80_" class="st13" d="M625.1 580.1c2.2 4.7 7.7 6.8 12.5 4.6 4.7-2.2 6.8-7.7 4.6-12.5"/><path id="XMLID_8_" class="st12" d="M468.7 624.1c0 8.4-6.8 15.2-15.2 15.2-8.4 0-15.2-6.8-15.2-15.2"/><path id="XMLID_7_" class="st12" d="M515.2 624.1c0 8.4-6.8 15.2-15.2 15.2s-15.2-6.8-15.2-15.2"/><path id="XMLID_6_" class="st12" d="M561.7 624.1c0 8.4-6.8 15.2-15.2 15.2-8.4 0-15.2-6.8-15.2-15.2"/></g></svg>