<?xml version="1.0" encoding="UTF-8" standalone="no"?>
<!-- Generator: Adobe Illustrator 23.1.1, SVG Export Plug-In . SVG Version: 6.00 Build 0)  -->

<svg
   xmlns:dc="http://purl.org/dc/elements/1.1/"
   xmlns:cc="http://creativecommons.org/ns#"
   xmlns:rdf="http://www.w3.org/1999/02/22-rdf-syntax-ns#"
   xmlns:svg="http://www.w3.org/2000/svg"
   xmlns="http://www.w3.org/2000/svg"
   xmlns:sodipodi="http://sodipodi.sourceforge.net/DTD/sodipodi-0.dtd"
   xmlns:inkscape="http://www.inkscape.org/namespaces/inkscape"
   version="1.1"
   id="Layer_1"
   x="0px"
   y="0px"
   viewBox="0 0 1000 1000"
   xml:space="preserve"
   sodipodi:docname="day67-dog.svg"
   inkscape:version="0.92.5 (2060ec1f9f, 2020-04-08)"
   width="1000"
   height="1000"><metadata
   id="metadata323"><rdf:RDF><cc:Work
       rdf:about=""><dc:format>image/svg+xml</dc:format><dc:type
         rdf:resource="http://purl.org/dc/dcmitype/StillImage" /><dc:title></dc:title></cc:Work></rdf:RDF></metadata><defs
   id="defs321" /><sodipodi:namedview
   pagecolor="#ffffff"
   bordercolor="#666666"
   borderopacity="1"
   objecttolerance="10"
   gridtolerance="10"
   guidetolerance="10"
   inkscape:pageopacity="0"
   inkscape:pageshadow="2"
   inkscape:window-width="2560"
   inkscape:window-height="1379"
   id="namedview319"
   showgrid="false"
   inkscape:zoom="0.944"
   inkscape:cx="168.61082"
   inkscape:cy="345.33677"
   inkscape:window-x="0"
   inkscape:window-y="0"
   inkscape:window-maximized="1"
   inkscape:current-layer="Layer_1"
   fit-margin-top="0"
   fit-margin-left="0"
   fit-margin-right="0"
   fit-margin-bottom="0" />
<style
   type="text/css"
   id="style2">
	.st0{fill:#FFFFFF;}
	.st1{fill:none;stroke:#CECECE;stroke-width:6;stroke-linecap:round;stroke-linejoin:round;stroke-miterlimit:10;}
	.st2{fill:#00354C;}
	.st3{fill:none;stroke:#00354C;stroke-width:6;stroke-linecap:round;stroke-linejoin:round;stroke-miterlimit:10;}
	.st4{fill:#D1D1D1;}
	.st5{fill:#01D392;}
	.st6{fill:#F7BF46;}
	.st7{opacity:0.68;fill:none;stroke:#F7BF46;stroke-miterlimit:10;}
	.st8{fill:none;stroke:#00354C;stroke-width:3;stroke-linecap:round;stroke-linejoin:round;stroke-miterlimit:10;}
	.st9{fill:none;stroke:#00354C;stroke-width:4;stroke-linecap:round;stroke-linejoin:round;stroke-miterlimit:10;}
	.st10{fill:#F6F6F4;}
</style>

<g
   id="XMLID_52_">
	<path
   id="XMLID_37_"
   class="st1"
   d="m 455.7,501.5 139,114.2 c 6.9,5.7 16.9,5.7 23.8,0 v 0 c 9.1,-7.5 9.1,-21.5 0,-28.9 l -150,-123.2 c -7.4,-6.1 -18.1,-6.1 -25.6,0 L 293,586.7 c -9.1,7.5 -9.1,21.5 0,28.9 v 0 c 6.9,5.7 16.9,5.7 23.8,0 z"
   inkscape:connector-curvature="0"
   style="fill:none;stroke:#cecece;stroke-width:6;stroke-linecap:round;stroke-linejoin:round;stroke-miterlimit:10" />
	<polygon
   id="XMLID_44_"
   class="st1"
   points="351.4,784.4 560.1,784.4 569.9,595.3 455.7,501.5 341.5,595.3 "
   style="fill:none;stroke:#cecece;stroke-width:6;stroke-linecap:round;stroke-linejoin:round;stroke-miterlimit:10" />
	<path
   id="XMLID_36_"
   class="st1"
   d="m 455.7,623.2 v 0 c -40.7,0 -72.6,27.3 -71.4,60 l 3.8,101.2 h 135.2 l 3.8,-101.2 c 1.2,-32.7 -30.7,-60 -71.4,-60 z"
   inkscape:connector-curvature="0"
   style="fill:none;stroke:#cecece;stroke-width:6;stroke-linecap:round;stroke-linejoin:round;stroke-miterlimit:10" />
	<path
   id="XMLID_41_"
   class="st1"
   d="m 435,590 c 1.9,4.4 7,6.4 11.4,4.6 2.8,-1.1 6,-1.8 9.3,-1.8 3.3,0 6.5,0.6 9.3,1.8 4.4,1.8 9.5,-0.2 11.4,-4.6 0.9,-2.1 1.4,-4.4 1.4,-6.7 0,-10.6 -9.9,-19.1 -22.2,-19.1 -12.3,0 -22.2,8.6 -22.2,19.1 0.2,2.4 0.6,4.6 1.6,6.7 z"
   inkscape:connector-curvature="0"
   style="fill:none;stroke:#cecece;stroke-width:6;stroke-linecap:round;stroke-linejoin:round;stroke-miterlimit:10" />
	
		<ellipse
   id="XMLID_42_"
   transform="matrix(0.7866,-0.6174,0.6174,0.7866,-251.5098,383.4871)"
   class="st1"
   cx="429.10001"
   cy="555.59998"
   rx="7.8000002"
   ry="6.5999999"
   style="fill:none;stroke:#cecece;stroke-width:6;stroke-linecap:round;stroke-linejoin:round;stroke-miterlimit:10" />
	<ellipse
   id="XMLID_34_"
   class="st1"
   cx="455.70001"
   cy="546.59998"
   rx="10.2"
   ry="6.9000001"
   style="fill:none;stroke:#cecece;stroke-width:6;stroke-linecap:round;stroke-linejoin:round;stroke-miterlimit:10" />
	
		<ellipse
   id="XMLID_39_"
   transform="matrix(0.6174,-0.7866,0.7866,0.6174,-255.5751,591.1545)"
   class="st1"
   cx="480"
   cy="558.29999"
   rx="6.5999999"
   ry="7.8000002"
   style="fill:none;stroke:#cecece;stroke-width:6;stroke-linecap:round;stroke-linejoin:round;stroke-miterlimit:10" />
</g>

<line
   id="XMLID_10_"
   class="st3"
   x1="188.5"
   y1="784.20001"
   x2="200"
   y2="784.20001"
   style="fill:none;stroke:#00354c;stroke-width:6;stroke-linecap:round;stroke-linejoin:round;stroke-miterlimit:10" />
<path
   id="XMLID_72_"
   class="st4"
   d="m 495.2,625.8 c 2.9,-17.4 9.8,-37.4 18,-54.1 -11.4,18.6 -21.7,45.1 -25.4,67.5 -5.7,34.1 -3.8,65.4 4.9,85.3 l 5.2,-18.8 C 491.1,685.8 490,657 495.2,625.8 Z"
   inkscape:connector-curvature="0"
   style="fill:#d1d1d1" />
<g
   id="XMLID_51_">
	<path
   id="XMLID_43_"
   class="st5"
   d="m 255.4,454.2 c -28.6,-2 -29.6,31 -24.6,53 2,12 -11,19 -16.9,28.2 -2.5,4 -4.8,8.7 -6,14.7 -3.3,15.9 6.1,29.4 7.6,43.9 0.4,3.6 0.3,7.3 -0.6,11.1 -1.1,4.1 -3.1,8.1 -5.1,12.1 -16,18 -42,39 -24,63 3.3,4.2 6.9,7.9 10.8,11.2 31.2,26.8 78.2,24.8 114.2,7.8 13,-7 26,-17 29,-32 2,-16 -5,-31 -15.7,-41.6 -3.2,-3.5 -6.7,-6.8 -10.3,-9.7 -2.6,-4 -4.2,-7.8 -5,-11.5 -1.9,-9.2 1,-17.8 3.8,-26.5 1.4,-4.3 2.7,-8.7 3.4,-13.2 3.8,-22.6 -18.2,-36.6 -30.2,-52.6 -5,-7 -3,-16 -1,-24 4,-19 -11,-35 -28.9,-34"
   inkscape:connector-curvature="0"
   style="fill:#01d392" />
	<path
   id="XMLID_35_"
   class="st3"
   d="m 259.9,548.9 c -4.6,21.7 -5.6,43 -5,64.3 0.2,5.3 13.9,94 5.1,132.8 -0.2,5.6 -0.2,8.9 -0.2,8.9"
   inkscape:connector-curvature="0"
   style="fill:none;stroke:#00354c;stroke-width:6;stroke-linecap:round;stroke-linejoin:round;stroke-miterlimit:10" />
	<line
   id="XMLID_45_"
   class="st3"
   x1="274.79999"
   y1="632.79999"
   x2="259.89999"
   y2="654.29999"
   style="fill:none;stroke:#00354c;stroke-width:6;stroke-linecap:round;stroke-linejoin:round;stroke-miterlimit:10" />
	<path
   id="XMLID_32_"
   class="st6"
   d="m 283.8,787.2 h -46 c -0.6,0 -1.1,-0.4 -1.2,-1 l -11.8,-49.8 h 72 L 285,786.3 c -0.1,0.5 -0.6,0.9 -1.2,0.9 z"
   inkscape:connector-curvature="0"
   style="fill:#f7bf46" />
	<line
   id="XMLID_47_"
   class="st7"
   x1="232"
   y1="764"
   x2="289.60001"
   y2="764"
   style="opacity:0.6800001;fill:none;stroke:#f7bf46;stroke-miterlimit:10" />
	<line
   id="XMLID_48_"
   class="st7"
   x1="232.89999"
   y1="767.59998"
   x2="288.70001"
   y2="767.59998"
   style="opacity:0.6800001;fill:none;stroke:#f7bf46;stroke-miterlimit:10" />
</g>
<line
   id="XMLID_23_"
   class="st3"
   x1="503.39999"
   y1="773"
   x2="503.39999"
   y2="784"
   style="fill:none;stroke:#00354c;stroke-width:6;stroke-linecap:round;stroke-linejoin:round;stroke-miterlimit:10" />
<ellipse
   id="XMLID_69_"
   class="st5"
   cx="190.3"
   cy="589.20001"
   rx="10.7"
   ry="17.4"
   style="fill:#01d392" />
<rect
   id="XMLID_74_"
   x="1035.019"
   y="-91.2733"
   transform="rotate(45)"
   class="st5"
   width="13.999866"
   height="13.999866"
   style="fill:#01d392;stroke-width:0.9999904" />
<rect
   id="XMLID_119_"
   x="785.38226"
   y="-246.4258"
   transform="rotate(45)"
   class="st5"
   width="8.9999132"
   height="8.9999132"
   style="fill:#01d392;stroke-width:0.9999904" />
<g
   id="XMLID_104_">
	<g
   id="XMLID_75_">
		<line
   id="XMLID_76_"
   class="st8"
   x1="227.10001"
   y1="256.29999"
   x2="227.10001"
   y2="270.60001"
   style="fill:none;stroke:#00354c;stroke-width:3;stroke-linecap:round;stroke-linejoin:round;stroke-miterlimit:10" />
		<line
   id="XMLID_78_"
   class="st8"
   x1="227.10001"
   y1="288.70001"
   x2="227.10001"
   y2="303"
   style="fill:none;stroke:#00354c;stroke-width:3;stroke-linecap:round;stroke-linejoin:round;stroke-miterlimit:10" />
	</g>
	<g
   id="XMLID_77_">
		<line
   id="XMLID_80_"
   class="st8"
   x1="206.8"
   y1="268"
   x2="219.2"
   y2="275.10001"
   style="fill:none;stroke:#00354c;stroke-width:3;stroke-linecap:round;stroke-linejoin:round;stroke-miterlimit:10" />
		<line
   id="XMLID_79_"
   class="st8"
   x1="235"
   y1="284.20001"
   x2="247.39999"
   y2="291.29999"
   style="fill:none;stroke:#00354c;stroke-width:3;stroke-linecap:round;stroke-linejoin:round;stroke-miterlimit:10" />
	</g>
	<g
   id="XMLID_81_">
		<line
   id="XMLID_83_"
   class="st8"
   x1="206.8"
   y1="291.29999"
   x2="219.2"
   y2="284.20001"
   style="fill:none;stroke:#00354c;stroke-width:3;stroke-linecap:round;stroke-linejoin:round;stroke-miterlimit:10" />
		<line
   id="XMLID_82_"
   class="st8"
   x1="235"
   y1="275.10001"
   x2="247.39999"
   y2="268"
   style="fill:none;stroke:#00354c;stroke-width:3;stroke-linecap:round;stroke-linejoin:round;stroke-miterlimit:10" />
	</g>
</g>
<g
   id="XMLID_91_">
	<line
   id="XMLID_93_"
   class="st8"
   x1="853.09998"
   y1="317.39999"
   x2="853.09998"
   y2="327.29999"
   style="fill:none;stroke:#00354c;stroke-width:3;stroke-linecap:round;stroke-linejoin:round;stroke-miterlimit:10" />
	<line
   id="XMLID_92_"
   class="st8"
   x1="853.09998"
   y1="339.89999"
   x2="853.09998"
   y2="349.89999"
   style="fill:none;stroke:#00354c;stroke-width:3;stroke-linecap:round;stroke-linejoin:round;stroke-miterlimit:10" />
</g>
<g
   id="XMLID_88_">
	<line
   id="XMLID_90_"
   class="st8"
   x1="839.09998"
   y1="325.5"
   x2="847.70001"
   y2="330.5"
   style="fill:none;stroke:#00354c;stroke-width:3;stroke-linecap:round;stroke-linejoin:round;stroke-miterlimit:10" />
	<line
   id="XMLID_89_"
   class="st8"
   x1="858.59998"
   y1="336.79999"
   x2="867.20001"
   y2="341.70001"
   style="fill:none;stroke:#00354c;stroke-width:3;stroke-linecap:round;stroke-linejoin:round;stroke-miterlimit:10" />
</g>
<g
   id="XMLID_85_">
	<line
   id="XMLID_87_"
   class="st8"
   x1="839.09998"
   y1="341.70001"
   x2="847.70001"
   y2="336.79999"
   style="fill:none;stroke:#00354c;stroke-width:3;stroke-linecap:round;stroke-linejoin:round;stroke-miterlimit:10" />
	<line
   id="XMLID_86_"
   class="st8"
   x1="858.59998"
   y1="330.5"
   x2="867.20001"
   y2="325.5"
   style="fill:none;stroke:#00354c;stroke-width:3;stroke-linecap:round;stroke-linejoin:round;stroke-miterlimit:10" />
</g>
<circle
   id="XMLID_84_"
   class="st6"
   cx="776.5"
   cy="464.79999"
   r="15.1"
   style="fill:#f7bf46" />
<g
   id="XMLID_103_">
	<g
   id="XMLID_100_">
		<line
   id="XMLID_102_"
   class="st8"
   x1="776.5"
   y1="442.79999"
   x2="776.5"
   y2="454.89999"
   style="fill:none;stroke:#00354c;stroke-width:3;stroke-linecap:round;stroke-linejoin:round;stroke-miterlimit:10" />
		<line
   id="XMLID_101_"
   class="st8"
   x1="776.5"
   y1="474.60001"
   x2="776.5"
   y2="486.70001"
   style="fill:none;stroke:#00354c;stroke-width:3;stroke-linecap:round;stroke-linejoin:round;stroke-miterlimit:10" />
	</g>
	<g
   id="XMLID_97_">
		<line
   id="XMLID_99_"
   class="st8"
   x1="757.5"
   y1="453.79999"
   x2="768"
   y2="459.79999"
   style="fill:none;stroke:#00354c;stroke-width:3;stroke-linecap:round;stroke-linejoin:round;stroke-miterlimit:10" />
		<line
   id="XMLID_98_"
   class="st8"
   x1="785.09998"
   y1="469.70001"
   x2="795.59998"
   y2="475.70001"
   style="fill:none;stroke:#00354c;stroke-width:3;stroke-linecap:round;stroke-linejoin:round;stroke-miterlimit:10" />
	</g>
	<g
   id="XMLID_94_">
		<line
   id="XMLID_96_"
   class="st8"
   x1="757.5"
   y1="476.39999"
   x2="768"
   y2="469.70001"
   style="fill:none;stroke:#00354c;stroke-width:3;stroke-linecap:round;stroke-linejoin:round;stroke-miterlimit:10" />
		<line
   id="XMLID_95_"
   class="st8"
   x1="785.09998"
   y1="459.79999"
   x2="795.59998"
   y2="453.79999"
   style="fill:none;stroke:#00354c;stroke-width:3;stroke-linecap:round;stroke-linejoin:round;stroke-miterlimit:10" />
	</g>
</g>
<line
   id="XMLID_106_"
   class="st9"
   x1="550.5"
   y1="140.89999"
   x2="550.5"
   y2="155.60001"
   style="fill:none;stroke:#00354c;stroke-width:4;stroke-linecap:round;stroke-linejoin:round;stroke-miterlimit:10" />
<line
   id="XMLID_105_"
   class="st9"
   x1="557.79999"
   y1="148.2"
   x2="543.20001"
   y2="148.2"
   style="fill:none;stroke:#00354c;stroke-width:4;stroke-linecap:round;stroke-linejoin:round;stroke-miterlimit:10" />
<line
   id="XMLID_110_"
   class="st9"
   x1="889.70001"
   y1="655.09998"
   x2="889.70001"
   y2="669.79999"
   style="fill:none;stroke:#00354c;stroke-width:4;stroke-linecap:round;stroke-linejoin:round;stroke-miterlimit:10" />
<line
   id="XMLID_109_"
   class="st9"
   x1="897"
   y1="662.5"
   x2="882.29999"
   y2="662.5"
   style="fill:none;stroke:#00354c;stroke-width:4;stroke-linecap:round;stroke-linejoin:round;stroke-miterlimit:10" />
<line
   id="XMLID_107_"
   class="st9"
   x1="375.20001"
   y1="396"
   x2="375.20001"
   y2="405"
   style="fill:none;stroke:#00354c;stroke-width:4;stroke-linecap:round;stroke-linejoin:round;stroke-miterlimit:10" />
<line
   id="XMLID_63_"
   class="st9"
   x1="379.70001"
   y1="400.5"
   x2="370.70001"
   y2="400.5"
   style="fill:none;stroke:#00354c;stroke-width:4;stroke-linecap:round;stroke-linejoin:round;stroke-miterlimit:10" />
<rect
   id="XMLID_108_"
   x="565.40106"
   y="94.0205"
   transform="rotate(45)"
   class="st6"
   width="9.9999037"
   height="9.9999037"
   style="fill:#f7bf46;stroke-width:0.9999904" />
<line
   id="XMLID_111_"
   class="st9"
   x1="112.1"
   y1="431.20001"
   x2="138.5"
   y2="431.20001"
   style="fill:none;stroke:#00354c;stroke-width:4;stroke-linecap:round;stroke-linejoin:round;stroke-miterlimit:10" />
<line
   id="XMLID_22_"
   class="st9"
   x1="147.5"
   y1="431.20001"
   x2="157.60001"
   y2="431.20001"
   style="fill:none;stroke:#00354c;stroke-width:4;stroke-linecap:round;stroke-linejoin:round;stroke-miterlimit:10" />
<line
   id="XMLID_113_"
   class="st9"
   x1="126.8"
   y1="444"
   x2="156"
   y2="444"
   style="fill:none;stroke:#00354c;stroke-width:4;stroke-linecap:round;stroke-linejoin:round;stroke-miterlimit:10" />
<line
   id="XMLID_117_"
   class="st9"
   x1="684.20001"
   y1="555.09998"
   x2="710.5"
   y2="555.09998"
   style="fill:none;stroke:#00354c;stroke-width:4;stroke-linecap:round;stroke-linejoin:round;stroke-miterlimit:10" />
<line
   id="XMLID_116_"
   class="st9"
   x1="719.5"
   y1="555.09998"
   x2="729.59998"
   y2="555.09998"
   style="fill:none;stroke:#00354c;stroke-width:4;stroke-linecap:round;stroke-linejoin:round;stroke-miterlimit:10" />
<line
   id="XMLID_115_"
   class="st9"
   x1="698.79999"
   y1="565.79999"
   x2="728.09998"
   y2="565.79999"
   style="fill:none;stroke:#00354c;stroke-width:4;stroke-linecap:round;stroke-linejoin:round;stroke-miterlimit:10" />
<line
   id="XMLID_66_"
   class="st3"
   x1="765"
   y1="784.20001"
   x2="806.29999"
   y2="784.20001"
   style="fill:none;stroke:#00354c;stroke-width:6;stroke-linecap:round;stroke-linejoin:round;stroke-miterlimit:10" />
<line
   id="XMLID_30_"
   class="st3"
   x1="221"
   y1="784.20001"
   x2="303.70001"
   y2="784.20001"
   style="fill:none;stroke:#00354c;stroke-width:6;stroke-linecap:round;stroke-linejoin:round;stroke-miterlimit:10" />
<circle
   id="XMLID_16_"
   class="st6"
   cx="700.5"
   cy="192.7"
   r="51.700001"
   style="fill:#f7bf46" />
<circle
   id="XMLID_33_"
   class="st6"
   cx="752.20001"
   cy="151.7"
   r="51.700001"
   style="fill:#f7bf46" />
<circle
   id="XMLID_123_"
   class="st6"
   cx="823.90002"
   cy="170.2"
   r="47.200001"
   style="fill:#f7bf46" />
<circle
   id="XMLID_126_"
   class="st6"
   cx="752.20001"
   cy="222"
   r="51.5"
   style="fill:#f7bf46" />
<circle
   id="XMLID_124_"
   class="st6"
   cx="807"
   cy="222"
   r="34.299999"
   style="fill:#f7bf46" />
<path
   id="XMLID_125_"
   class="st6"
   d="m 698.8,327.6 c 0,7.8 -2,12.5 -9.8,12.5 -7.8,0 -14.2,-3 -14.2,-10.8 0,-7.8 4.1,-14.8 12,-14.8 7.9,0 12,5.3 12,13.1 z"
   inkscape:connector-curvature="0"
   style="fill:#f7bf46" />
<path
   id="XMLID_130_"
   class="st6"
   d="m 726.9,288.7 c 0,11.8 -2.9,18.8 -14.7,18.8 -11.8,0 -21.2,-4.5 -21.2,-16.3 0,-11.8 9.5,-21.3 21.3,-21.3 11.8,0 14.6,7.1 14.6,18.8 z"
   inkscape:connector-curvature="0"
   style="fill:#f7bf46" />
<g
   id="g315">
	<path
   id="XMLID_31_"
   class="st0"
   d="m 717,640.2 c 0.2,2.7 0.3,5.4 0.3,8.1 0,55.9 -45,101.3 -100.5,101.3 -46.6,0 -85.8,-32 -97.2,-75.4 4.1,52.1 47.4,93.2 100.2,93.2 55.5,0 100.5,-45.3 100.5,-101.3 0.1,-9 -1.1,-17.6 -3.3,-25.9 z"
   inkscape:connector-curvature="0"
   style="fill:#ffffff" />
	<path
   id="XMLID_17_"
   class="st3"
   d="m 717,640.2 c 0.2,2.7 0.3,5.4 0.3,8.1 0,55.9 -45,101.3 -100.5,101.3 -46.6,0 -85.8,-32 -97.2,-75.4 4.1,52.1 47.4,93.2 100.2,93.2 55.5,0 100.5,-45.3 100.5,-101.3 0.1,-9 -1.1,-17.6 -3.3,-25.9 z"
   inkscape:connector-curvature="0"
   style="fill:none;stroke:#00354c;stroke-width:6;stroke-linecap:round;stroke-linejoin:round;stroke-miterlimit:10" />
	<path
   id="XMLID_28_"
   class="st0"
   d="m 541.3,549.2 c -17,-7.6 -46.6,48.4 -53.5,90 -5.7,34.1 -3.8,65.4 4.9,85.3 z"
   inkscape:connector-curvature="0"
   style="fill:#ffffff" />
	<path
   id="XMLID_1_"
   class="st3"
   d="m 541.3,549.2 c -17,-7.6 -46.6,48.4 -53.5,90 -5.7,34.1 -3.8,65.4 4.9,85.3 z"
   inkscape:connector-curvature="0"
   style="fill:none;stroke:#00354c;stroke-width:6;stroke-linecap:round;stroke-linejoin:round;stroke-miterlimit:10" />
	<path
   id="XMLID_68_"
   class="st0"
   d="m 593.7,549.2 c 17,-7.6 46.6,48.4 53.5,90 5.7,34.1 3.8,65.4 -4.9,85.3 z"
   inkscape:connector-curvature="0"
   style="fill:#ffffff" />
	<path
   id="XMLID_56_"
   class="st4"
   d="m 639.9,625.8 c -2.9,-17.4 -9.8,-37.4 -18,-54.1 11.4,18.6 21.7,45.1 25.4,67.5 5.7,34.1 3.8,65.4 -4.9,85.3 l -5.2,-18.8 c 6.8,-19.9 7.8,-48.7 2.7,-79.9 z"
   inkscape:connector-curvature="0"
   style="fill:#d1d1d1" />
	<path
   id="XMLID_54_"
   class="st3"
   d="m 593.7,549.2 c 17,-7.6 46.6,48.4 53.5,90 5.7,34.1 3.8,65.4 -4.9,85.3 z"
   inkscape:connector-curvature="0"
   style="fill:none;stroke:#00354c;stroke-width:6;stroke-linecap:round;stroke-linejoin:round;stroke-miterlimit:10" />
	<path
   id="XMLID_18_"
   class="st0"
   d="M 645.3,732 C 644.2,715.4 601,535.2 589.3,526.2 h -21.1 -21.7 c -11.7,9 -55,189.1 -56,205.8 -1.3,20.7 -8.1,52.2 31.2,52.2 h 46.5 46 c 39.2,0 32.4,-31.5 31.1,-52.2 z"
   inkscape:connector-curvature="0"
   style="fill:#ffffff" />
	<path
   id="XMLID_20_"
   class="st4"
   d="m 495.2,706.5 c 0,0 -3.1,26.4 11.7,36.1 11.6,7.7 21.8,10.8 40.9,14.3 10.3,1.9 21.5,2.7 21.5,2.7 l 1.2,23.7 -81.4,0.6 c 0,0 -1.4,-33.3 0.6,-43.3 2,-9.9 3,-26.5 5.5,-34.1 z"
   inkscape:connector-curvature="0"
   style="fill:#d1d1d1" />
	<path
   id="XMLID_5_"
   class="st4"
   d="m 641.4,706.5 c 0,0 3.1,26.4 -11.7,36.1 -11.6,7.7 -21.8,10.8 -40.9,14.3 -10.3,1.9 -21.5,2.7 -21.5,2.7 l -1.2,23.7 81.4,0.6 c 0,0 1.4,-33.3 -0.6,-43.3 -2,-9.9 -3,-26.5 -5.5,-34.1 z"
   inkscape:connector-curvature="0"
   style="fill:#d1d1d1" />
	<path
   id="XMLID_64_"
   class="st6"
   d="m 603.6,562.5 c -2.5,-0.7 -4.9,-1.1 -7,-1.1 -12.2,0 -21.9,6.5 -21.9,21.5 0,15.1 21.9,33 34.1,33 3.3,0 6.4,-0.9 9.2,-2.5 -4.9,-18.4 -9.9,-36.2 -14.4,-50.9 z"
   inkscape:connector-curvature="0"
   style="fill:#f7bf46" />
	<path
   id="XMLID_58_"
   class="st6"
   d="m 511.1,692.1 c 13.5,0 24.5,-13.3 24.5,-29.7 0,-15.7 -10.1,-28.6 -22.9,-29.6 -5,19.6 -9.7,39 -13.5,55.5 3.6,2.4 7.6,3.8 11.9,3.8 z"
   inkscape:connector-curvature="0"
   style="fill:#f7bf46" />
	<path
   id="XMLID_46_"
   class="st4"
   d="m 543.4,530.5 c 0,0 7.1,5.7 23.4,5.7 13.2,0 24.8,-5.7 24.8,-5.7 l -1,-3.9 h -46.5 z"
   inkscape:connector-curvature="0"
   style="fill:#d1d1d1" />
	<path
   id="XMLID_4_"
   class="st3"
   d="M 645.3,732 C 644.2,715.4 601,535.2 589.3,526.2 h -21.1 -21.7 c -11.7,9 -55,189.1 -56,205.8 -1.3,20.7 -8.1,52.2 31.2,52.2 h 46.5 46 c 39.2,0 32.4,-31.5 31.1,-52.2 z"
   inkscape:connector-curvature="0"
   style="fill:none;stroke:#00354c;stroke-width:6;stroke-linecap:round;stroke-linejoin:round;stroke-miterlimit:10" />
	<path
   id="XMLID_9_"
   class="st0"
   d="m 643,454.2 c -1.9,-19.5 -11.5,-68.8 -22.3,-103.3 -17.2,-55.1 -37.4,-69.5 -49.1,-71 -1.2,-0.2 -3.8,-0.2 -3.8,-0.2 0,0 -2.5,0 -3.8,0.2 -11.7,1.4 -31.8,15.7 -49.1,70.9 -10.8,34.5 -20.3,83.9 -22.3,103.5 -4.3,44 16.8,68.3 44.2,71.8 7.8,1 23.2,1 31,1 7.7,0 23.1,0 31,-1 27.3,-3.6 48.5,-27.9 44.2,-71.9 z"
   inkscape:connector-curvature="0"
   style="fill:#ffffff" />
	<ellipse
   id="XMLID_49_"
   class="st4"
   cx="567.79999"
   cy="479.60001"
   rx="18.9"
   ry="14.9"
   style="fill:#d1d1d1" />
	<path
   id="XMLID_55_"
   class="st4"
   d="m 550.5,285.5 c 0,0 -9,33.9 -27.8,43.7 4.8,-10.8 11.3,-23.7 11.3,-23.7 0,0 11.2,-18.5 16.5,-20 z"
   inkscape:connector-curvature="0"
   style="fill:#d1d1d1" />
	<path
   id="XMLID_53_"
   class="st4"
   d="m 571.6,280 c 0,0 24.4,42 44.7,58.1 0,0 -4.6,-29.8 -9.1,-38.8 -4.5,-9 -26.5,-22.1 -35.6,-19.3 z"
   inkscape:connector-curvature="0"
   style="fill:#d1d1d1" />
	<path
   id="XMLID_15_"
   class="st6"
   d="m 519.8,441.3 c 39.3,-16.9 62.8,-50.2 52.4,-74.3 -7.3,-16.9 -29.3,-24.8 -55.3,-22.2 -0.6,1.9 -1.3,3.9 -1.9,6 -10,32 -18.9,76.7 -21.7,98.6 8.6,-1.6 17.6,-4.2 26.5,-8.1 z"
   inkscape:connector-curvature="0"
   style="fill:#f7bf46" />
	<path
   id="XMLID_14_"
   class="st3"
   d="m 624.1,487.1 c -11.2,16.3 -35.7,27.3 -61.8,27.3 -24.2,0 -38.7,-14.2 -47.2,-31.9"
   inkscape:connector-curvature="0"
   style="fill:none;stroke:#00354c;stroke-width:6;stroke-linecap:round;stroke-linejoin:round;stroke-miterlimit:10" />
	<ellipse
   id="XMLID_7_"
   class="st2"
   cx="567.79999"
   cy="477"
   rx="23.700001"
   ry="12.2"
   style="fill:#00354c" />
	<path
   id="XMLID_2_"
   class="st0"
   d="m 697.9,777.9 c -15.2,-14.3 -44.4,-21.4 -72.9,-19.2 -24.4,1.8 -42.5,10.1 -49.6,21.1 -1.2,1.9 0.3,4.4 2.6,4.4 h 115.5 c 4.5,0 7.2,-3.7 4.4,-6.3 z"
   inkscape:connector-curvature="0"
   style="fill:#ffffff" />
	<path
   id="XMLID_50_"
   class="st4"
   d="m 697.1,777.7 c -0.3,0.1 -0.7,0.2 -1.1,0.2 H 580.5 c -1.4,0 -2.6,-0.3 -3.5,-0.9 -0.3,0.3 -0.7,0.6 -1,0.9 -2.8,2.6 -0.1,6.3 4.5,6.3 H 696 c 2.3,0 3.8,-2.6 2.6,-4.4 -0.5,-0.8 -1,-1.5 -1.5,-2.1 z"
   inkscape:connector-curvature="0"
   style="fill:#d1d1d1" />
	<path
   id="XMLID_19_"
   class="st3"
   d="m 697.9,777.9 c -15.2,-14.3 -44.4,-21.4 -72.9,-19.2 -24.4,1.8 -42.5,10.1 -49.6,21.1 -1.2,1.9 0.3,4.4 2.6,4.4 h 115.5 c 4.5,0 7.2,-3.7 4.4,-6.3 z"
   inkscape:connector-curvature="0"
   style="fill:none;stroke:#00354c;stroke-width:6;stroke-linecap:round;stroke-linejoin:round;stroke-miterlimit:10" />
	<line
   id="XMLID_8_"
   class="st3"
   x1="635.40002"
   y1="773"
   x2="635.40002"
   y2="784"
   style="fill:none;stroke:#00354c;stroke-width:6;stroke-linecap:round;stroke-linejoin:round;stroke-miterlimit:10" />
	<path
   id="XMLID_25_"
   class="st0"
   d="m 441,777.9 c 15.2,-14.3 44.4,-21.4 72.9,-19.2 24.4,1.8 42.5,10.1 49.6,21.1 1.2,1.9 -0.3,4.4 -2.6,4.4 H 445.4 c -4.5,0 -7.2,-3.7 -4.4,-6.3 z"
   inkscape:connector-curvature="0"
   style="fill:#ffffff" />
	<path
   id="XMLID_67_"
   class="st4"
   d="m 562.1,777.7 c -0.3,0.1 -0.7,0.2 -1.1,0.2 H 445.5 c -1.4,0 -2.6,-0.3 -3.5,-0.9 -0.3,0.3 -0.7,0.6 -1,0.9 -2.8,2.6 -0.1,6.3 4.5,6.3 H 561 c 2.3,0 3.8,-2.6 2.6,-4.4 -0.5,-0.8 -1,-1.5 -1.5,-2.1 z"
   inkscape:connector-curvature="0"
   style="fill:#d1d1d1" />
	<path
   id="XMLID_24_"
   class="st3"
   d="m 441,777.9 c 15.2,-14.3 44.4,-21.4 72.9,-19.2 24.4,1.8 42.5,10.1 49.6,21.1 1.2,1.9 -0.3,4.4 -2.6,4.4 H 445.4 c -4.5,0 -7.2,-3.7 -4.4,-6.3 z"
   inkscape:connector-curvature="0"
   style="fill:none;stroke:#00354c;stroke-width:6;stroke-linecap:round;stroke-linejoin:round;stroke-miterlimit:10" />
	<path
   id="XMLID_13_"
   class="st3"
   d="m 643,454.2 c -1.9,-19.5 -11.5,-68.8 -22.3,-103.3 -17.2,-55.1 -37.4,-69.5 -49.1,-71 -1.2,-0.2 -3.8,-0.2 -3.8,-0.2 0,0 -2.5,0 -3.8,0.2 -11.7,1.4 -31.8,15.7 -49.1,70.9 -10.8,34.5 -20.3,83.9 -22.3,103.5 -4.3,44 16.8,68.3 44.2,71.8 7.8,1 23.2,1 31,1 7.7,0 23.1,0 31,-1 27.3,-3.6 48.5,-27.9 44.2,-71.9 z"
   inkscape:connector-curvature="0"
   style="fill:none;stroke:#00354c;stroke-width:6;stroke-linecap:round;stroke-linejoin:round;stroke-miterlimit:10" />
	<path
   id="XMLID_29_"
   class="st0"
   d="m 569.8,279.5 c 0,0 34.9,-7.4 44.5,-2.9 9.9,4.6 27.8,39.7 20.4,53.4 -11.3,21 -44.5,-55 -64.9,-50.5 z"
   inkscape:connector-curvature="0"
   style="fill:#ffffff" />
	<path
   id="XMLID_11_"
   class="st3"
   d="m 569.8,279.5 c 0,0 34.9,-7.4 44.5,-2.9 9.9,4.6 27.8,39.7 20.4,53.4 -11.3,21 -44.5,-55 -64.9,-50.5 z"
   inkscape:connector-curvature="0"
   style="fill:none;stroke:#00354c;stroke-width:6;stroke-linecap:round;stroke-linejoin:round;stroke-miterlimit:10" />
	<path
   id="XMLID_27_"
   class="st0"
   d="m 504.3,285.8 48.3,-1.4 c 0,0 -44.8,48.2 -65.5,58.6 -20.7,10.4 0.5,-57.3 17.2,-57.2 z"
   inkscape:connector-curvature="0"
   style="fill:#ffffff" />
	<path
   id="XMLID_12_"
   class="st3"
   d="m 504.3,285.8 48.3,-1.4 c 0,0 -44.8,48.2 -65.5,58.6 -20.7,10.4 0.5,-57.3 17.2,-57.2 z"
   inkscape:connector-curvature="0"
   style="fill:none;stroke:#00354c;stroke-width:6;stroke-linecap:round;stroke-linejoin:round;stroke-miterlimit:10" />
	<ellipse
   id="XMLID_3_"
   class="st2"
   cx="548.70001"
   cy="387.5"
   rx="5"
   ry="6.5"
   style="fill:#00354c" />
	<ellipse
   id="XMLID_6_"
   class="st2"
   cx="590.90002"
   cy="387.5"
   rx="5"
   ry="6.5"
   style="fill:#00354c" />
	<line
   id="XMLID_57_"
   class="st3"
   x1="392.29999"
   y1="784.20001"
   x2="739"
   y2="784.20001"
   style="fill:none;stroke:#00354c;stroke-width:6;stroke-linecap:round;stroke-linejoin:round;stroke-miterlimit:10" />
	<path
   id="XMLID_128_"
   class="st6"
   d="m 668.2,347 c 0,5.6 -1.4,8.9 -7,8.9 -5.6,0 -10.1,-2.1 -10.1,-7.7 0,-5.6 4.5,-10.1 10.1,-10.1 5.6,0 7,3.3 7,8.9 z"
   inkscape:connector-curvature="0"
   style="fill:#f7bf46" />
</g>
<path
   id="XMLID_21_"
   class="st10"
   d="m 804.8,188 c 1.5,-1.8 2.4,-4.3 2.1,-7 -0.5,-4.2 -6.2,-6.3 -8.6,-6.8 -3.2,-0.6 -9.9,2.3 -9.9,7.8 0,0 0,0 0,0 0,1.3 -1,2.4 -2.3,2.4 h -45.5 c -1.3,0 -2.3,-1.1 -2.3,-2.3 0,-1.2 -0.2,-2.5 -0.8,-3.8 -1.3,-3 -4.6,-3.4 -7.5,-3.7 -5,-0.6 -10.3,1.9 -10.3,7.4 0,2.3 0.8,4.3 2.2,5.9 0.9,1.1 0.9,2.7 0,3.8 -1.5,1.8 -2.4,4.3 -2.1,7 0.5,4.2 4.5,6 8.3,6.4 5,0.6 10.2,-2 10.2,-7.4 0,0 0,0 0,0 0,-1.3 1,-2.4 2.3,-2.4 h 45.5 c 1.3,0 2.3,1.1 2.3,2.3 0,1.2 0.2,2.5 0.8,3.8 1.3,3 6,3.7 7.8,4.1 3.2,0.6 9.9,-2.3 9.9,-7.8 0,-2.3 -0.8,-4.3 -2.2,-5.9 -0.8,-1.1 -0.8,-2.7 0.1,-3.8 z"
   inkscape:connector-curvature="0"
   style="fill:#f6f6f4" />
</svg>