<?xml version="1.0" encoding="UTF-8" standalone="no"?>
<!-- Generator: Adobe Illustrator 23.1.1, SVG Export Plug-In . SVG Version: 6.00 Build 0)  -->

<svg
   xmlns:dc="http://purl.org/dc/elements/1.1/"
   xmlns:cc="http://creativecommons.org/ns#"
   xmlns:rdf="http://www.w3.org/1999/02/22-rdf-syntax-ns#"
   xmlns:svg="http://www.w3.org/2000/svg"
   xmlns="http://www.w3.org/2000/svg"
   xmlns:sodipodi="http://sodipodi.sourceforge.net/DTD/sodipodi-0.dtd"
   xmlns:inkscape="http://www.inkscape.org/namespaces/inkscape"
   version="1.1"
   id="Layer_1"
   x="0px"
   y="0px"
   viewBox="0 0 1000 1000"
   style="enable-background:new 0 0 1000 1000;"
   xml:space="preserve"
   sodipodi:docname="day79-coffee.svg"
   inkscape:version="0.92.5 (2060ec1f9f, 2020-04-08)"><metadata
   id="metadata294"><rdf:RDF><cc:Work
       rdf:about=""><dc:format>image/svg+xml</dc:format><dc:type
         rdf:resource="http://purl.org/dc/dcmitype/StillImage" /></cc:Work></rdf:RDF></metadata><defs
   id="defs292" /><sodipodi:namedview
   pagecolor="#ffffff"
   bordercolor="#666666"
   borderopacity="1"
   objecttolerance="10"
   gridtolerance="10"
   guidetolerance="10"
   inkscape:pageopacity="0"
   inkscape:pageshadow="2"
   inkscape:window-width="2560"
   inkscape:window-height="1379"
   id="namedview290"
   showgrid="false"
   inkscape:zoom="0.944"
   inkscape:cx="207.78433"
   inkscape:cy="324.32736"
   inkscape:window-x="0"
   inkscape:window-y="0"
   inkscape:window-maximized="1"
   inkscape:current-layer="Layer_1" />
<style
   type="text/css"
   id="style2">
	.st0{fill:#FFFFFF;}
	.st1{fill:#646464;}
	.st2{opacity:0.15;}
	.st3{fill:none;stroke:#474747;stroke-width:6;stroke-linecap:round;stroke-linejoin:round;stroke-miterlimit:10;}
	.st4{fill:#D6D6D4;}
	.st5{fill:#BABABA;}
	.st6{fill:#5EB173;}
	.st7{opacity:0.34;fill:#60A06C;}
	.st8{fill:#60A06C;}
	.st9{fill:#7C7C7C;}
	.st10{fill:#F6F9E4;}
</style>


<g
   id="XMLID_11_"
   class="st2">
	<line
   id="XMLID_73_"
   class="st3"
   x1="169"
   y1="748.7"
   x2="831"
   y2="748.7" />
	<g
   id="XMLID_10_">
		<line
   id="XMLID_3_"
   class="st3"
   x1="732.5"
   y1="748.7"
   x2="732.5"
   y2="423.4" />
		<path
   id="XMLID_2_"
   class="st3"
   d="M758.6,335.1C782.9,366.6,846,568,732.5,568s-50.3-201.4-26.1-232.9    c8.5-11,18.4-15.8,26.1-15.8S750.1,324.1,758.6,335.1z" />
		<line
   id="XMLID_7_"
   class="st3"
   x1="732.5"
   y1="473.5"
   x2="757.7"
   y2="448.3" />
		<line
   id="XMLID_8_"
   class="st3"
   x1="732.5"
   y1="532.2"
   x2="698.2"
   y2="497.9" />
		<circle
   id="XMLID_12_"
   class="st0"
   cx="815.7"
   cy="557.1"
   r="49.4" />
		<circle
   id="XMLID_4_"
   class="st3"
   cx="815.7"
   cy="557.1"
   r="49.4" />
		<line
   id="XMLID_9_"
   class="st3"
   x1="732.5"
   y1="640.3"
   x2="823.9"
   y2="548.9" />
		<line
   id="XMLID_14_"
   class="st3"
   x1="825.8"
   y1="586.1"
   x2="786.7"
   y2="586.1" />
		<line
   id="XMLID_15_"
   class="st3"
   x1="806.3"
   y1="566.5"
   x2="806.3"
   y2="548.9" />
		<line
   id="XMLID_16_"
   class="st3"
   x1="732.5"
   y1="699.8"
   x2="650.5"
   y2="617.7" />
		
			<ellipse
   id="XMLID_13_"
   transform="matrix(0.7983 -0.6022 0.6022 0.7983 -241.9206 524.1381)"
   class="st3"
   cx="661.6"
   cy="623.3"
   rx="42.3"
   ry="57.5" />
		<line
   id="XMLID_79_"
   class="st3"
   x1="691.8"
   y1="659"
   x2="691.8"
   y2="632.5" />
		<line
   id="XMLID_80_"
   class="st3"
   x1="650.5"
   y1="638"
   x2="670.8"
   y2="638" />
		<rect
   id="XMLID_86_"
   x="238.4"
   y="689.9"
   class="st3"
   width="22.3"
   height="55.2" />
		<rect
   id="XMLID_85_"
   x="469"
   y="689.9"
   class="st3"
   width="22.3"
   height="55.2" />
		<rect
   id="XMLID_84_"
   x="252.7"
   y="546.5"
   class="st3"
   width="15.6"
   height="118.3" />
		<rect
   id="XMLID_83_"
   x="461.3"
   y="546.5"
   class="st3"
   width="15.6"
   height="118.3" />
		<rect
   id="XMLID_89_"
   x="201.8"
   y="564.5"
   class="st0"
   width="312.3"
   height="33.5" />
		<rect
   id="XMLID_82_"
   x="201.8"
   y="564.5"
   class="st3"
   width="312.3"
   height="33.5" />
		<rect
   id="XMLID_88_"
   x="201.8"
   y="598"
   class="st0"
   width="312.3"
   height="33.5" />
		<rect
   id="XMLID_81_"
   x="201.8"
   y="598"
   class="st3"
   width="312.3"
   height="33.5" />
		<circle
   id="XMLID_77_"
   class="st3"
   cx="469.1"
   cy="582.5"
   r="4.5" />
		<circle
   id="XMLID_91_"
   class="st3"
   cx="469.1"
   cy="614.7"
   r="4.5" />
		<circle
   id="XMLID_93_"
   class="st3"
   cx="260.6"
   cy="582.5"
   r="4.5" />
		<circle
   id="XMLID_92_"
   class="st3"
   cx="260.6"
   cy="614.7"
   r="4.5" />
		<rect
   id="XMLID_87_"
   x="185.8"
   y="664.8"
   class="st3"
   width="353.5"
   height="25.2" />
	</g>
</g>
<g
   id="g287">
	<path
   id="XMLID_104_"
   class="st4"
   d="M422,712.6l4,28.6c0.6,4.3,4.6,7.5,9.4,7.5h128.2c4.8,0,8.8-3.2,9.4-7.5l4-28.6H422z" />
	<path
   id="XMLID_74_"
   class="st5"
   d="M560.7,748.7l9.3-2.4l6.8-33.7H422l1.5,11h127.8c0.1,0,0.1,0,0.2,0   C569.8,723.6,560.7,748.7,560.7,748.7z" />
	<path
   id="XMLID_103_"
   class="st6"
   d="M592.3,702.9l35-279.5H371.5l35,279.5c0.7,5.5,5.5,9.7,11.2,9.7h163.5   C586.9,712.6,591.6,708.5,592.3,702.9z" />
	<g
   id="XMLID_30_">
		<path
   id="XMLID_134_"
   class="st7"
   d="M492.3,652.2c-2.5,0-4.4-1.3-5.1-1.8c-2.2-1.8-3.5-4.8-3.6-8.4c-0.2-4.4,1.4-8.7,4.2-11.4    c0.8-0.7,3.1-3,6.1-3c0.3,0,0.6,0,0.9,0.1c2,0.3,3.8,1.6,5.2,3.8c2.2,3.3,2.9,7.8,2,11.6c-1.1,4.4-4.8,9.1-9.5,9.2L492.3,652.2z     M493.3,638.4c-0.9,2.1-0.7,3.4-0.4,3.7c0,0,0.1,0,0.1,0.1c0.1-0.1,0.3-0.4,0.5-0.9C493.8,640.3,493.6,639.2,493.3,638.4z" />
		<path
   id="XMLID_19_"
   class="st7"
   d="M503.9,664.6c-1.3,0-2.6-0.4-3.6-1.1c-2.2-1.5-2.1-3.5-1.5-10.8c0.4-4.6,1-11.7,1.5-22.7    c0-0.6,0.1-1.1,0.1-1.7c-0.1,0-0.1,0-0.2,0c-0.2,0-0.5,0-0.7,0c-0.8,0.1-1.6,0.1-2.4,0.1c-0.9,0-1.7,0.1-2.5,0.2    c-0.3,0-0.6,0.1-0.9,0.1c-0.6,0.1-1.1,0.1-1.5,0.1c-0.9,0-1.6-0.3-2.2-0.9c-2.1-2.1,0.2-6.6,1.9-8.3c1.4-1.3,3.3-2,5.6-2    c1.3,0,2.8,0.2,4.6,0.6c1.1-3.2,2.7-5.5,4.7-6.9c0.8-0.6,3-2.1,5.9-2.1c0.4,0,0.8,0,1.2,0.1c0.6,0.1,2.5,0.4,4.1,1.9    c1.5,1.5,1.9,3.5,1.9,4.9c0.8-0.3,1.6-0.5,2.6-0.5c0.4,0,0.7,0,1.1,0.1c0.6,0.1,2.3,0.3,3.7,1.8c2.3,2.3,1.7,5.6,1.6,6.2l-0.4,1.7    c0.3-0.1,0.6-0.3,0.8-0.5c0.6-0.6,1-1.5,1.1-2.8l0.3-4.1l5.1,4.8l0.2,0.3c0.9,1.8,0.3,4.1-1.8,6.7c-1.5,1.9-4.4,2.8-8.8,2.8    c-1.3,0-2.8-0.1-4.4-0.3c-0.6,4.9-0.5,10.3-0.5,10.3c0.1,2,0.1,3.9,0.2,5.5c0.3,8.9,0.4,12.5-2.4,14.6c-1,0.7-2.3,1.1-3.6,1.1    c0,0,0,0,0,0c-1.2,0-2.3-0.3-3.3-1c-1-0.7-1.5-1.4-1.7-2.8c-0.4,1.2-1.1,2.1-2.1,2.9C506.8,664.1,505.4,664.6,503.9,664.6z     M510.7,630.5c-0.4,5-0.3,9.8-0.3,9.8c0.1,2.3,0.1,4.4,0.2,6.3c0,0.8,0.1,1.5,0.1,2.2c0.3-3.7,0.6-8.5,0.9-14.9    c0-1.1,0.1-2.1,0.2-3.1C511.4,630.7,511.1,630.6,510.7,630.5z M523.6,625.6c1.2,0.2,2.2,0.4,3,0.4c0.3,0,0.6,0,0.9-0.1l-1.3-0.7    c-0.4-0.2-0.8-0.3-1.1-0.3c-0.1,0-0.2,0-0.3,0C524.7,624.9,524.1,625.1,523.6,625.6z M513.8,622.3c0.5-1.2,1.2-2.3,1.9-3.1    c-0.1,0-0.1,0-0.2,0c-0.1,0-0.3,0-0.4,0c0,0-1,0.2-2,1.3c-0.2,0.2-0.5,0.6-0.8,1.3C512.5,621.8,513.5,622.2,513.8,622.3z" />
		<path
   id="XMLID_26_"
   class="st7"
   d="M526.5,654.7c-2.3,0-4.3-0.7-5.6-2c-1.9-1.9-2.6-5.4-1.7-9.4c0.9-4.4,3.8-10.3,9.1-12.5    c0.5-0.2,2.3-0.9,4.4-0.9c1.9,0,3.5,0.6,4.8,1.6c2.5,2.1,2.9,5.7,2.2,8.2c-0.7,2.6-2.6,4.3-4.8,5.4c0.2,0.3,0.5,0.7,0.5,1.4    c0.2,1.5-0.6,3.9-2.3,5.6C531.6,653.7,529.1,654.7,526.5,654.7z M531.6,637.8c-0.3,0.1-0.6,0.3-1,0.6    C531,638.2,531.3,638,531.6,637.8z" />
		<path
   id="XMLID_24_"
   class="st7"
   d="M542.6,655.1c-2.3,0-4.6-0.8-5.9-2.3c-1.9-2-2.5-5.2-1.8-9c1-4.8,4-8.9,7.6-10.4    c1.3-0.5,2.8-0.8,4.2-0.8c2.3,0,4.1,0.7,5.3,2.1c2.2,2.5,1.4,6,1.1,7c-0.6,2.1-2,3.7-3.7,4.8c0.3,0.3,0.6,0.8,0.6,1.5    c0.1,1.4-0.6,3.7-2.2,5.1C546.6,654.4,544.7,655.1,542.6,655.1z" />
		<path
   id="XMLID_21_"
   class="st7"
   d="M469.4,663c-1.6,0-3.1-0.2-4.6-0.7c-5-1.5-9-5.6-11.3-11.5c-2.5-6.4-1.7-14.5,1.9-21.8    c-1.5,0.3-2.8,1.1-4,1.8c-1.3,0.8-2.4,1.4-3.6,1.4c-0.7,0-1.3-0.2-1.9-0.6c-1.1-0.9-1.7-2.5-1.6-4.5c0.1-2.4,1.2-5.7,3.9-7.2    c1-0.6,2.2-0.9,3.5-0.9c2.6,0,5.6,1.2,8.7,2.6c3-3.4,6.5-5.7,10.1-6.9c2-0.6,4-1,5.7-1c2.6,0,4.7,0.8,6,2.3    c3,3.4,1.6,9.5-1.5,13.1c-1.5,1.7-4.3,3.8-9.3,4.1c-0.3,0-0.5,0-0.8,0c-1.9,0-3.5-0.4-5.3-1c-0.5-0.1-0.9-0.3-1.3-0.4    c-1.9,6.7-1,13.9,2.2,16.6c1,0.8,2.7,1.7,4.5,1.7c0.4,0,0.8,0,1.1-0.1c0.1,0,2.8-0.7,3.3-2.8c0.3-1,0.1-2.3-0.5-3    c-0.4-0.5-1-0.7-1.6-1c-0.6-0.2-2.2-0.9-2-2.6c0.2-1.9,2.6-2.8,4.7-2.8c0.6,0,1.2,0.1,1.8,0.2c4.6,1.2,8,7.7,6.9,13.4    c-0.9,4.8-4.5,7.4-5.7,8.3C476.1,662,472.8,663,469.4,663L469.4,663z M467.5,625.2c1.2,0.6,2,0.9,2.8,0.9c0.2,0,0.4,0,0.6,0    c1.7-0.2,3.7-1.2,4.2-2.8c0.3-0.8,0.2-1.6,0-1.7c0,0-0.3-0.2-0.8-0.2c-1.2,0-2.7,0.5-3.7,1.1l-0.1,0.1    C469.4,623.2,468.4,624.1,467.5,625.2z" />
	</g>
	<path
   id="XMLID_72_"
   class="st8"
   d="M371.5,423.4l2.7,22H587c8.1,0,14.4,7.1,13.4,15.2l-22.2,230c-0.9,8.8-7.5,16-16.2,17.6   l-25,4.5l35.6,0l0,0h8.5c5.7,0,10.5-4.1,11.2-9.7l35-279.5H371.5z" />
	<path
   id="XMLID_63_"
   class="st3"
   d="M422,712.6l4,28.6c0.6,4.3,4.6,7.5,9.4,7.5h128.2c4.8,0,8.8-3.2,9.4-7.5l4-28.6H422z" />
	<path
   id="XMLID_59_"
   class="st3"
   d="M592.3,702.9l35-279.5H371.5l35,279.5c0.7,5.5,5.5,9.7,11.2,9.7h163.5   C586.9,712.6,591.6,708.5,592.3,702.9z" />
	<path
   id="XMLID_108_"
   class="st1"
   d="M632.8,423.4c-88.9,0-177.9,0-266.8,0c-8.7,0.1-7.5-4.6-4.5-13.5c1.8-5.3,1.8-11,0-16.2   c-3-9-4.2-13.6,4.5-13.5c88.9,0,177.9,0,266.8,0c8.7-0.1,7.5,4.6,4.5,13.5c-1.8,5.3-1.8,11,0,16.2   C640.3,418.8,641.5,423.5,632.8,423.4z" />
	<g
   id="g257">
		<path
   class="st9"
   d="M637.3,393.6c1.9-5.8,3.1-9.8,1.4-11.9c-0.4,1.3-0.9,2.8-1.4,4.4c-1.3,3.8-1.6,7.9-1.1,11.9    C636.5,396.5,636.8,395.1,637.3,393.6z"
   id="path251" />
		<path
   class="st9"
   d="M362.6,398c0.6-4,0.3-8-1.1-11.9c-0.5-1.6-1-3-1.4-4.4c-1.7,2.1-0.6,6.1,1.4,11.9    C362,395.1,362.4,396.5,362.6,398z"
   id="path253" />
		<path
   class="st9"
   d="M638.7,414.2c-1,1.1-2.8,1.7-5.9,1.7c-88.9,0-177.9,0-266.8,0c-3.1,0-4.9-0.5-5.9-1.7    c-1.7,6.1-1.3,9.2,5.9,9.2c88.9,0,177.9,0,266.8,0C640,423.5,640.4,420.3,638.7,414.2z"
   id="path255" />
	</g>
	<g
   id="XMLID_68_">
		<path
   id="XMLID_69_"
   class="st1"
   d="M637.3,409.9c-0.2-0.5-0.3-1-0.4-1.5c-1.3,4.7-1.2,9.7,0.3,14.4    C640.9,421.3,639.6,416.9,637.3,409.9z" />
		<path
   id="XMLID_70_"
   class="st1"
   d="M362.9,403.5c1-0.4,4.9-10.1,10.9-10.1c88.9,0,164.6,0,253.5,0c7.2,0,8.5,14.6,9.6,15    c0-0.1,0.4-14.7,0.4-14.8c3-9,4.2-13.6-4.5-13.5c-88.8,0-177.7,0-266.5,0c-9-0.2-7.8,4.5-4.8,13.5    C361.6,393.8,362.8,403.4,362.9,403.5z" />
		<path
   id="XMLID_71_"
   class="st1"
   d="M361.7,422.8c1.5-4.7,1.6-9.7,0.3-14.4c-0.1,0.5-0.3,1-0.4,1.5    C359.2,416.9,357.9,421.3,361.7,422.8z" />
	</g>
	<path
   id="XMLID_44_"
   class="st3"
   d="M632.8,423.4c-88.9,0-177.9,0-266.8,0c-8.7,0.1-7.5-4.6-4.5-13.5c1.8-5.3,1.8-11,0-16.2   c-3-9-4.2-13.6,4.5-13.5c88.9,0,177.9,0,266.8,0c8.7-0.1,7.5,4.6,4.5,13.5c-1.8,5.3-1.8,11,0,16.2   C640.3,418.8,641.5,423.5,632.8,423.4z" />
	<path
   id="XMLID_106_"
   class="st4"
   d="M625.1,380.1H373.8l2.5-8.8c3.9-14,17.3-23.7,32.6-23.7H590c15.3,0,28.6,9.7,32.6,23.7   L625.1,380.1z" />
	<path
   id="XMLID_66_"
   class="st4"
   d="M625.1,380.1H373.8l2.5-8.8c3.9-14,17.3-23.7,32.6-23.7H590c15.3,0,28.6,9.7,32.6,23.7   L625.1,380.1z" />
	<path
   id="XMLID_76_"
   class="st0"
   d="M426.5,358l171.5-0.1c12.4,0,20,8.9,23.5,10c-6.1-9.1-19.6-20.3-31.4-20.3H408.8   c-15.3,0-28.6,9.7-32.6,23.7l-2.5,8.8h21.8C400.8,368.5,412.9,358,426.5,358z" />
	<path
   id="XMLID_43_"
   class="st3"
   d="M625.1,380.1H373.8l2.5-8.8c3.9-14,17.3-23.7,32.6-23.7H590c15.3,0,28.6,9.7,32.6,23.7   L625.1,380.1z" />
	<path
   id="XMLID_107_"
   class="st4"
   d="M575.6,347.6H507v-6.4c0-7.4,6-13.5,13.5-13.5h41.7c7.4,0,13.5,6,13.5,13.5V347.6z" />
	<path
   id="XMLID_67_"
   class="st4"
   d="M575.6,347.6H507v-6.4c0-7.4,6-13.5,13.5-13.5h41.7c7.4,0,13.5,6,13.5,13.5V347.6z" />
	<path
   id="XMLID_78_"
   class="st0"
   d="M507.1,347.4c0-7.1,5.7-12.8,12.8-12.8h43c6.5,0,11.9,4.9,12.7,11.2v-5.2   c0-7.1-5.7-12.8-12.8-12.8h-43c-7.1,0-12.8,5.7-12.8,12.8v7h0.1V347.4z" />
	<path
   id="XMLID_32_"
   class="st8"
   d="M491.3,582.4c-10.6,0-29.8-7.5-35.9-27.6c-6-16.4-3.4-35.7,6.7-50.2   c7.4-10.6,17.5-16.6,27.7-16.6c3.1,0,6.2,0.6,9.2,1.7l0.1,0.1l0.1,0.1c2.1,1.2,3.3,2.6,3.7,4.3c0.6,2.9-1.3,5.6-3.8,9   c-5,6.9-11.8,16.3-5.1,33.8c7.8,20.2,7.8,39.4,3,44C496,581.9,494,582.4,491.3,582.4z" />
	<path
   id="XMLID_42_"
   class="st3"
   d="M575.6,347.6H507v-6.4c0-7.4,6-13.5,13.5-13.5h41.7c7.4,0,13.5,6,13.5,13.5V347.6z" />
	<path
   id="XMLID_31_"
   class="st8"
   d="M518.8,582.1c-3.9,0-7.5-1.5-10-4.1c-2.1-2.3-3.2-5.2-3-8.3c0.5-8-2.2-15.6-4.8-23   c-2.4-6.7-4.7-13.1-4.7-19.7c-0.1-24.4,16.3-32.1,18.3-32.9c1.3-0.8,2.8-1.2,4.4-1.2c6.5,0,14.5,6.4,20.3,16.3   c3.9,6.6,15.4,30.3,0.3,57.5C534.1,576.5,526.6,582.1,518.8,582.1L518.8,582.1z" />
	<path
   id="XMLID_33_"
   class="st10"
   d="M499.3,488.5c11.8,6.7-18.1,14.9-6.1,46.1c8.2,21.3,7,38.5,3.5,41.8s-30.9-0.6-38.5-25.2   C445.8,517.4,472.8,478.6,499.3,488.5z" />
	<path
   id="XMLID_27_"
   class="st10"
   d="M516.5,492.9c0,0-17.3,6.8-17.2,31.2c0,13.6,10.5,27.3,9.5,42.8c-0.7,10.8,17.8,18,30.1-4.1   C560.4,523.8,528.4,485.3,516.5,492.9z" />
	<g
   id="XMLID_102_">
		<path
   id="XMLID_39_"
   class="st10"
   d="M488.2,630c-4.6,4.4-4.8,13.5-0.7,16.8c0.3,0.2,1.8,1.5,4,1.4c3.8-0.1,6.7-4.3,7.6-7.7    c1.4-5.4-1.5-12.2-5.5-12.9C491.1,627.2,488.9,629.3,488.2,630z M494.3,639.9c-0.1,0.3-0.7,2.1-2.1,2.3c-0.9,0.1-1.6-0.5-1.7-0.6    c-1.2-1.1-1.1-3.6,0.1-6.3c0.8-1.2,1.4-1.5,1.8-1.4C493.8,633.9,495.3,637.3,494.3,639.9z" />
		<path
   id="XMLID_38_"
   class="st10"
   d="M500.4,659.9c-2.1-1.4-0.3-4.6,0.9-31.8c0.3-7.5,1.9-14.3,5.8-17c0.8-0.5,3-2.1,5.7-1.7    c0.6,0.1,1.9,0.3,2.9,1.4c1.9,1.9,1.3,4.8,1.2,5c-0.6-0.3-1.7-0.8-3.1-0.6c0,0-1.6,0.3-3.1,1.9c-3.8,4.1-3.4,21.3-3.4,21.3    c0.4,14.3,1.1,19.3-1.7,21.3C504.3,660.8,502,660.9,500.4,659.9z" />
		<path
   id="XMLID_37_"
   class="st10"
   d="M511.8,659.6c-1.8-1.2-0.3-4,0.8-27.5c0.3-6.5,1.7-12.4,5-14.7c0.7-0.5,2.6-1.8,4.9-1.4    c0.5,0.1,1.6,0.3,2.6,1.2c1.6,1.6,1.1,4.1,1,4.4c-0.5-0.3-1.5-0.7-2.7-0.5c0,0-1.4,0.2-2.7,1.6c-3.3,3.6-2.9,18.4-2.9,18.4    c0.3,12.4,0.9,16.7-1.5,18.4C515.1,660.4,513.2,660.5,511.8,659.6z" />
		<path
   id="XMLID_36_"
   class="st10"
   d="M528.6,646.4c-0.9,0.2-2.1,0.2-3-0.4c-2.1-1.5-1.4-6.8,1.2-9.9c0.4-0.4,2.7-3,4.8-2.3    c0.6,0.2,1.4,0.8,1.4,1.5c0.1,1.7-3.4,3.6-6.5,3.8c-1.7,0.1-3.1-0.3-3.9-0.6c-0.9,1.3-0.8,2.1-0.7,2.4c0.6,1.9,4.9,1.8,5.5,1.7    c0.4,0,7.9-0.5,9.3-5.6c0.5-1.9,0.2-4.6-1.6-6.2c-2.6-2.2-6.6-0.7-7.1-0.4c-7.1,2.8-10.3,15-6.7,18.6c2.1,2.1,7,1.8,9.4-0.5    c1.6-1.6,2-4.1,1.5-4.4C531.9,644.1,530.9,645.9,528.6,646.4z" />
		<path
   id="XMLID_35_"
   class="st10"
   d="M543.7,647.7c-0.8,0.2-1.9,0.2-2.6-0.3c-1.9-1.4-1.1-6.1,1.1-8.8c0.3-0.4,2-2.5,3.4-2    c0.7,0.2,1.2,1,1.2,1.7c-0.1,1.6-2.8,2.8-4.8,3c-1.5,0.2-2.8-0.2-3.5-0.5c-0.8,1.1-0.7,1.9-0.6,2.1c0.5,1.5,3.4,1.7,4.9,1.5    c2.6-0.2,6.5-1.8,7.5-5.3c0.1-0.4,0.9-3.3-0.7-5.1c-1.8-2-5.2-1.6-7.3-0.8c-5.9,2.4-8.6,12.7-5.2,16.2c2,2,6.4,2.2,8.5,0.3    c1.5-1.3,1.8-3.6,1.4-3.9C546.6,645.6,545.7,647.2,543.7,647.7z" />
		<path
   id="XMLID_34_"
   class="st10"
   d="M531.6,620.4c-0.1,1.3-0.5,2.9-1.7,4.1c-6.9,6.6-30.7-11.9-37.4-5.3    c-1.5,1.4-2.7,4.6-1.9,5.5c0.4,0.4,1.1,0.2,2.9,0c1.6-0.2,3.3-0.1,4.9-0.3c4-0.4,10.1,2,16.4,3.4c1.6,0.3,14.2,2.9,17.2-0.9    c0.4-0.5,2.3-3,1.5-4.6l0,0C532.8,621.6,532.2,621,531.6,620.4z" />
		<path
   id="XMLID_25_"
   class="st10"
   d="M461.6,622.9c4.3,2.1,5.7,3.5,8.5,3.2c2.2-0.3,5.1-1.6,5.9-4.2c0.3-1,0.5-2.8-0.4-3.7    c-1.4-1.5-4.9-0.5-6.9,0.5c0,0-0.1,0.1-0.2,0.1c-8.7,4.7-11.4,23.5-4.4,29.4c1.8,1.5,4.6,2.7,7.4,2c0.4-0.1,3.9-1,4.8-4.2    c0.4-1.6,0.1-3.5-0.9-4.8c-1.3-1.5-3.2-1.6-3.1-2.1c0-0.5,2.1-1.3,4-0.8c3.6,0.9,6.3,6.4,5.4,11.1c-0.8,4-3.9,6.3-4.9,7    c-3.6,2.6-8.3,3.2-12.3,2c-6.8-2.1-9.4-8.9-10-10.3c-4.9-12.6,4.3-29.8,15.8-33.4c0.8-0.3,7-2.2,9.6,0.7c2.2,2.5,1,7.6-1.5,10.4    c-2.8,3.2-6.8,3.4-7.9,3.5c-2,0.1-3.5-0.3-5.5-0.9c-5.1-1.4-5.4-3-8.2-3.5c-5.4-0.8-8.8,4.4-10.6,3.1c-1.6-1.2-0.9-6.7,2.1-8.4    C451.2,617.9,456,620.2,461.6,622.9z" />
	</g>
	<path
   id="XMLID_125_"
   class="st3"
   d="M576.7,202.4c-7.8,10.9-16.4,13.6-23,26.3c-1.8,3.5-7.1,13.7-5.5,26   c2.1,16.2,14.3,20.4,15.5,35c0.5,6.6-1.3,14.6-8,24" />
	<path
   id="XMLID_62_"
   class="st3"
   d="M601.7,151.1c6.1,25.3,1.7,40.9-3.5,50.5c-9.5,17.5-26.8,24.3-28,41.9   c-0.6,8.3,2.7,15.3,5.4,19.7" />
	<path
   id="XMLID_6_"
   class="st3"
   d="M544.4,211.1c0,0-12,14-12,26.7" />
</g>
</svg>