<?xml version="1.0" encoding="UTF-8" standalone="no"?>
<!-- Generator: Adobe Illustrator 23.1.1, SVG Export Plug-In . SVG Version: 6.00 Build 0)  -->

<svg
   version="1.1"
   id="Layer_1"
   x="0px"
   y="0px"
   viewBox="0 0 1000 800"
   xml:space="preserve"
   sodipodi:docname="day95-app-development.svg"
   inkscape:version="1.1.2 (0a00cf5339, 2022-02-04)"
   width="1000"
   height="800"
   xmlns:inkscape="http://www.inkscape.org/namespaces/inkscape"
   xmlns:sodipodi="http://sodipodi.sourceforge.net/DTD/sodipodi-0.dtd"
   xmlns="http://www.w3.org/2000/svg"
   xmlns:svg="http://www.w3.org/2000/svg"><defs
   id="defs512" /><sodipodi:namedview
   id="namedview510"
   pagecolor="#ffffff"
   bordercolor="#666666"
   borderopacity="1.0"
   inkscape:pageshadow="2"
   inkscape:pageopacity="0.0"
   inkscape:pagecheckerboard="0"
   showgrid="false"
   inkscape:zoom="0.873"
   inkscape:cx="500"
   inkscape:cy="500.57274"
   inkscape:window-width="2560"
   inkscape:window-height="1379"
   inkscape:window-x="0"
   inkscape:window-y="0"
   inkscape:window-maximized="1"
   inkscape:current-layer="Layer_1" />
<style
   type="text/css"
   id="style2">
	.st0{fill:#DCE2E1;}
	.st1{fill:#444E59;}
	.st2{opacity:0.28;fill:#848484;}
	.st3{fill:#F09F54;}
	.st4{opacity:0.29;fill:#F09F54;}
	.st5{fill:none;stroke:#444E59;stroke-width:4;stroke-linecap:round;stroke-linejoin:round;stroke-miterlimit:10;}
	.st6{fill:none;stroke:#444E59;stroke-width:3;stroke-linecap:round;stroke-linejoin:round;stroke-miterlimit:10;}
	.st7{fill:#848484;}
	.st8{opacity:0.25;fill:#848484;}
	.st9{fill:#FFFFFF;}
	.st10{fill:#71A850;}
	.st11{opacity:0.4;fill:#71A850;}
	.st12{opacity:0.48;fill:#848484;}
	.st13{fill:#E9FBFF;}
	.st14{fill:#C9C9C9;}
	.st15{fill:none;stroke:#444E59;stroke-width:5;stroke-linecap:round;stroke-linejoin:round;stroke-miterlimit:10;}
	.st16{opacity:0.29;fill:#848484;}
	.st17{opacity:0.3;}
	.st18{fill:none;stroke:#444E59;stroke-width:2;stroke-linecap:round;stroke-linejoin:round;stroke-dasharray:4.0794,4.0794;}
	.st19{opacity:0.52;fill:#5F8C42;}
	.st20{opacity:0.52;fill:#D38444;}
	.st21{fill:#2FA9ED;}
	.st22{opacity:0.52;fill:#288FBC;}
	.st23{fill:#E7534E;}
	.st24{opacity:0.52;fill:#BF4040;}
	.st25{fill:none;stroke:#FFFFFF;stroke-width:4;stroke-linecap:round;stroke-linejoin:round;stroke-miterlimit:10;}
	.st26{opacity:0.29;}
	.st27{fill:#BCBCBC;}
	.st28{fill:none;stroke:#64BDFF;stroke-width:4;stroke-linecap:round;stroke-linejoin:round;stroke-miterlimit:10;}
	.st29{fill:none;stroke:#FF5F5F;stroke-width:4;stroke-linecap:round;stroke-linejoin:round;stroke-miterlimit:10;}
	.st30{fill:none;stroke:#FFBE78;stroke-width:4;stroke-linecap:round;stroke-linejoin:round;stroke-miterlimit:10;}
	.st31{fill:none;stroke:#C383F2;stroke-width:4;stroke-linecap:round;stroke-linejoin:round;stroke-miterlimit:10;}
	.st32{fill:none;stroke:#6DBF7B;stroke-width:4;stroke-linecap:round;stroke-linejoin:round;stroke-miterlimit:10;}
	.st33{fill:#9483C4;}
	.st34{opacity:0.56;fill:none;stroke:#FFFFFF;stroke-width:3;stroke-linecap:round;stroke-linejoin:round;stroke-miterlimit:10;}
	.st35{opacity:0.56;}
	.st36{fill:none;stroke:#FFFFFF;stroke-width:3;stroke-linecap:round;stroke-linejoin:round;stroke-miterlimit:10;}
</style>


<g
   id="XMLID_238_"
   transform="matrix(1.3672769,0,0,1.3672769,-181.38671,-292.29958)">
	<path
   id="XMLID_1313_"
   class="st2"
   d="M 837.8,666.3 H 162.2 c -5,0 -9,-4 -9,-9 v 0 c 0,-5 4,-9 9,-9 h 675.7 c 5,0 9,4 9,9 v 0 c -0.1,5 -4.1,9 -9.1,9 z" />
	<g
   id="XMLID_45_">
		<path
   id="XMLID_41_"
   class="st3"
   d="m 808.5,573.9 c 0,-37.2 -28.2,-67.8 -64.7,-71.3 v -8.4 h -21.9 v 160.7 h 21.9 v -9.7 c 36.4,-3.5 64.7,-34.1 64.7,-71.3 z m -64.8,48.2 v -96.3 c 23.4,3.4 41.8,23.7 41.8,48.2 0,24.4 -18.4,44.7 -41.8,48.1 z" />
		<path
   id="XMLID_222_"
   class="st4"
   d="m 743.7,502.6 v -8.4 h -21.9 v 160.7 h 21.9 v -9.7 c 36.5,-3.5 64.7,-34 64.7,-71.3 0.1,-37.2 -28.2,-67.8 -64.7,-71.3 z m 0,135.2 v 8.3 H 723.2 V 501.5 h 20.5 v 8.5 c 32.1,3.1 58,30.5 58,63.9 0.1,33.4 -25.8,60.8 -58,63.9 z" />
		<path
   id="XMLID_48_"
   class="st5"
   d="m 808.5,573.9 c 0,-37.2 -28.2,-67.8 -64.7,-71.3 v -8.4 h -21.9 v 160.7 h 21.9 v -9.7 c 36.4,-3.5 64.7,-34.1 64.7,-71.3 z m -64.8,48.2 v -96.3 c 23.4,3.4 41.8,23.7 41.8,48.2 0,24.4 -18.4,44.7 -41.8,48.1 z" />
		<g
   id="XMLID_49_">
			<g
   id="XMLID_67_">
				<line
   id="XMLID_68_"
   class="st6"
   x1="730.59998"
   y1="638.79999"
   x2="721.79999"
   y2="638.79999" />
			</g>
			<g
   id="XMLID_65_">
				<line
   id="XMLID_66_"
   class="st6"
   x1="730.59998"
   y1="622.79999"
   x2="721.79999"
   y2="622.79999" />
			</g>
			<g
   id="XMLID_63_">
				<line
   id="XMLID_64_"
   class="st6"
   x1="730.59998"
   y1="606.70001"
   x2="721.79999"
   y2="606.70001" />
			</g>
			<g
   id="XMLID_61_">
				<line
   id="XMLID_62_"
   class="st6"
   x1="730.59998"
   y1="590.59998"
   x2="721.79999"
   y2="590.59998" />
			</g>
			<g
   id="XMLID_59_">
				<line
   id="XMLID_60_"
   class="st6"
   x1="730.59998"
   y1="574.59998"
   x2="721.79999"
   y2="574.59998" />
			</g>
			<g
   id="XMLID_56_">
				<line
   id="XMLID_57_"
   class="st6"
   x1="730.59998"
   y1="558.5"
   x2="721.79999"
   y2="558.5" />
			</g>
			<g
   id="XMLID_54_">
				<line
   id="XMLID_55_"
   class="st6"
   x1="730.59998"
   y1="542.40002"
   x2="721.79999"
   y2="542.40002" />
			</g>
			<g
   id="XMLID_52_">
				<line
   id="XMLID_53_"
   class="st6"
   x1="730.59998"
   y1="526.29999"
   x2="721.79999"
   y2="526.29999" />
			</g>
			<g
   id="XMLID_50_">
				<line
   id="XMLID_51_"
   class="st6"
   x1="730.59998"
   y1="510.29999"
   x2="721.79999"
   y2="510.29999" />
			</g>
		</g>
	</g>
	<g
   id="XMLID_212_">
		<rect
   id="XMLID_207_"
   x="673.29999"
   y="412.89999"
   class="st3"
   width="33.099998"
   height="241.60001" />
		<rect
   id="XMLID_208_"
   x="673.29999"
   y="412.89999"
   class="st3"
   width="33.099998"
   height="241.60001" />
		<rect
   id="XMLID_209_"
   x="692"
   y="412.89999"
   class="st4"
   width="14.4"
   height="241.60001" />
		<rect
   id="XMLID_121_"
   x="673.29999"
   y="412.89999"
   class="st5"
   width="33.099998"
   height="241.60001" />
		<g
   id="XMLID_203_">
			<g
   id="XMLID_266_">
				<line
   id="XMLID_269_"
   class="st6"
   x1="684.79999"
   y1="630.09998"
   x2="673.29999"
   y2="630.09998" />
				<line
   id="XMLID_268_"
   class="st6"
   x1="680.40002"
   y1="641.59998"
   x2="673.29999"
   y2="641.59998" />
			</g>
			<g
   id="XMLID_262_">
				<line
   id="XMLID_265_"
   class="st6"
   x1="684.79999"
   y1="607.09998"
   x2="673.29999"
   y2="607.09998" />
				<line
   id="XMLID_264_"
   class="st6"
   x1="680.40002"
   y1="618.59998"
   x2="673.29999"
   y2="618.59998" />
			</g>
			<g
   id="XMLID_258_">
				<line
   id="XMLID_261_"
   class="st6"
   x1="684.79999"
   y1="584.09998"
   x2="673.29999"
   y2="584.09998" />
				<line
   id="XMLID_260_"
   class="st6"
   x1="680.40002"
   y1="595.59998"
   x2="673.29999"
   y2="595.59998" />
			</g>
			<g
   id="XMLID_254_">
				<line
   id="XMLID_257_"
   class="st6"
   x1="684.79999"
   y1="561"
   x2="673.29999"
   y2="561" />
				<line
   id="XMLID_256_"
   class="st6"
   x1="680.40002"
   y1="572.5"
   x2="673.29999"
   y2="572.5" />
			</g>
			<g
   id="XMLID_249_">
				<line
   id="XMLID_253_"
   class="st6"
   x1="684.79999"
   y1="538"
   x2="673.29999"
   y2="538" />
				<line
   id="XMLID_251_"
   class="st6"
   x1="680.40002"
   y1="549.5"
   x2="673.29999"
   y2="549.5" />
			</g>
			<g
   id="XMLID_245_">
				<line
   id="XMLID_248_"
   class="st6"
   x1="684.79999"
   y1="515"
   x2="673.29999"
   y2="515" />
				<line
   id="XMLID_247_"
   class="st6"
   x1="680.40002"
   y1="526.5"
   x2="673.29999"
   y2="526.5" />
			</g>
			<g
   id="XMLID_223_">
				<line
   id="XMLID_244_"
   class="st6"
   x1="684.79999"
   y1="492"
   x2="673.29999"
   y2="492" />
				<line
   id="XMLID_243_"
   class="st6"
   x1="680.40002"
   y1="503.5"
   x2="673.29999"
   y2="503.5" />
			</g>
			<g
   id="XMLID_215_">
				<line
   id="XMLID_219_"
   class="st6"
   x1="684.79999"
   y1="469"
   x2="673.29999"
   y2="469" />
				<line
   id="XMLID_218_"
   class="st6"
   x1="680.40002"
   y1="480.5"
   x2="673.29999"
   y2="480.5" />
			</g>
			<g
   id="XMLID_118_">
				<line
   id="XMLID_210_"
   class="st6"
   x1="684.79999"
   y1="446"
   x2="673.29999"
   y2="446" />
				<line
   id="XMLID_141_"
   class="st6"
   x1="680.40002"
   y1="457.5"
   x2="673.29999"
   y2="457.5" />
			</g>
			<g
   id="XMLID_36_">
				<line
   id="XMLID_113_"
   class="st6"
   x1="684.79999"
   y1="423"
   x2="673.29999"
   y2="423" />
				<line
   id="XMLID_112_"
   class="st6"
   x1="680.40002"
   y1="434.5"
   x2="673.29999"
   y2="434.5" />
			</g>
		</g>
	</g>
	<g
   id="XMLID_1_">
		<rect
   id="XMLID_93_"
   x="612.09998"
   y="471.29999"
   class="st7"
   width="12.9"
   height="34.099998" />
		<rect
   id="XMLID_237_"
   x="612.09998"
   y="471.29999"
   class="st8"
   width="4.8000002"
   height="34.099998" />
		<rect
   id="XMLID_40_"
   x="612.09998"
   y="471.29999"
   class="st5"
   width="12.9"
   height="34.099998" />
		<rect
   id="XMLID_95_"
   x="615.59998"
   y="505.5"
   class="st9"
   width="5.9000001"
   height="16.5" />
		<rect
   id="XMLID_42_"
   x="615.59998"
   y="505.5"
   class="st5"
   width="5.9000001"
   height="16.5" />
		<g
   id="XMLID_16_">
			<polygon
   id="XMLID_98_"
   class="st9"
   points="578.6,654.4 624.2,538.3 608.6,536.7 " />
			<polygon
   id="XMLID_37_"
   class="st5"
   points="578.6,654.4 624.2,538.3 608.6,536.7 " />
			<polygon
   id="XMLID_97_"
   class="st9"
   points="658.6,654.4 613.1,538.3 628.6,536.7 " />
			<polygon
   id="XMLID_38_"
   class="st5"
   points="658.6,654.4 613.1,538.3 628.6,536.7 " />
		</g>
		<circle
   id="XMLID_91_"
   class="st10"
   cx="618.59998"
   cy="539.79999"
   r="20" />
		<path
   id="XMLID_241_"
   class="st11"
   d="m 604.2,539.8 c 0,-10.1 7.5,-18.4 17.2,-19.8 -0.9,-0.1 -1.8,-0.2 -2.8,-0.2 -11,0 -20,9 -20,20 0,11 9,20 20,20 0.9,0 1.9,-0.1 2.8,-0.2 -9.7,-1.4 -17.2,-9.7 -17.2,-19.8 z" />
		<circle
   id="XMLID_39_"
   class="st5"
   cx="618.59998"
   cy="539.79999"
   r="20" />
		<circle
   id="XMLID_94_"
   class="st1"
   cx="618.59998"
   cy="539.79999"
   r="6.8000002" />
		<circle
   id="XMLID_92_"
   class="st5"
   cx="618.59998"
   cy="539.79999"
   r="6.8000002" />
	</g>
	<path
   id="XMLID_75_"
   class="st7"
   d="m 546.4,654.2 h -132 c -7.7,0 -14,-6.3 -14,-14 v -272 c 0,-7.7 6.3,-14 14,-14 h 132 c 7.7,0 14,6.3 14,14 v 272 c 0,7.7 -6.3,14 -14,14 z" />
	<path
   id="XMLID_116_"
   class="st2"
   d="M 546.4,354.2 H 538 c 7.7,0 14,6.3 14,14 v 272 c 0,7.7 -6.3,14 -14,14 h 8.5 c 7.7,0 14,-6.3 14,-14 v -272 c -0.1,-7.8 -6.4,-14 -14.1,-14 z" />
	<path
   id="XMLID_81_"
   class="st12"
   d="m 408.7,640.2 v -272 c 0,-7.7 6.3,-14 14,-14 h -8.3 c -7.7,0 -14,6.3 -14,14 v 272 c 0,7.7 6.3,14 14,14 h 8.3 c -7.7,0 -14,-6.3 -14,-14 z" />
	<path
   id="XMLID_3_"
   class="st5"
   d="m 546.4,654.2 h -132 c -7.7,0 -14,-6.3 -14,-14 v -272 c 0,-7.7 6.3,-14 14,-14 h 132 c 7.7,0 14,6.3 14,14 v 272 c 0,7.7 -6.3,14 -14,14 z" />
	
		<rect
   id="XMLID_77_"
   x="368.39999"
   y="423.70001"
   transform="rotate(90,480.41555,503.70355)"
   class="st13"
   width="224"
   height="160" />
	<path
   id="XMLID_5_"
   class="st14"
   d="m 559.6,463.9 h -12.5 c -6.8,0 -12.3,-5.5 -12.3,-12.3 v -30.5 c 0,-6.8 5.5,-12.3 12.3,-12.3 h 12.5 z" />
	<path
   id="XMLID_2_"
   class="st14"
   d="m 409.6,587.5 h -9.2 v -97.3 h 9.2 c 6.9,0 12.5,5.6 12.5,12.5 V 575 c -0.1,6.9 -5.6,12.5 -12.5,12.5 z" />
	
		<rect
   id="XMLID_6_"
   x="368.39999"
   y="423.70001"
   transform="rotate(90,480.41555,503.70355)"
   class="st5"
   width="224"
   height="160" />
	<g
   id="XMLID_4_">
		<line
   id="XMLID_9_"
   class="st15"
   x1="502.39999"
   y1="374.20001"
   x2="509.39999"
   y2="374.20001" />
		<line
   id="XMLID_7_"
   class="st15"
   x1="451.39999"
   y1="374.20001"
   x2="491.39999"
   y2="374.20001" />
	</g>
	<g
   id="XMLID_228_">
		<circle
   id="XMLID_8_"
   class="st16"
   cx="480.39999"
   cy="632.59998"
   r="11" />
		<circle
   id="XMLID_78_"
   class="st1"
   cx="480.39999"
   cy="632.59998"
   r="8.3999996" />
	</g>
	<g
   id="XMLID_14_"
   class="st17">
		<g
   id="XMLID_32_">
			<g
   id="XMLID_58_">
				<path
   class="st18"
   d="m 443.9,588.9 h -16 c -4.4,0 -8,-3.6 -8,-8 v -16 c 0,-4.4 3.6,-8 8,-8 h 16 c 4.4,0 8,3.6 8,8 v 16 c 0,4.4 -3.6,8 -8,8 z"
   id="path317" />
			</g>
			<g
   id="XMLID_35_">
				<path
   class="st18"
   d="m 532.4,588.9 h -16 c -4.4,0 -8,-3.6 -8,-8 v -16 c 0,-4.4 3.6,-8 8,-8 h 16 c 4.4,0 8,3.6 8,8 v 16 c 0,4.4 -3.6,8 -8,8 z"
   id="path320" />
			</g>
			<g
   id="XMLID_34_">
				<path
   class="st18"
   d="m 488.4,588.9 h -16 c -4.4,0 -8,-3.6 -8,-8 v -16 c 0,-4.4 3.6,-8 8,-8 h 16 c 4.4,0 8,3.6 8,8 v 16 c 0,4.4 -3.6,8 -8,8 z"
   id="path323" />
			</g>
		</g>
		<g
   id="XMLID_27_">
			<g
   id="XMLID_31_">
				<path
   class="st18"
   d="m 443.9,540.9 h -16 c -4.4,0 -8,-3.6 -8,-8 v -16 c 0,-4.4 3.6,-8 8,-8 h 16 c 4.4,0 8,3.6 8,8 v 16 c 0,4.4 -3.6,8 -8,8 z"
   id="path327" />
			</g>
			<g
   id="XMLID_30_">
				<path
   class="st18"
   d="m 532.4,540.9 h -16 c -4.4,0 -8,-3.6 -8,-8 v -16 c 0,-4.4 3.6,-8 8,-8 h 16 c 4.4,0 8,3.6 8,8 v 16 c 0,4.4 -3.6,8 -8,8 z"
   id="path330" />
			</g>
			<g
   id="XMLID_29_">
				<path
   class="st18"
   d="m 488.4,540.9 h -16 c -4.4,0 -8,-3.6 -8,-8 v -16 c 0,-4.4 3.6,-8 8,-8 h 16 c 4.4,0 8,3.6 8,8 v 16 c 0,4.4 -3.6,8 -8,8 z"
   id="path333" />
			</g>
		</g>
		<g
   id="XMLID_22_">
			<g
   id="XMLID_26_">
				<path
   class="st18"
   d="m 443.9,492.9 h -16 c -4.4,0 -8,-3.6 -8,-8 v -16 c 0,-4.4 3.6,-8 8,-8 h 16 c 4.4,0 8,3.6 8,8 v 16 c 0,4.4 -3.6,8 -8,8 z"
   id="path337" />
			</g>
			<g
   id="XMLID_25_">
				<path
   class="st18"
   d="m 532.4,492.9 h -16 c -4.4,0 -8,-3.6 -8,-8 v -16 c 0,-4.4 3.6,-8 8,-8 h 16 c 4.4,0 8,3.6 8,8 v 16 c 0,4.4 -3.6,8 -8,8 z"
   id="path340" />
			</g>
			<g
   id="XMLID_24_">
				<path
   class="st18"
   d="m 488.4,492.9 h -16 c -4.4,0 -8,-3.6 -8,-8 v -16 c 0,-4.4 3.6,-8 8,-8 h 16 c 4.4,0 8,3.6 8,8 v 16 c 0,4.4 -3.6,8 -8,8 z"
   id="path343" />
			</g>
		</g>
		<g
   id="XMLID_17_">
			<g
   id="XMLID_21_">
				<path
   class="st18"
   d="m 443.9,444.9 h -16 c -4.4,0 -8,-3.6 -8,-8 v -16 c 0,-4.4 3.6,-8 8,-8 h 16 c 4.4,0 8,3.6 8,8 v 16 c 0,4.4 -3.6,8 -8,8 z"
   id="path347" />
			</g>
			<g
   id="XMLID_20_">
				<path
   class="st18"
   d="m 532.4,444.9 h -16 c -4.4,0 -8,-3.6 -8,-8 v -16 c 0,-4.4 3.6,-8 8,-8 h 16 c 4.4,0 8,3.6 8,8 v 16 c 0,4.4 -3.6,8 -8,8 z"
   id="path350" />
			</g>
			<g
   id="XMLID_19_">
				<path
   class="st18"
   d="m 488.4,444.9 h -16 c -4.4,0 -8,-3.6 -8,-8 v -16 c 0,-4.4 3.6,-8 8,-8 h 16 c 4.4,0 8,3.6 8,8 v 16 c 0,4.4 -3.6,8 -8,8 z"
   id="path353" />
			</g>
		</g>
	</g>
	<path
   id="XMLID_73_"
   class="st10"
   d="m 443.9,588.9 h -16 c -4.4,0 -8,-3.6 -8,-8 v -16 c 0,-4.4 3.6,-8 8,-8 h 16 c 4.4,0 8,3.6 8,8 v 16 c 0,4.4 -3.6,8 -8,8 z" />
	<path
   id="XMLID_80_"
   class="st19"
   d="m 443.9,556.9 h -16 c -3.2,0 -6,1.9 -7.2,4.6 l 31.2,5.6 v -2.2 c 0,-4.4 -3.6,-8 -8,-8 z" />
	<path
   id="XMLID_76_"
   class="st5"
   d="m 443.9,588.9 h -16 c -4.4,0 -8,-3.6 -8,-8 v -16 c 0,-4.4 3.6,-8 8,-8 h 16 c 4.4,0 8,3.6 8,8 v 16 c 0,4.4 -3.6,8 -8,8 z" />
	<path
   id="XMLID_72_"
   class="st3"
   d="m 488.4,588.9 h -16 c -4.4,0 -8,-3.6 -8,-8 v -16 c 0,-4.4 3.6,-8 8,-8 h 16 c 4.4,0 8,3.6 8,8 v 16 c 0,4.4 -3.6,8 -8,8 z" />
	<path
   id="XMLID_79_"
   class="st20"
   d="m 488.4,556.9 h -16 c -3.2,0 -6,1.9 -7.2,4.6 l 31.2,5.6 v -2.2 c 0,-4.4 -3.6,-8 -8,-8 z" />
	<path
   id="XMLID_74_"
   class="st5"
   d="m 488.4,588.9 h -16 c -4.4,0 -8,-3.6 -8,-8 v -16 c 0,-4.4 3.6,-8 8,-8 h 16 c 4.4,0 8,3.6 8,8 v 16 c 0,4.4 -3.6,8 -8,8 z" />
	<g
   id="XMLID_33_">
		<path
   id="XMLID_70_"
   class="st21"
   d="m 532.4,540.9 h -16 c -4.4,0 -8,-3.6 -8,-8 v -16 c 0,-4.4 3.6,-8 8,-8 h 16 c 4.4,0 8,3.6 8,8 v 16 c 0,4.4 -3.6,8 -8,8 z" />
	</g>
	<path
   id="XMLID_119_"
   class="st22"
   d="m 532.4,508.9 h -16 c -3.2,0 -6,1.9 -7.2,4.6 l 31.2,5.6 v -2.2 c 0,-4.4 -3.6,-8 -8,-8 z" />
	<g
   id="XMLID_69_">
		<path
   id="XMLID_71_"
   class="st5"
   d="m 532.4,540.9 h -16 c -4.4,0 -8,-3.6 -8,-8 v -16 c 0,-4.4 3.6,-8 8,-8 h 16 c 4.4,0 8,3.6 8,8 v 16 c 0,4.4 -3.6,8 -8,8 z" />
	</g>
	<g
   id="XMLID_13_">
		<g
   id="g370">
			<path
   id="XMLID_90_"
   class="st23"
   d="m 488.4,492.9 h -16 c -4.4,0 -8,-3.6 -8,-8 v -16 c 0,-4.4 3.6,-8 8,-8 h 16 c 4.4,0 8,3.6 8,8 v 16 c 0,4.4 -3.6,8 -8,8 z" />
		</g>
	</g>
	<path
   id="XMLID_124_"
   class="st24"
   d="m 488.4,460.9 h -16 c -3.2,0 -6,1.9 -7.2,4.6 l 31.2,5.6 v -2.2 c 0,-4.4 -3.6,-8 -8,-8 z" />
	<g
   id="XMLID_18_">
		<path
   id="XMLID_23_"
   class="st5"
   d="m 488.4,492.9 h -16 c -4.4,0 -8,-3.6 -8,-8 v -16 c 0,-4.4 3.6,-8 8,-8 h 16 c 4.4,0 8,3.6 8,8 v 16 c 0,4.4 -3.6,8 -8,8 z" />
	</g>
	<path
   id="XMLID_10_"
   class="st9"
   d="m 521.8,517.9 9.2,5.3 c 1.3,0.8 1.3,2.7 0,3.4 l -9.2,5.3 c -1.3,0.8 -3,-0.2 -3,-1.7 v -10.6 c 0,-1.5 1.7,-2.5 3,-1.7 z" />
	<path
   id="XMLID_15_"
   class="st9"
   d="m 484.6,566.7 h -8.4 c -1.8,0 -3.2,1.5 -3.2,3.2 v 6.2 c 0,1.8 1.5,3.2 3.2,3.2 h 0.3 l -0.7,2.8 c -0.1,0.2 0.2,0.4 0.4,0.2 l 4.3,-3 h 4.3 c 1.8,0 3.2,-1.5 3.2,-3.2 v -6.2 c -0.1,-1.8 -1.6,-3.2 -3.4,-3.2 z" />
	<path
   id="XMLID_11_"
   class="st25"
   d="m 429.7,572.9 3.7,3.7 c 0.5,0.5 1.3,0.5 1.8,0 l 8.3,-8.3" />
	<circle
   id="XMLID_12_"
   class="st25"
   cx="480.39999"
   cy="476.89999"
   r="7.5" />
	<g
   id="XMLID_131_">
		<path
   id="XMLID_115_"
   class="st9"
   d="m 420,437.9 -0.2,-15 -10,0.1 c -0.6,-1.9 -1.3,-3.6 -2.3,-5.3 l 7,-7.2 -10.7,-10.5 -7,7.2 c -1.7,-0.9 -3.5,-1.6 -5.4,-2.1 l -0.1,-10 -15,0.2 0.1,10 c -1.9,0.6 -3.6,1.3 -5.3,2.3 l -7.2,-7 -10.5,10.7 7.2,7 c -0.9,1.7 -1.6,3.5 -2.1,5.4 l -10,0.1 0.2,15 10,-0.1 c 0.6,1.9 1.3,3.6 2.3,5.3 l -7,7.2 10.7,10.5 7,-7.2 c 1.7,0.9 3.5,1.6 5.4,2.1 l 0.1,10 15,-0.2 -0.1,-10 c 1.9,-0.6 3.6,-1.3 5.3,-2.3 l 7.2,7 10.5,-10.7 -7.2,-7 c 0.9,-1.7 1.6,-3.5 2.1,-5.4 z m -35.5,4.6 c -6.5,0.1 -11.7,-5.1 -11.8,-11.6 -0.1,-6.5 5.1,-11.7 11.6,-11.8 6.5,-0.1 11.7,5.1 11.8,11.6 0,6.5 -5.2,11.7 -11.6,11.8 z" />
		<path
   id="XMLID_191_"
   class="st3"
   d="m 420,437.9 -0.2,-15 -10,0.1 c -0.6,-1.9 -1.3,-3.6 -2.3,-5.3 l 7,-7.2 -10.7,-10.5 -7,7.2 c -1.7,-0.9 -3.5,-1.6 -5.4,-2.1 l -0.1,-10 -15,0.2 0.1,10 c -1.9,0.6 -3.6,1.3 -5.3,2.3 l -7.2,-7 -10.5,10.7 7.2,7 c -0.9,1.7 -1.6,3.5 -2.1,5.4 l -10,0.1 0.2,15 10,-0.1 c 0.6,1.9 1.3,3.6 2.3,5.3 l -7,7.2 10.7,10.5 7,-7.2 c 1.7,0.9 3.5,1.6 5.4,2.1 l 0.1,10 15,-0.2 -0.1,-10 c 1.9,-0.6 3.6,-1.3 5.3,-2.3 l 7.2,7 10.5,-10.7 -7.2,-7 c 0.9,-1.7 1.6,-3.5 2.1,-5.4 z m -35.5,4.6 c -6.5,0.1 -11.7,-5.1 -11.8,-11.6 -0.1,-6.5 5.1,-11.7 11.6,-11.8 6.5,-0.1 11.7,5.1 11.8,11.6 0,6.5 -5.2,11.7 -11.6,11.8 z" />
		<path
   id="XMLID_234_"
   class="st3"
   d="m 420,437.9 -0.2,-15 -10,0.1 c -0.6,-1.9 -1.3,-3.6 -2.3,-5.3 l 7,-7.2 -10.7,-10.5 -7,7.2 c -1.7,-0.9 -3.5,-1.6 -5.4,-2.1 l -0.1,-10 -15,0.2 0.1,10 c -1.9,0.6 -3.6,1.3 -5.3,2.3 l -7.2,-7 -10.5,10.7 7.2,7 c -0.9,1.7 -1.6,3.5 -2.1,5.4 l -10,0.1 0.2,15 10,-0.1 c 0.6,1.9 1.3,3.6 2.3,5.3 l -7,7.2 10.7,10.5 7,-7.2 c 1.7,0.9 3.5,1.6 5.4,2.1 l 0.1,10 15,-0.2 -0.1,-10 c 1.9,-0.6 3.6,-1.3 5.3,-2.3 l 7.2,7 10.5,-10.7 -7.2,-7 c 0.9,-1.7 1.6,-3.5 2.1,-5.4 z m -35.5,4.6 c -6.5,0.1 -11.7,-5.1 -11.8,-11.6 -0.1,-6.5 5.1,-11.7 11.6,-11.8 6.5,-0.1 11.7,5.1 11.8,11.6 0,6.5 -5.2,11.7 -11.6,11.8 z" />
		<g
   id="XMLID_246_"
   class="st26">
			<path
   id="XMLID_250_"
   class="st3"
   d="m 416.2,423 c 0,0 0,0.1 0,0 h 3.7 v -0.1 z" />
			<path
   id="XMLID_252_"
   class="st3"
   d="m 403.2,407.3 3.9,-4 -3.2,-3.2 -5.2,5.3 c 1.6,0.5 3.1,1.1 4.5,1.9 z" />
			<path
   id="XMLID_255_"
   class="st3"
   d="m 390.5,419.1 c -1.1,0 -2.1,0.2 -3,0.4 4.9,1.4 8.5,5.8 8.5,11.1 0.1,5.4 -3.6,10 -8.5,11.4 1,0.3 2.2,0.5 3.3,0.4 6.5,-0.1 11.6,-5.4 11.6,-11.8 0,-6.4 -5.4,-11.5 -11.9,-11.5 z" />
			<path
   id="XMLID_259_"
   class="st3"
   d="m 375.6,405.6 2,1.9 c 1.7,-0.9 3.4,-1.7 5.3,-2.3 l -0.1,-10 8.6,-0.1 V 395 l -15,0.2 0.1,10 c -0.2,0.2 -0.6,0.3 -0.9,0.4 z" />
			<path
   id="XMLID_263_"
   class="st3"
   d="m 383.4,456.5 c -1.9,-0.5 -3.7,-1.2 -5.4,-2.1 l -1.8,1.9 c 0.3,0.1 0.6,0.2 0.9,0.3 l 0.1,10 6.3,-0.1 z" />
			<path
   id="XMLID_267_"
   class="st3"
   d="m 355,423.7 10,-0.1 c 0.5,-1.9 1.2,-3.7 2.1,-5.4 l -7.2,-7 7.4,-7.5 -3.2,-3.2 -10.5,10.7 7.2,7 c -0.9,1.7 -1.6,3.5 -2.1,5.4 l -10,0.1 0.2,15 6.3,-0.1 z" />
			<path
   id="XMLID_270_"
   class="st3"
   d="m 403.7,454.1 c -1.4,0.8 -2.8,1.4 -4.3,1.9 l 5.2,5.1 3.1,-3.2 z" />
			<path
   id="XMLID_271_"
   class="st3"
   d="m 360.4,451 7,-7.2 c -0.9,-1.7 -1.7,-3.4 -2.3,-5.3 l -6.3,0.1 c 0.6,1.8 1.3,3.6 2.2,5.2 l -7,7.2 10.7,10.5 3.1,-3.2 z" />
		</g>
		<path
   id="XMLID_130_"
   class="st5"
   d="m 420,437.9 -0.2,-15 -10,0.1 c -0.6,-1.9 -1.3,-3.6 -2.3,-5.3 l 7,-7.2 -10.7,-10.5 -7,7.2 c -1.7,-0.9 -3.5,-1.6 -5.4,-2.1 l -0.1,-10 -15,0.2 0.1,10 c -1.9,0.6 -3.6,1.3 -5.3,2.3 l -7.2,-7 -10.5,10.7 7.2,7 c -0.9,1.7 -1.6,3.5 -2.1,5.4 l -10,0.1 0.2,15 10,-0.1 c 0.6,1.9 1.3,3.6 2.3,5.3 l -7,7.2 10.7,10.5 7,-7.2 c 1.7,0.9 3.5,1.6 5.4,2.1 l 0.1,10 15,-0.2 -0.1,-10 c 1.9,-0.6 3.6,-1.3 5.3,-2.3 l 7.2,7 10.5,-10.7 -7.2,-7 c 0.9,-1.7 1.6,-3.5 2.1,-5.4 z m -35.5,4.6 c -6.5,0.1 -11.7,-5.1 -11.8,-11.6 -0.1,-6.5 5.1,-11.7 11.6,-11.8 6.5,-0.1 11.7,5.1 11.8,11.6 0,6.5 -5.2,11.7 -11.6,11.8 z" />
	</g>
	<g
   id="XMLID_190_">
		<path
   id="XMLID_183_"
   class="st1"
   d="M 357.5,654.2 H 233.8 c -4.1,0 -7.4,-3.3 -7.4,-7.4 v -84.6 c 0,-4.1 3.3,-7.4 7.4,-7.4 h 123.8 c 4.1,0 7.4,3.3 7.4,7.4 v 84.6 c -0.1,4.1 -3.4,7.4 -7.5,7.4 z" />
		<path
   id="XMLID_134_"
   class="st27"
   d="M 364.9,570.9 H 226.4 v -8.7 c 0,-4.1 3.3,-7.4 7.4,-7.4 h 123.8 c 4.1,0 7.4,3.3 7.4,7.4 v 8.7 z" />
		<path
   id="XMLID_132_"
   class="st5"
   d="M 357.5,654.2 H 233.8 c -4.1,0 -7.4,-3.3 -7.4,-7.4 v -84.6 c 0,-4.1 3.3,-7.4 7.4,-7.4 h 123.8 c 4.1,0 7.4,3.3 7.4,7.4 v 84.6 c -0.1,4.1 -3.4,7.4 -7.5,7.4 z" />
		<path
   id="XMLID_182_"
   class="st5"
   d="M 357.5,654.2 H 233.8 c -4.1,0 -7.4,-3.3 -7.4,-7.4 v -84.6 c 0,-4.1 3.3,-7.4 7.4,-7.4 h 123.8 c 4.1,0 7.4,3.3 7.4,7.4 v 84.6 c -0.1,4.1 -3.4,7.4 -7.5,7.4 z" />
		<path
   id="XMLID_133_"
   class="st5"
   d="M 364.9,570.9 H 226.4 v -8.7 c 0,-4.1 3.3,-7.4 7.4,-7.4 h 123.8 c 4.1,0 7.4,3.3 7.4,7.4 v 8.7 z" />
		<g
   id="XMLID_135_">
			<g
   id="XMLID_169_">
				<line
   id="XMLID_172_"
   class="st25"
   x1="245.5"
   y1="641.5"
   x2="261.10001"
   y2="641.5" />
				<line
   id="XMLID_171_"
   class="st25"
   x1="234.5"
   y1="641.5"
   x2="235.60001"
   y2="641.5" />
			</g>
			<g
   id="XMLID_165_">
				<line
   id="XMLID_168_"
   class="st25"
   x1="245.5"
   y1="632.90002"
   x2="285"
   y2="632.90002" />
				<line
   id="XMLID_167_"
   class="st25"
   x1="234.5"
   y1="632.90002"
   x2="235.60001"
   y2="632.90002" />
			</g>
			<g
   id="XMLID_160_">
				<line
   id="XMLID_163_"
   class="st28"
   x1="303.79999"
   y1="624.20001"
   x2="314.60001"
   y2="624.20001" />
				<line
   id="XMLID_185_"
   class="st25"
   x1="274.39999"
   y1="624.20001"
   x2="294.39999"
   y2="624.20001" />
				<line
   id="XMLID_164_"
   class="st29"
   x1="245.5"
   y1="624.20001"
   x2="265.29999"
   y2="624.20001" />
				<line
   id="XMLID_162_"
   class="st25"
   x1="234.5"
   y1="624.20001"
   x2="235.60001"
   y2="624.20001" />
			</g>
			<g
   id="XMLID_156_">
				<line
   id="XMLID_173_"
   class="st25"
   x1="278.79999"
   y1="615.59998"
   x2="327"
   y2="615.59998" />
				<line
   id="XMLID_159_"
   class="st28"
   x1="245.5"
   y1="615.59998"
   x2="270.70001"
   y2="615.59998" />
				<line
   id="XMLID_158_"
   class="st25"
   x1="234.5"
   y1="615.59998"
   x2="235.60001"
   y2="615.59998" />
			</g>
			<g
   id="XMLID_152_">
				<line
   id="XMLID_170_"
   class="st29"
   x1="278.79999"
   y1="607"
   x2="296.79999"
   y2="607" />
				<line
   id="XMLID_155_"
   class="st30"
   x1="245.5"
   y1="607"
   x2="270.70001"
   y2="607" />
				<line
   id="XMLID_154_"
   class="st25"
   x1="234.5"
   y1="607"
   x2="235.60001"
   y2="607" />
			</g>
			<g
   id="XMLID_148_">
				<line
   id="XMLID_157_"
   class="st28"
   x1="282.29999"
   y1="598.40002"
   x2="287.20001"
   y2="598.40002" />
				<line
   id="XMLID_161_"
   class="st29"
   x1="263.29999"
   y1="598.40002"
   x2="274.39999"
   y2="598.40002" />
				<line
   id="XMLID_151_"
   class="st31"
   x1="245.5"
   y1="598.40002"
   x2="254.7"
   y2="598.40002" />
				<line
   id="XMLID_150_"
   class="st25"
   x1="234.5"
   y1="598.40002"
   x2="235.60001"
   y2="598.40002" />
			</g>
			<g
   id="XMLID_144_">
				<line
   id="XMLID_137_"
   class="st28"
   x1="318.29999"
   y1="589.70001"
   x2="327"
   y2="589.70001" />
				<line
   id="XMLID_149_"
   class="st29"
   x1="273.20001"
   y1="589.70001"
   x2="307.29999"
   y2="589.70001" />
				<line
   id="XMLID_147_"
   class="st30"
   x1="245.5"
   y1="589.70001"
   x2="265.79999"
   y2="589.70001" />
				<line
   id="XMLID_146_"
   class="st25"
   x1="234.5"
   y1="589.70001"
   x2="235.60001"
   y2="589.70001" />
			</g>
			<g
   id="XMLID_139_">
				<line
   id="XMLID_145_"
   class="st30"
   x1="296.79999"
   y1="581.09998"
   x2="314.60001"
   y2="581.09998" />
				<line
   id="XMLID_138_"
   class="st32"
   x1="274.39999"
   y1="581.09998"
   x2="288.20001"
   y2="581.09998" />
				<line
   id="XMLID_140_"
   class="st30"
   x1="259.39999"
   y1="581.09998"
   x2="267.20001"
   y2="581.09998" />
				<line
   id="XMLID_143_"
   class="st32"
   x1="245.5"
   y1="581.09998"
   x2="251.89999"
   y2="581.09998" />
				<line
   id="XMLID_142_"
   class="st25"
   x1="234.5"
   y1="581.09998"
   x2="235.60001"
   y2="581.09998" />
			</g>
		</g>
		<g
   id="XMLID_153_">
			<circle
   id="XMLID_136_"
   class="st23"
   cx="240.10001"
   cy="562.90002"
   r="2.5" />
			<circle
   id="XMLID_166_"
   class="st1"
   cx="249.10001"
   cy="562.90002"
   r="2.5" />
			<circle
   id="XMLID_174_"
   class="st1"
   cx="258.20001"
   cy="562.90002"
   r="2.5" />
		</g>
	</g>
	<path
   id="XMLID_176_"
   class="st9"
   d="m 406.8,579.7 h -89.6 c -4.4,0 -8,-3.6 -8,-8 v -80.9 c 0,-4.4 3.6,-8 8,-8 h 89.6 c 4.4,0 8,3.6 8,8 v 80.9 c 0,4.4 -3.6,8 -8,8 z" />
	<path
   id="XMLID_184_"
   class="st9"
   d="m 406.8,579.7 h -89.6 c -4.4,0 -8,-3.6 -8,-8 v -80.9 c 0,-4.4 3.6,-8 8,-8 h 89.6 c 4.4,0 8,3.6 8,8 v 80.9 c 0,4.4 -3.6,8 -8,8 z" />
	<path
   id="XMLID_175_"
   class="st5"
   d="m 406.8,579.7 h -89.6 c -4.4,0 -8,-3.6 -8,-8 v -80.9 c 0,-4.4 3.6,-8 8,-8 h 89.6 c 4.4,0 8,3.6 8,8 v 80.9 c 0,4.4 -3.6,8 -8,8 z" />
	<rect
   id="XMLID_186_"
   x="318.29999"
   y="491"
   class="st33"
   width="86.800003"
   height="57.700001" />
	<rect
   id="XMLID_177_"
   x="318.29999"
   y="491"
   class="st5"
   width="86.800003"
   height="57.700001" />
	<line
   id="XMLID_179_"
   class="st5"
   x1="318.29999"
   y1="557.90002"
   x2="373.10001"
   y2="557.90002" />
	<line
   id="XMLID_180_"
   class="st5"
   x1="318.29999"
   y1="567.09998"
   x2="350.70001"
   y2="567.09998" />
	<polyline
   id="XMLID_178_"
   class="st5"
   points="327,538.4 345.7,519.9 363.1,537.3  " />
	<polyline
   id="XMLID_181_"
   class="st5"
   points="395.7,538.4 373.1,508.9 355,529.1  " />
	<circle
   id="XMLID_187_"
   class="st5"
   cx="395.5"
   cy="562.09998"
   r="4.9000001" />
	<circle
   id="XMLID_189_"
   class="st3"
   cx="351.20001"
   cy="508.89999"
   r="6.1999998" />
	<circle
   id="XMLID_188_"
   class="st5"
   cx="351.20001"
   cy="508.89999"
   r="6.1999998" />
	<g
   id="XMLID_194_">
		<line
   id="XMLID_198_"
   class="st5"
   x1="307.5"
   y1="454.29999"
   x2="334.29999"
   y2="454.29999" />
		<line
   id="XMLID_195_"
   class="st5"
   x1="293.20001"
   y1="454.29999"
   x2="300.29999"
   y2="454.29999" />
		<line
   id="XMLID_199_"
   class="st5"
   x1="320.89999"
   y1="441.89999"
   x2="334.29999"
   y2="441.89999" />
		<line
   id="XMLID_196_"
   class="st5"
   x1="310.10001"
   y1="441.89999"
   x2="314.10001"
   y2="441.89999" />
	</g>
	<g
   id="XMLID_200_">
		<line
   id="XMLID_205_"
   class="st5"
   x1="278.5"
   y1="532.70001"
   x2="299.39999"
   y2="532.70001" />
		<line
   id="XMLID_204_"
   class="st5"
   x1="267.39999"
   y1="532.70001"
   x2="272.89999"
   y2="532.70001" />
		<line
   id="XMLID_202_"
   class="st5"
   x1="290.89999"
   y1="520.29999"
   x2="299.39999"
   y2="520.29999" />
		<line
   id="XMLID_201_"
   class="st5"
   x1="280.5"
   y1="520.29999"
   x2="283.70001"
   y2="520.29999" />
	</g>
	<g
   id="XMLID_229_">
		<line
   id="XMLID_233_"
   class="st5"
   x1="611.79999"
   y1="387.60001"
   x2="631.59998"
   y2="387.60001" />
		<line
   id="XMLID_232_"
   class="st5"
   x1="599.59998"
   y1="387.60001"
   x2="605.20001"
   y2="387.60001" />
		<line
   id="XMLID_231_"
   class="st5"
   x1="623.09998"
   y1="375.20001"
   x2="631.59998"
   y2="375.20001" />
		<line
   id="XMLID_230_"
   class="st5"
   x1="612.79999"
   y1="375.20001"
   x2="615.90002"
   y2="375.20001" />
	</g>
	<path
   id="XMLID_211_"
   class="st21"
   d="M 627.2,457.5 H 549 c -4.8,0 -8.6,-3.9 -8.6,-8.6 V 411 c 0,-4.8 3.9,-8.6 8.6,-8.6 h 78.2 c 4.8,0 8.6,3.9 8.6,8.6 v 37.8 c 0,4.8 -3.8,8.7 -8.6,8.7 z" />
	<path
   id="XMLID_197_"
   class="st6"
   d="M 627.2,457.5 H 549 c -4.8,0 -8.6,-3.9 -8.6,-8.6 V 411 c 0,-4.8 3.9,-8.6 8.6,-8.6 h 78.2 c 4.8,0 8.6,3.9 8.6,8.6 v 37.8 c 0,4.8 -3.8,8.7 -8.6,8.7 z" />
	<line
   id="XMLID_214_"
   class="st34"
   x1="588.09998"
   y1="417.20001"
   x2="621.90002"
   y2="417.20001" />
	<line
   id="XMLID_216_"
   class="st34"
   x1="588.09998"
   y1="428.10001"
   x2="610.5"
   y2="428.10001" />
	<g
   id="XMLID_224_"
   class="st35">
		<path
   id="XMLID_217_"
   class="st9"
   d="m 605.1,444.4 h -13.6 c -1.8,0 -3.3,-1.5 -3.3,-3.3 v 0 c 0,-1.8 1.5,-3.3 3.3,-3.3 h 13.6 c 1.8,0 3.3,1.5 3.3,3.3 v 0 c 0,1.8 -1.4,3.3 -3.3,3.3 z" />
		<path
   id="XMLID_213_"
   class="st36"
   d="m 605.1,444.4 h -13.6 c -1.8,0 -3.3,-1.5 -3.3,-3.3 v 0 c 0,-1.8 1.5,-3.3 3.3,-3.3 h 13.6 c 1.8,0 3.3,1.5 3.3,3.3 v 0 c 0,1.8 -1.4,3.3 -3.3,3.3 z" />
	</g>
	<g
   id="XMLID_226_">
		<path
   id="XMLID_206_"
   class="st36"
   d="m 574,444.9 h -17.9 c -2.6,0 -4.6,-2.1 -4.6,-4.6 v -20.9 c 0,-2.6 2.1,-4.6 4.6,-4.6 H 574 c 2.6,0 4.6,2.1 4.6,4.6 v 20.9 c 0,2.5 -2,4.6 -4.6,4.6 z" />
		<circle
   id="XMLID_225_"
   class="st36"
   cx="565.09998"
   cy="426.39999"
   r="4.8000002" />
		<path
   id="XMLID_227_"
   class="st36"
   d="m 556,444.4 c 0,-5 4.1,-9.1 9.1,-9.1 5,0 9.1,4.1 9.1,9.1" />
	</g>
</g>

</svg>
