<svg xmlns="http://www.w3.org/2000/svg" version="1.1" id="Layer_1" x="0" y="0" viewBox="0 0 1000 1000" style="enable-background:new 0 0 1000 1000" xml:space="preserve"><style type="text/css" id="style2">.st0{fill:#fff}.st1{fill:#4e5a7d}.st3,.st5{fill:none;stroke:#4e5a7d;stroke-width:6;stroke-linecap:round;stroke-linejoin:round;stroke-miterlimit:10}.st5{stroke:#592d2d}.st6{fill:#d16f6f}.st7{fill:#e08484}.st8{fill:#d87171}.st9{fill:#e99697}.st10{fill:#c46565}.st11{fill:none;stroke:#4e5a7d;stroke-width:4;stroke-linecap:round;stroke-linejoin:round;stroke-miterlimit:10}</style><path id="XMLID_52_" d="M364.7 760.3c-122.9-.1-207.3-182.2-210.3-191.2-9.7-28.9-40.1-118.8 5.4-207.3C216 252.7 356.8 206 448.4 237.3c62.3 21.2 53.6 62 133.5 100.5 97.6 46.9 153.4 6.8 202.2 50.9 51.1 46.1 50.8 145.2 24.2 210.9-36.3 89.6-76.2 143.2-165.1 160.8-74.6.1-176.7 0-278.5-.1z" style="fill:#fff4b0"/><path id="XMLID_51_" class="st3" d="M237.9 760.5h479.9"/><path id="XMLID_50_" class="st3" d="M744.9 760.5h49.4"/><path id="XMLID_49_" class="st3" d="M183.4 760.5H218"/><path id="XMLID_48_" class="st3" d="M811.7 760.5h8.5"/><g id="XMLID_40_" style="opacity:.2"><path id="XMLID_47_" class="st5" d="M455.1 501.9v30.9h-61.8"/><path id="XMLID_46_" class="st5" d="M517 532.8h-61.9v-30.9"/><path id="XMLID_45_" class="st5" d="M424.2 532.8h61.9v30.9h-61.9z"/><path id="XMLID_44_" class="st5" d="M472.7 594.6h-17.6v-30.9H517"/><path id="XMLID_43_" class="st5" d="M393.3 563.7h61.8v30.9H405"/><path id="XMLID_42_" class="st5" d="M372.2 532.8h52v30.9h-30.9"/><path id="XMLID_41_" class="st5" d="M530.7 563.7H486v-30.9h21.5"/></g><ellipse id="XMLID_39_" class="st3" cx="329.9" cy="675.9" rx="24" ry="44.3"/><path id="XMLID_38_" class="st0" d="M299.1 686.1h-13.7c-6.1 0-11-4.9-11-11v-3.5c0-6.1 4.9-11 11-11h13.7v25.5z"/><path id="XMLID_37_" class="st3" d="M299.1 686.1h-13.7c-6.1 0-11-4.9-11-11v-3.5c0-6.1 4.9-11 11-11h13.7v25.5z"/><path id="XMLID_36_" class="st6" d="M322.7 634.4h-19.1c-9.3 0-16.8 17.4-16.8 39 0 21.5 7.5 39 16.8 39 .3 0 .7 0 1-.1h18.1v-77.9z"/><path id="XMLID_35_" class="st3" d="M322.7 634.4h-19.1c-9.3 0-16.8 17.4-16.8 39 0 21.5 7.5 39 16.8 39 .3 0 .7 0 1-.1h18.1v-77.9z"/><path id="XMLID_34_" class="st7" d="M404.2 586.3h-53.6c-26 0-47.1 39-47.1 87.1 0 48.1 21.1 87.1 47.1 87.1.9 0 1.9-.1 2.8-.2h50.8v-174z"/><path id="XMLID_33_" class="st7" d="M404.2 586.3h-53.6c-26 0-47.1 39-47.1 87.1 0 48.1 21.1 87.1 47.1 87.1.9 0 1.9-.1 2.8-.2h50.8v-174z"/><path id="XMLID_32_" class="st7" d="M404.2 586.3h-53.6c-26 0-47.1 39-47.1 87.1 0 48.1 21.1 87.1 47.1 87.1.9 0 1.9-.1 2.8-.2h50.8v-174z"/><path id="XMLID_31_" class="st8" d="M320.9 740.9c8.1 12.2 18.5 19.5 29.7 19.5.9 0 1.9-.1 2.8-.2h50.8v-19.3h-83.3z"/><path id="XMLID_30_" class="st9" d="M320.4 606.5h83.8v-20.3h-53.6c-11.5.1-22.1 7.7-30.2 20.3z"/><path id="XMLID_29_" class="st3" d="M404.2 586.3h-53.6c-26 0-47.1 39-47.1 87.1 0 48.1 21.1 87.1 47.1 87.1.9 0 1.9-.1 2.8-.2h50.8v-174z"/><ellipse id="XMLID_28_" class="st8" cx="405.6" cy="673.4" rx="47.1" ry="87.1"/><ellipse id="XMLID_27_" class="st3" cx="405.6" cy="673.4" rx="47.1" ry="87.1"/><ellipse id="XMLID_26_" class="st1" cx="405.6" cy="673.4" rx="9.2" ry="20.4"/><ellipse id="XMLID_25_" class="st10" cx="405.6" cy="673.4" rx="33.1" ry="70.4"/><ellipse id="XMLID_24_" class="st6" cx="405.6" cy="673.4" rx="17.2" ry="33.1"/><ellipse id="XMLID_23_" class="st11" cx="405.6" cy="673.4" rx="17.2" ry="33.1"/><ellipse id="XMLID_22_" class="st3" cx="405.6" cy="673.4" rx="9.2" ry="20.4"/><ellipse id="XMLID_21_" class="st1" cx="405.6" cy="673.4" rx="9.2" ry="20.4"/><ellipse id="XMLID_20_" class="st11" cx="405.6" cy="673.4" rx="33.1" ry="70.4"/><path id="XMLID_19_" class="st0" d="M404.1 660.7c-1.3 3.4-2.2 7.8-2.2 12.6 0 4.9.9 9.2 2.2 12.6.6.1 1.2.2 1.8.2h174v-25.6h-174c-.7.1-1.2.1-1.8.2z"/><path id="XMLID_18_" class="st3" d="M404.1 660.7c-1.3 3.4-2.2 7.8-2.2 12.6 0 4.9.9 9.2 2.2 12.6.6.1 1.2.2 1.8.2h174v-25.6h-174c-.7.1-1.2.1-1.8.2z"/><path id="XMLID_17_" class="st7" d="M651 586.3h-53.6c-26 0-47.1 39-47.1 87.1 0 48.1 21.1 87.1 47.1 87.1.9 0 1.9-.1 2.8-.2H651v-174z"/><path id="XMLID_16_" class="st8" d="M569.2 740.9c8.1 12.2 18.5 19.5 29.7 19.5.9 0 1.9-.1 2.8-.2h50.8v-19.3h-83.3z"/><path id="XMLID_15_" class="st9" d="M568.6 606.5h83.8v-20.3h-53.6c-11.4.1-22 7.7-30.2 20.3z"/><path id="XMLID_14_" class="st3" d="M651 586.3h-53.6c-26 0-47.1 39-47.1 87.1 0 48.1 21.1 87.1 47.1 87.1.9 0 1.9-.1 2.8-.2H651v-174z"/><ellipse id="XMLID_13_" class="st7" cx="652.5" cy="673.4" rx="47.1" ry="87.1"/><ellipse id="XMLID_12_" class="st8" cx="652.5" cy="673.4" rx="47.1" ry="87.1"/><ellipse id="XMLID_11_" class="st3" cx="652.5" cy="673.4" rx="47.1" ry="87.1"/><ellipse id="XMLID_10_" class="st1" cx="652.5" cy="673.4" rx="9.2" ry="20.4"/><ellipse id="XMLID_9_" class="st10" cx="652.5" cy="673.4" rx="33.1" ry="73.1"/><ellipse id="XMLID_8_" class="st11" cx="652.5" cy="673.4" rx="33.1" ry="73.1"/><path id="XMLID_7_" class="st7" d="M684.6 639.6h-22c-10.7 0-19.4 15.8-19.4 35.3 0 19.5 8.7 35.3 19.4 35.3.4 0 .8 0 1.2-.1h20.9v-70.5z"/><path id="XMLID_6_" class="st3" d="M682.2 639.6H662c-9.8 0-17.8 15.8-17.8 35.3 0 19.5 8 35.3 17.8 35.3.4 0 .7 0 1.1-.1h19.2v-70.5z"/><ellipse id="XMLID_5_" class="st7" cx="682.7" cy="674.9" rx="16.9" ry="35.3"/><ellipse id="XMLID_4_" class="st3" cx="681.8" cy="674.9" rx="17.8" ry="35.3"/><path id="XMLID_3_" class="st0" d="M691.7 687.7c6.1 0 11-4.9 11-11v-3.5c0-6.1-4.9-11-11-11-5.6 0-10.1 4.5-10.1 10.1v5.4c0 5.5 4.5 10 10.1 10z"/><path id="XMLID_2_" class="st3" d="M691.7 687.7h0c6.1 0 11-4.9 11-11v-3.5c0-6.1-4.9-11-11-11h0c-5.6 0-10.1 4.5-10.1 10.1v5.4c0 5.5 4.5 10 10.1 10z"/><path id="XMLID_1_" d="M405.1 615.9h-3.8v5.9h2.8-.2c2.2 0 3.9 2.2 3.9 4.9s-1.8 4.9-3.9 4.9c-1.6 0-2.9-1.1-3.5-2.8" style="fill:none;stroke:#4e5a7d;stroke-width:2;stroke-linecap:round;stroke-linejoin:round;stroke-miterlimit:10"/></svg>