<svg xmlns="http://www.w3.org/2000/svg" version="1.1" id="Layer_1" x="0" y="0" viewBox="0 0 1000 1000" style="enable-background:new 0 0 1000 1000" xml:space="preserve"><style type="text/css" id="style2">.st1{fill:#372e42}.st2{fill:#e4efef}.st3{fill:none;stroke:#272130;stroke-width:6;stroke-linecap:round;stroke-linejoin:round;stroke-miterlimit:10}.st4{opacity:.83;fill:#2d2638}.st5{fill:none;stroke:#272130;stroke-width:4;stroke-linecap:round;stroke-linejoin:round;stroke-miterlimit:10}.st6{fill:#fff}.st7{fill:#1e1826}.st8{fill:none;stroke:#204751;stroke-width:6;stroke-linecap:round;stroke-linejoin:round;stroke-miterlimit:10}.st9{fill:#4dc1c4}.st10{fill:#23afab}.st11{fill:#fff;stroke:#fff;stroke-width:4;stroke-linecap:round;stroke-linejoin:round;stroke-miterlimit:10}.st12,.st13{opacity:.78;fill:#6d87ac}.st13{opacity:.39}</style><path id="XMLID_46_" class="st2" d="M675.2 218.9c-55.7-83.8-265.5-64.2-283.5-9.4-7.9 24.2 26.9 39.4 17.7 68-10.8 33.6-63.6 27.6-154.9 96.2-15.5 11.7-110 82.6-109 177.9.9 88.9 74.5 175.9 154.3 192.8 81.7 17.3 113.5-50.2 196.4-33.9C599.3 730.9 611.5 844 673.9 844c120.9.1 246.7-427 160.9-482.5-33.9-21.9-87.9 22.6-125.8-9.4-36.6-30.8-2.3-85.9-33.8-133.2z"/><path id="XMLID_47_" class="st2" d="M431.4 763.7c-13.6 14.9-5 39.9 12.7 53.9 14.6 11.6 39.2 18.7 56.6 10.2 21.7-10.5 23.9-41.1 4.3-59.8-20-19.2-58.2-21.3-73.6-4.3z"/><path id="XMLID_48_" class="st2" d="M293 229.7c-17.1 4.7-21.6 52.6-10 62 31.5 25.4 53.6.7 40-34-6.2-15.9-19.3-31-30-28z"/><path id="XMLID_50_" class="st2" d="M734.2 265.8c-17.1 1.9-21.6 21-10 24.8 31.5 10.1 53.6.3 40-13.6-6.2-6.3-19.3-12.3-30-11.2z"/><path id="XMLID_15_" class="st3" d="M367.9 670.1s-8.1 9.2 34.7 51.9c0-16.5-5-35.2 17.8-42.4-27.4-3.7-52.5-9.5-52.5-9.5z"/><path id="XMLID_107_" class="st1" d="M367.9 670.1s-8.1 9.2 34.7 51.9c0-16.5-5-35.2 17.8-42.4-27.4-3.7-52.5-9.5-52.5-9.5z"/><path id="XMLID_106_" class="st1" d="M567.4 657.6S600 669 615 669s27-5.7 27-5.7l-15-5.7c22 0 38.5-16.6 38.5-16.6l-17.5-4c21.5-3.7 31-26 31-26-4 0-32.6-4.6-32.6-11.3-25.8 25.8-65.9 52.6-79 57.9z"/><path id="XMLID_183_" class="st4" d="M646.4 599.7c-25.8 25.8-65.9 52.6-79 57.9 0 0 22.9 8 39.1 10.6 2.9-3.6 5.6-6.8 7.3-8.5 5.2-5.2 26.9-8.3 26.9-14.5s-5.3-9.3 7.4-16.4 11.4-12.9 11.4-12.9l1.4-8c-7.4-2.1-14.5-4.9-14.5-8.2z"/><path id="XMLID_41_" class="st5" d="M591.9 645.2s9.7 10.9 16.7 10.9"/><path id="XMLID_42_" class="st5" d="M632.9 645.2c-12.7 0-19.1-14.4-19.1-14.4"/><path id="XMLID_43_" class="st5" d="M632.9 620h15.7"/><path id="XMLID_19_" class="st3" d="M567.4 657.6S600 669 615 669s27-5.7 27-5.7l-15-5.7c22 0 38.5-16.6 38.5-16.6l-17.5-4c21.5-3.7 31-26 31-26-4 0-32.6-4.6-32.6-11.3-25.8 25.8-65.9 52.6-79 57.9z"/><ellipse id="XMLID_68_" class="st6" cx="301.1" cy="403.5" rx="33" ry="36"/><ellipse id="XMLID_129_" class="st7" cx="290.4" cy="406.8" rx="11.5" ry="11.8"/><ellipse id="XMLID_122_" class="st6" cx="287.6" cy="402.8" rx="5.1" ry="5.2"/><circle id="XMLID_71_" class="st6" cx="293.3" cy="413" r="1.9"/><ellipse id="XMLID_28_" class="st8" cx="301.1" cy="403.5" rx="33" ry="36"/><path id="XMLID_70_" class="st1" d="M471.6 357.7s30-55.6 106.5-55.6c-10.5 10.5-10.5 21-10.5 21s28.1-10.8 52.5-3c-16.5 16.5-16.5 25.5-16.5 25.5 16.5-16.5 51.8 4.7 57.9 10.9-32.8 12-23.3 13.9-23.3 13.9s19.8-.1 38.7 18.8c-19.2 5.9-41.2 14.4-37.8 38.9-20.4-18.9-22.1-35.8-167.5-70.4z"/><path id="XMLID_174_" class="st4" d="m648.2 402.6-7.4-12.7s-18-7-26.9-15.9-13.3-10.3-21.9-18.9c-8.6-8.6-17.9-10.4-29.4-10.4s-22-11.1-27.6-16.7c-2.8-2.8-18.5-2.8-33.5-2.1-20.8 15.1-29.8 31.8-29.8 31.8C617 392.3 618.7 409.2 639 428c-1.6-11.5 2.5-19.5 9.2-25.4z"/><path id="XMLID_37_" class="st5" d="M512.6 361.4s18.6-24.3 37.1-33.4"/><path id="XMLID_38_" class="st5" d="M542.5 367.5s15.9-18.6 49.5-30.5"/><path id="XMLID_39_" class="st5" d="M574.2 381.7s19.6-22.7 53.4-24"/><path id="XMLID_40_" class="st5" d="M600.9 398.1s28.2-16.4 47.7-16.4"/><path id="XMLID_21_" class="st3" d="M471.6 357.7s30-55.6 106.5-55.6c-10.5 10.5-10.5 21-10.5 21s28.1-10.8 52.5-3c-16.5 16.5-16.5 25.5-16.5 25.5 16.5-16.5 51.8 4.7 57.9 10.9-32.8 12-23.3 13.9-23.3 13.9s19.8-.1 38.7 18.8c-19.2 5.9-41.2 14.4-37.8 38.9-20.4-18.9-22.1-35.8-167.5-70.4z"/><path id="XMLID_93_" class="st1" d="M659.7 479.7s15.3 13.4 39.3 5 84.7-72.4 129.3-61c0 0-23.3 20.7-18 49.3 5.3 28.7-14 51.3-14 51.3s16 10.7 0 26.7-42.3 11.7-39.3 33 18.7 22.3 22 41-4 60.7 16 70c0 0-21.3 39.3-82-74.7-28-53.1-35.3-61.3-53.3-61.3-6-16 0-79.3 0-79.3z"/><path id="XMLID_172_" class="st4" d="M659.7 479.7s-6 63.3 0 79.3c18 0 25.3 8.2 53.3 61.3l.3.6c6.8-17.2 7.3-52 7.3-63.6 0-15.7 18.2-23.8 22-46 2.2-12.8-5.4-32.3-12.3-46.6-12.9 9.4-23.9 17.4-31.4 20-23.9 8.4-39.2-5-39.2-5z"/><path id="XMLID_110_" class="st5" d="M676.8 513.4s24.3 5.6 57.3-10.3 39-33.4 54-33.4"/><path id="XMLID_1_" class="st5" d="M675.8 533.7h56.7c30.2 0 49.1-9.2 49.1-9.2"/><path id="XMLID_35_" class="st5" d="M675.8 546.6s38.9-.6 66.9 21.4"/><path id="XMLID_36_" class="st5" d="M671.3 554s55.4 15.1 86.9 102.1"/><path id="XMLID_20_" class="st3" d="M659.7 479.7s15.3 13.4 39.3 5 84.7-72.4 129.3-61c0 0-23.3 20.7-18 49.3 5.3 28.7-14 51.3-14 51.3s16 10.7 0 26.7-42.3 11.7-39.3 33 18.7 22.3 22 41-4 60.7 16 70c0 0-21.3 39.3-82-74.7-28-53.1-35.3-61.3-53.3-61.3-6-16 0-79.3 0-79.3z"/><path id="XMLID_62_" class="st9" d="M449.8 355.1c-9.3 0-18.5.4-27.5 1.2l1.2.2h-3.6c-9.2.9-18.2 2.1-26.9 3.8V676c18.2 3.4 37.2 5.2 56.8 5.2 125.4 0 227-73 227-163s-101.6-163.1-227-163.1z"/><path id="XMLID_181_" class="st10" d="M524.8 364.2c72.2 27.3 121.5 81.7 121.5 144.3 0 90-109 167.2-234.4 167.2-8.9 0-3.6 2.1-12.2 1.4l-6.7-1.2c18.2 3.4 37.2 5.2 56.8 5.2 125.4 0 227-73 227-163 0-71.2-63.5-131.7-152-153.9z"/><path id="XMLID_32_" class="st8" d="M449.8 355.1c-9.3 0-18.5.4-27.5 1.2l1.2.2h-3.6c-9.2.9-18.2 2.1-26.9 3.8V676c18.2 3.4 37.2 5.2 56.8 5.2 125.4 0 227-73 227-163s-101.6-163.1-227-163.1z"/><path id="XMLID_65_" class="st9" d="M420.4 356.5c-14.1 1.3-27.6 3.5-40.7 6.5-57.8 17.8-104.9 75.3-104.9 137l-28.4-3c-12.5-1.3-23.5 8.3-23.5 20.9v.2c0 82.8 86.1 151.3 197.5 161.6 32-44.1 51.2-100.4 51.2-161.6 0-61.3-19.2-117.5-51.2-161.6z"/><path id="XMLID_60_" class="st10" d="M293.3 476.9s40.9 17.2 76.9 17.2 47.4-2.7 51.7-16.6c0 0 2.1 9.3-1.6 16.6s-18.3 29.7-93.8 14.3c-75.4-10.9-47.6-8-47.6-8s-1.7-29.4 14.4-23.5z"/><path id="XMLID_34_" class="st10" d="M313.6 508.5s34 16.5 68.6 16.5c20.2 0 36.7-7.2 43.5-11.6 20.5-13.4 6.6-44.1 0-33.7-3.7 5.8-9.3 21.4-13 25.2s-55.9 8.5-62.5 8.5c-6.6 0-36.6-4.9-36.6-4.9z"/><g id="XMLID_177_"><path id="XMLID_179_" class="st10" d="M294.8 500c0-61.6 47.1-119.1 104.9-137 7.3-1.7 14.7-3.1 22.2-4.3-.5-.8-1.1-1.5-1.6-2.3h-.1c-14 1.3-27.6 3.5-40.7 6.6-57.1 17.6-103.9 74-104.9 134.8l20.2 2.2z"/><path id="XMLID_180_" class="st10" d="M242.9 518.1v-.2c0-9.2 6-16.8 14-19.7l-10.6-1.1c-12.5-1.3-23.5 8.3-23.5 20.9v.2c0 82.8 86.1 151.3 197.5 161.6.5-.8 1.1-1.5 1.6-2.3-102.2-15.9-179-81.2-179-159.4z"/></g><path id="XMLID_33_" class="st8" d="M420.4 356.5s0 0 0 0c-14.1 1.3-27.6 3.5-40.7 6.5-57.8 17.8-104.9 75.3-104.9 137l-28.4-3c-12.5-1.3-23.5 8.3-23.5 20.9v.2c0 82.8 86.1 151.3 197.5 161.6 32-44.1 51.2-100.4 51.2-161.6 0-61.3-19.2-117.5-51.2-161.6z"/><path id="XMLID_24_" class="st11" d="M353.7 511.3c-6.3-.6-12.1-1.3-17.3-2-.3-1.7-.4-3.4-.4-5.1 0-12.7 7.3-23.5 17.3-27.2-3 4.7-4.8 10.6-4.8 16.9 0 6.5 1.9 12.6 5.2 17.4z"/><path id="XMLID_23_" class="st11" d="M288.5 503.1c-8.5-1.1-16.4-2.2-23.4-3.3-.3-2.3-.4-4.6-.4-7 .5-17.3 10.7-31.7 24.5-36.5-4.3 6.3-7 14.2-7.2 22.9-.2 8.9 2.2 17.2 6.5 23.9z"/><path id="XMLID_30_" class="st8" d="M436 489.7c0-9.3-26-20-26-20"/><ellipse id="XMLID_66_" class="st6" cx="350.2" cy="399.7" rx="40" ry="42"/><ellipse id="XMLID_29_" class="st8" cx="350.2" cy="399.7" rx="40" ry="42"/><ellipse id="XMLID_27_" class="st7" cx="347" cy="411.5" rx="16" ry="16.5"/><ellipse id="XMLID_67_" class="st6" cx="343.1" cy="406" rx="7.1" ry="7.3"/><ellipse id="XMLID_69_" class="st6" cx="351.1" cy="420.3" rx="2.6" ry="2.7"/><path id="XMLID_26_" class="st11" d="m325.6 456.5.9-.9c-4.2 2-8.3 4.7-11.8 7.9-13.3 12.1-17.2 29-11.2 42.6l17.6 2.4c-10.8-16.2-9.6-37.3 4.5-52z"/><path id="XMLID_25_" class="st11" d="M378.7 490.2c.1-.1.2-.3.4-.4-1.8 1.1-3.5 2.4-4.9 4-5.1 5.8-5.1 13.1-.8 18.6l8.8.1c-6.9-6.4-8.7-15.3-3.5-22.3z"/><path id="XMLID_92_" class="st1" d="M523 532.3s-45.2 39.7-32.7 79.3c0 0 6.7 19.3 28.7 22.7 21.3 3.2 25.7-7 30.7-12-20.2-8.1-11.2-34.3-6.7-38.9-9.3 0-20-7.9-23.8-16.4-3.7-8.5-1.6-16.6 3.8-34.7z"/><path id="XMLID_160_" class="st4" d="M490.3 611.7s6.4 18.5 27.4 22.4c-10.2-24.3-14.5-54.8-16.3-76.1-9.5 14.8-17.2 34.2-11.1 53.7z"/><path id="XMLID_17_" class="st3" d="M523 532.3s-45.2 39.7-32.7 79.3c0 0 6.7 19.3 28.7 22.7 21.3 3.2 25.7-7 30.7-12-20.2-8.1-11.2-34.3-6.7-38.9-9.3 0-20-7.9-23.8-16.4-3.7-8.5-1.6-16.6 3.8-34.7z"/><path id="XMLID_31_" class="st8" d="M425.7 479.7s1.2 37.6-52.7 33.4c-60.9-4.8-117.2-15.1-117.2-15.1"/><circle id="XMLID_109_" class="st12" cx="343.8" cy="607.2" r="23.6"/><circle id="XMLID_118_" class="st12" cx="402.6" cy="419.2" r="7.4"/><circle id="XMLID_125_" class="st12" cx="421.2" cy="391.3" r="11.1"/><circle id="XMLID_158_" class="st12" cx="412.7" cy="530.6" r="5.6"/><circle id="XMLID_120_" class="st13" cx="422" cy="435.8" r="3.7"/><circle id="XMLID_112_" class="st12" cx="518.9" cy="423" r="23.6"/><circle id="XMLID_159_" class="st13" cx="591.9" cy="461.4" r="29.4"/><circle id="XMLID_156_" class="st12" cx="645" cy="512.4" r="12"/><circle id="XMLID_111_" class="st12" cx="395.3" cy="628.8" r="8.8"/><path id="XMLID_162_" class="st5" d="M500 589.7s10-6.3 14.3-10.7"/><path id="XMLID_164_" class="st5" d="M500 602.3s20-4.3 25-9.3"/><path id="XMLID_168_" class="st5" d="M504.3 611.7s13.3 5.3 23.3 8.3"/><path id="XMLID_170_" class="st5" d="M382.2 679.7s5.9 15.3 13 18.6"/></svg>