<svg version="1.1" id="Layer_1" x="0" y="0" xml:space="preserve" width="1000" height="800" xmlns="http://www.w3.org/2000/svg"><style type="text/css" id="style2">.st1{fill:#444e59}.st2{opacity:.28;fill:#848484}.st3,.st4{fill:#f09f54}.st4{opacity:.29}.st5,.st6{fill:none;stroke:#444e59;stroke-width:4;stroke-linecap:round;stroke-linejoin:round;stroke-miterlimit:10}.st6{stroke-width:3}.st7{fill:#848484}.st9{fill:#fff}.st10{fill:#71a850}.st14{fill:#c9c9c9}.st15,.st18{fill:none;stroke:#444e59;stroke-linecap:round;stroke-linejoin:round}.st15{stroke-width:5;stroke-miterlimit:10}.st18{stroke-width:2;stroke-dasharray:4.0794,4.0794}.st21{fill:#2fa9ed}.st23{fill:#e7534e}.st25,.st28,.st29,.st30,.st32{fill:none;stroke:#fff;stroke-width:4;stroke-linecap:round;stroke-linejoin:round;stroke-miterlimit:10}.st28,.st29,.st30,.st32{stroke:#64bdff}.st29,.st30,.st32{stroke:#ff5f5f}.st30,.st32{stroke:#ffbe78}.st32{stroke:#6dbf7b}.st34{opacity:.56}.st34,.st36{fill:none;stroke:#fff;stroke-width:3;stroke-linecap:round;stroke-linejoin:round;stroke-miterlimit:10}</style><g id="XMLID_238_" transform="matrix(1.36728 0 0 1.36728 -181.387 -292.3)"><path id="XMLID_1313_" class="st2" d="M837.8 666.3H162.2c-5 0-9-4-9-9s4-9 9-9h675.7c5 0 9 4 9 9-.1 5-4.1 9-9.1 9z"/><g id="XMLID_45_"><path id="XMLID_41_" class="st3" d="M808.5 573.9c0-37.2-28.2-67.8-64.7-71.3v-8.4h-21.9v160.7h21.9v-9.7c36.4-3.5 64.7-34.1 64.7-71.3zm-64.8 48.2v-96.3c23.4 3.4 41.8 23.7 41.8 48.2 0 24.4-18.4 44.7-41.8 48.1z"/><path id="XMLID_222_" class="st4" d="M743.7 502.6v-8.4h-21.9v160.7h21.9v-9.7c36.5-3.5 64.7-34 64.7-71.3.1-37.2-28.2-67.8-64.7-71.3zm0 135.2v8.3h-20.5V501.5h20.5v8.5c32.1 3.1 58 30.5 58 63.9.1 33.4-25.8 60.8-58 63.9z"/><path id="XMLID_48_" class="st5" d="M808.5 573.9c0-37.2-28.2-67.8-64.7-71.3v-8.4h-21.9v160.7h21.9v-9.7c36.4-3.5 64.7-34.1 64.7-71.3zm-64.8 48.2v-96.3c23.4 3.4 41.8 23.7 41.8 48.2 0 24.4-18.4 44.7-41.8 48.1z"/><g id="XMLID_49_"><g id="XMLID_67_"><path id="XMLID_68_" class="st6" d="M730.6 638.8h-8.8"/></g><g id="XMLID_65_"><path id="XMLID_66_" class="st6" d="M730.6 622.8h-8.8"/></g><g id="XMLID_63_"><path id="XMLID_64_" class="st6" d="M730.6 606.7h-8.8"/></g><g id="XMLID_61_"><path id="XMLID_62_" class="st6" d="M730.6 590.6h-8.8"/></g><g id="XMLID_59_"><path id="XMLID_60_" class="st6" d="M730.6 574.6h-8.8"/></g><g id="XMLID_56_"><path id="XMLID_57_" class="st6" d="M730.6 558.5h-8.8"/></g><g id="XMLID_54_"><path id="XMLID_55_" class="st6" d="M730.6 542.4h-8.8"/></g><g id="XMLID_52_"><path id="XMLID_53_" class="st6" d="M730.6 526.3h-8.8"/></g><g id="XMLID_50_"><path id="XMLID_51_" class="st6" d="M730.6 510.3h-8.8"/></g></g></g><g id="XMLID_212_"><path id="XMLID_207_" class="st3" d="M673.3 412.9h33.1v241.6h-33.1z"/><path id="XMLID_208_" class="st3" d="M673.3 412.9h33.1v241.6h-33.1z"/><path id="XMLID_209_" class="st4" d="M692 412.9h14.4v241.6H692z"/><path id="XMLID_121_" class="st5" d="M673.3 412.9h33.1v241.6h-33.1z"/><g id="XMLID_203_"><g id="XMLID_266_"><path id="XMLID_269_" class="st6" d="M684.8 630.1h-11.5"/><path id="XMLID_268_" class="st6" d="M680.4 641.6h-7.1"/></g><g id="XMLID_262_"><path id="XMLID_265_" class="st6" d="M684.8 607.1h-11.5"/><path id="XMLID_264_" class="st6" d="M680.4 618.6h-7.1"/></g><g id="XMLID_258_"><path id="XMLID_261_" class="st6" d="M684.8 584.1h-11.5"/><path id="XMLID_260_" class="st6" d="M680.4 595.6h-7.1"/></g><g id="XMLID_254_"><path id="XMLID_257_" class="st6" d="M684.8 561h-11.5"/><path id="XMLID_256_" class="st6" d="M680.4 572.5h-7.1"/></g><g id="XMLID_249_"><path id="XMLID_253_" class="st6" d="M684.8 538h-11.5"/><path id="XMLID_251_" class="st6" d="M680.4 549.5h-7.1"/></g><g id="XMLID_245_"><path id="XMLID_248_" class="st6" d="M684.8 515h-11.5"/><path id="XMLID_247_" class="st6" d="M680.4 526.5h-7.1"/></g><g id="XMLID_223_"><path id="XMLID_244_" class="st6" d="M684.8 492h-11.5"/><path id="XMLID_243_" class="st6" d="M680.4 503.5h-7.1"/></g><g id="XMLID_215_"><path id="XMLID_219_" class="st6" d="M684.8 469h-11.5"/><path id="XMLID_218_" class="st6" d="M680.4 480.5h-7.1"/></g><g id="XMLID_118_"><path id="XMLID_210_" class="st6" d="M684.8 446h-11.5"/><path id="XMLID_141_" class="st6" d="M680.4 457.5h-7.1"/></g><g id="XMLID_36_"><path id="XMLID_113_" class="st6" d="M684.8 423h-11.5"/><path id="XMLID_112_" class="st6" d="M680.4 434.5h-7.1"/></g></g></g><g id="XMLID_1_"><path id="XMLID_93_" class="st7" d="M612.1 471.3H625v34.1h-12.9z"/><path id="XMLID_237_" style="opacity:.25;fill:#848484" d="M612.1 471.3h4.8v34.1h-4.8z"/><path id="XMLID_40_" class="st5" d="M612.1 471.3H625v34.1h-12.9z"/><path id="XMLID_95_" class="st9" d="M615.6 505.5h5.9V522h-5.9z"/><path id="XMLID_42_" class="st5" d="M615.6 505.5h5.9V522h-5.9z"/><g id="XMLID_16_"><path id="XMLID_98_" class="st9" d="m578.6 654.4 45.6-116.1-15.6-1.6z"/><path id="XMLID_37_" class="st5" d="m578.6 654.4 45.6-116.1-15.6-1.6z"/><path id="XMLID_97_" class="st9" d="m658.6 654.4-45.5-116.1 15.5-1.6z"/><path id="XMLID_38_" class="st5" d="m658.6 654.4-45.5-116.1 15.5-1.6z"/></g><circle id="XMLID_91_" class="st10" cx="618.6" cy="539.8" r="20"/><path id="XMLID_241_" d="M604.2 539.8c0-10.1 7.5-18.4 17.2-19.8-.9-.1-1.8-.2-2.8-.2-11 0-20 9-20 20s9 20 20 20c.9 0 1.9-.1 2.8-.2-9.7-1.4-17.2-9.7-17.2-19.8z" style="opacity:.4;fill:#71a850"/><circle id="XMLID_39_" class="st5" cx="618.6" cy="539.8" r="20"/><circle id="XMLID_94_" class="st1" cx="618.6" cy="539.8" r="6.8"/><circle id="XMLID_92_" class="st5" cx="618.6" cy="539.8" r="6.8"/></g><path id="XMLID_75_" class="st7" d="M546.4 654.2h-132c-7.7 0-14-6.3-14-14v-272c0-7.7 6.3-14 14-14h132c7.7 0 14 6.3 14 14v272c0 7.7-6.3 14-14 14z"/><path id="XMLID_116_" class="st2" d="M546.4 354.2H538c7.7 0 14 6.3 14 14v272c0 7.7-6.3 14-14 14h8.5c7.7 0 14-6.3 14-14v-272c-.1-7.8-6.4-14-14.1-14z"/><path id="XMLID_81_" d="M408.7 640.2v-272c0-7.7 6.3-14 14-14h-8.3c-7.7 0-14 6.3-14 14v272c0 7.7 6.3 14 14 14h8.3c-7.7 0-14-6.3-14-14z" style="opacity:.48;fill:#848484"/><path id="XMLID_3_" class="st5" d="M546.4 654.2h-132c-7.7 0-14-6.3-14-14v-272c0-7.7 6.3-14 14-14h132c7.7 0 14 6.3 14 14v272c0 7.7-6.3 14-14 14z"/><path id="XMLID_77_" transform="rotate(90 480.416 503.704)" style="fill:#e9fbff" d="M368.4 423.7h224v160h-224z"/><path id="XMLID_5_" class="st14" d="M559.6 463.9h-12.5c-6.8 0-12.3-5.5-12.3-12.3v-30.5c0-6.8 5.5-12.3 12.3-12.3h12.5z"/><path id="XMLID_2_" class="st14" d="M409.6 587.5h-9.2v-97.3h9.2c6.9 0 12.5 5.6 12.5 12.5V575c-.1 6.9-5.6 12.5-12.5 12.5z"/><path id="XMLID_6_" transform="rotate(90 480.416 503.704)" class="st5" d="M368.4 423.7h224v160h-224z"/><g id="XMLID_4_"><path id="XMLID_9_" class="st15" d="M502.4 374.2h7"/><path id="XMLID_7_" class="st15" d="M451.4 374.2h40"/></g><g id="XMLID_228_"><circle id="XMLID_8_" cx="480.4" cy="632.6" r="11" style="opacity:.29;fill:#848484"/><circle id="XMLID_78_" class="st1" cx="480.4" cy="632.6" r="8.4"/></g><g id="XMLID_14_" style="opacity:.3"><g id="XMLID_32_"><g id="XMLID_58_"><path class="st18" d="M443.9 588.9h-16c-4.4 0-8-3.6-8-8v-16c0-4.4 3.6-8 8-8h16c4.4 0 8 3.6 8 8v16c0 4.4-3.6 8-8 8z" id="path317"/></g><g id="XMLID_35_"><path class="st18" d="M532.4 588.9h-16c-4.4 0-8-3.6-8-8v-16c0-4.4 3.6-8 8-8h16c4.4 0 8 3.6 8 8v16c0 4.4-3.6 8-8 8z" id="path320"/></g><g id="XMLID_34_"><path class="st18" d="M488.4 588.9h-16c-4.4 0-8-3.6-8-8v-16c0-4.4 3.6-8 8-8h16c4.4 0 8 3.6 8 8v16c0 4.4-3.6 8-8 8z" id="path323"/></g></g><g id="XMLID_27_"><g id="XMLID_31_"><path class="st18" d="M443.9 540.9h-16c-4.4 0-8-3.6-8-8v-16c0-4.4 3.6-8 8-8h16c4.4 0 8 3.6 8 8v16c0 4.4-3.6 8-8 8z" id="path327"/></g><g id="XMLID_30_"><path class="st18" d="M532.4 540.9h-16c-4.4 0-8-3.6-8-8v-16c0-4.4 3.6-8 8-8h16c4.4 0 8 3.6 8 8v16c0 4.4-3.6 8-8 8z" id="path330"/></g><g id="XMLID_29_"><path class="st18" d="M488.4 540.9h-16c-4.4 0-8-3.6-8-8v-16c0-4.4 3.6-8 8-8h16c4.4 0 8 3.6 8 8v16c0 4.4-3.6 8-8 8z" id="path333"/></g></g><g id="XMLID_22_"><g id="XMLID_26_"><path class="st18" d="M443.9 492.9h-16c-4.4 0-8-3.6-8-8v-16c0-4.4 3.6-8 8-8h16c4.4 0 8 3.6 8 8v16c0 4.4-3.6 8-8 8z" id="path337"/></g><g id="XMLID_25_"><path class="st18" d="M532.4 492.9h-16c-4.4 0-8-3.6-8-8v-16c0-4.4 3.6-8 8-8h16c4.4 0 8 3.6 8 8v16c0 4.4-3.6 8-8 8z" id="path340"/></g><g id="XMLID_24_"><path class="st18" d="M488.4 492.9h-16c-4.4 0-8-3.6-8-8v-16c0-4.4 3.6-8 8-8h16c4.4 0 8 3.6 8 8v16c0 4.4-3.6 8-8 8z" id="path343"/></g></g><g id="XMLID_17_"><g id="XMLID_21_"><path class="st18" d="M443.9 444.9h-16c-4.4 0-8-3.6-8-8v-16c0-4.4 3.6-8 8-8h16c4.4 0 8 3.6 8 8v16c0 4.4-3.6 8-8 8z" id="path347"/></g><g id="XMLID_20_"><path class="st18" d="M532.4 444.9h-16c-4.4 0-8-3.6-8-8v-16c0-4.4 3.6-8 8-8h16c4.4 0 8 3.6 8 8v16c0 4.4-3.6 8-8 8z" id="path350"/></g><g id="XMLID_19_"><path class="st18" d="M488.4 444.9h-16c-4.4 0-8-3.6-8-8v-16c0-4.4 3.6-8 8-8h16c4.4 0 8 3.6 8 8v16c0 4.4-3.6 8-8 8z" id="path353"/></g></g></g><path id="XMLID_73_" class="st10" d="M443.9 588.9h-16c-4.4 0-8-3.6-8-8v-16c0-4.4 3.6-8 8-8h16c4.4 0 8 3.6 8 8v16c0 4.4-3.6 8-8 8z"/><path id="XMLID_80_" d="M443.9 556.9h-16c-3.2 0-6 1.9-7.2 4.6l31.2 5.6v-2.2c0-4.4-3.6-8-8-8z" style="opacity:.52;fill:#5f8c42"/><path id="XMLID_76_" class="st5" d="M443.9 588.9h-16c-4.4 0-8-3.6-8-8v-16c0-4.4 3.6-8 8-8h16c4.4 0 8 3.6 8 8v16c0 4.4-3.6 8-8 8z"/><path id="XMLID_72_" class="st3" d="M488.4 588.9h-16c-4.4 0-8-3.6-8-8v-16c0-4.4 3.6-8 8-8h16c4.4 0 8 3.6 8 8v16c0 4.4-3.6 8-8 8z"/><path id="XMLID_79_" d="M488.4 556.9h-16c-3.2 0-6 1.9-7.2 4.6l31.2 5.6v-2.2c0-4.4-3.6-8-8-8z" style="opacity:.52;fill:#d38444"/><path id="XMLID_74_" class="st5" d="M488.4 588.9h-16c-4.4 0-8-3.6-8-8v-16c0-4.4 3.6-8 8-8h16c4.4 0 8 3.6 8 8v16c0 4.4-3.6 8-8 8z"/><g id="XMLID_33_"><path id="XMLID_70_" class="st21" d="M532.4 540.9h-16c-4.4 0-8-3.6-8-8v-16c0-4.4 3.6-8 8-8h16c4.4 0 8 3.6 8 8v16c0 4.4-3.6 8-8 8z"/></g><path id="XMLID_119_" d="M532.4 508.9h-16c-3.2 0-6 1.9-7.2 4.6l31.2 5.6v-2.2c0-4.4-3.6-8-8-8z" style="opacity:.52;fill:#288fbc"/><g id="XMLID_69_"><path id="XMLID_71_" class="st5" d="M532.4 540.9h-16c-4.4 0-8-3.6-8-8v-16c0-4.4 3.6-8 8-8h16c4.4 0 8 3.6 8 8v16c0 4.4-3.6 8-8 8z"/></g><g id="XMLID_13_"><g id="g370"><path id="XMLID_90_" class="st23" d="M488.4 492.9h-16c-4.4 0-8-3.6-8-8v-16c0-4.4 3.6-8 8-8h16c4.4 0 8 3.6 8 8v16c0 4.4-3.6 8-8 8z"/></g></g><path id="XMLID_124_" d="M488.4 460.9h-16c-3.2 0-6 1.9-7.2 4.6l31.2 5.6v-2.2c0-4.4-3.6-8-8-8z" style="opacity:.52;fill:#bf4040"/><g id="XMLID_18_"><path id="XMLID_23_" class="st5" d="M488.4 492.9h-16c-4.4 0-8-3.6-8-8v-16c0-4.4 3.6-8 8-8h16c4.4 0 8 3.6 8 8v16c0 4.4-3.6 8-8 8z"/></g><path id="XMLID_10_" class="st9" d="m521.8 517.9 9.2 5.3c1.3.8 1.3 2.7 0 3.4l-9.2 5.3c-1.3.8-3-.2-3-1.7v-10.6c0-1.5 1.7-2.5 3-1.7z"/><path id="XMLID_15_" class="st9" d="M484.6 566.7h-8.4c-1.8 0-3.2 1.5-3.2 3.2v6.2c0 1.8 1.5 3.2 3.2 3.2h.3l-.7 2.8c-.1.2.2.4.4.2l4.3-3h4.3c1.8 0 3.2-1.5 3.2-3.2v-6.2a3.4 3.4 0 0 0-3.4-3.2z"/><path id="XMLID_11_" class="st25" d="m429.7 572.9 3.7 3.7c.5.5 1.3.5 1.8 0l8.3-8.3"/><circle id="XMLID_12_" class="st25" cx="480.4" cy="476.9" r="7.5"/><g id="XMLID_131_"><path id="XMLID_115_" class="st9" d="m420 437.9-.2-15-10 .1c-.6-1.9-1.3-3.6-2.3-5.3l7-7.2-10.7-10.5-7 7.2c-1.7-.9-3.5-1.6-5.4-2.1l-.1-10-15 .2.1 10c-1.9.6-3.6 1.3-5.3 2.3l-7.2-7-10.5 10.7 7.2 7c-.9 1.7-1.6 3.5-2.1 5.4l-10 .1.2 15 10-.1c.6 1.9 1.3 3.6 2.3 5.3l-7 7.2 10.7 10.5 7-7.2c1.7.9 3.5 1.6 5.4 2.1l.1 10 15-.2-.1-10c1.9-.6 3.6-1.3 5.3-2.3l7.2 7 10.5-10.7-7.2-7c.9-1.7 1.6-3.5 2.1-5.4zm-35.5 4.6c-6.5.1-11.7-5.1-11.8-11.6-.1-6.5 5.1-11.7 11.6-11.8 6.5-.1 11.7 5.1 11.8 11.6 0 6.5-5.2 11.7-11.6 11.8z"/><path id="XMLID_191_" class="st3" d="m420 437.9-.2-15-10 .1c-.6-1.9-1.3-3.6-2.3-5.3l7-7.2-10.7-10.5-7 7.2c-1.7-.9-3.5-1.6-5.4-2.1l-.1-10-15 .2.1 10c-1.9.6-3.6 1.3-5.3 2.3l-7.2-7-10.5 10.7 7.2 7c-.9 1.7-1.6 3.5-2.1 5.4l-10 .1.2 15 10-.1c.6 1.9 1.3 3.6 2.3 5.3l-7 7.2 10.7 10.5 7-7.2c1.7.9 3.5 1.6 5.4 2.1l.1 10 15-.2-.1-10c1.9-.6 3.6-1.3 5.3-2.3l7.2 7 10.5-10.7-7.2-7c.9-1.7 1.6-3.5 2.1-5.4zm-35.5 4.6c-6.5.1-11.7-5.1-11.8-11.6-.1-6.5 5.1-11.7 11.6-11.8 6.5-.1 11.7 5.1 11.8 11.6 0 6.5-5.2 11.7-11.6 11.8z"/><path id="XMLID_234_" class="st3" d="m420 437.9-.2-15-10 .1c-.6-1.9-1.3-3.6-2.3-5.3l7-7.2-10.7-10.5-7 7.2c-1.7-.9-3.5-1.6-5.4-2.1l-.1-10-15 .2.1 10c-1.9.6-3.6 1.3-5.3 2.3l-7.2-7-10.5 10.7 7.2 7c-.9 1.7-1.6 3.5-2.1 5.4l-10 .1.2 15 10-.1c.6 1.9 1.3 3.6 2.3 5.3l-7 7.2 10.7 10.5 7-7.2c1.7.9 3.5 1.6 5.4 2.1l.1 10 15-.2-.1-10c1.9-.6 3.6-1.3 5.3-2.3l7.2 7 10.5-10.7-7.2-7c.9-1.7 1.6-3.5 2.1-5.4zm-35.5 4.6c-6.5.1-11.7-5.1-11.8-11.6-.1-6.5 5.1-11.7 11.6-11.8 6.5-.1 11.7 5.1 11.8 11.6 0 6.5-5.2 11.7-11.6 11.8z"/><g id="XMLID_246_" style="opacity:.29"><path id="XMLID_250_" class="st3" d="M416.2 423s0 .1 0 0h3.7v-.1z"/><path id="XMLID_252_" class="st3" d="m403.2 407.3 3.9-4-3.2-3.2-5.2 5.3c1.6.5 3.1 1.1 4.5 1.9z"/><path id="XMLID_255_" class="st3" d="M390.5 419.1c-1.1 0-2.1.2-3 .4 4.9 1.4 8.5 5.8 8.5 11.1.1 5.4-3.6 10-8.5 11.4 1 .3 2.2.5 3.3.4 6.5-.1 11.6-5.4 11.6-11.8s-5.4-11.5-11.9-11.5z"/><path id="XMLID_259_" class="st3" d="m375.6 405.6 2 1.9c1.7-.9 3.4-1.7 5.3-2.3l-.1-10 8.6-.1v-.1l-15 .2.1 10c-.2.2-.6.3-.9.4z"/><path id="XMLID_263_" class="st3" d="M383.4 456.5c-1.9-.5-3.7-1.2-5.4-2.1l-1.8 1.9.9.3.1 10 6.3-.1z"/><path id="XMLID_267_" class="st3" d="m355 423.7 10-.1c.5-1.9 1.2-3.7 2.1-5.4l-7.2-7 7.4-7.5-3.2-3.2-10.5 10.7 7.2 7c-.9 1.7-1.6 3.5-2.1 5.4l-10 .1.2 15 6.3-.1z"/><path id="XMLID_270_" class="st3" d="M403.7 454.1c-1.4.8-2.8 1.4-4.3 1.9l5.2 5.1 3.1-3.2z"/><path id="XMLID_271_" class="st3" d="m360.4 451 7-7.2c-.9-1.7-1.7-3.4-2.3-5.3l-6.3.1c.6 1.8 1.3 3.6 2.2 5.2l-7 7.2 10.7 10.5 3.1-3.2z"/></g><path id="XMLID_130_" class="st5" d="m420 437.9-.2-15-10 .1c-.6-1.9-1.3-3.6-2.3-5.3l7-7.2-10.7-10.5-7 7.2c-1.7-.9-3.5-1.6-5.4-2.1l-.1-10-15 .2.1 10c-1.9.6-3.6 1.3-5.3 2.3l-7.2-7-10.5 10.7 7.2 7c-.9 1.7-1.6 3.5-2.1 5.4l-10 .1.2 15 10-.1c.6 1.9 1.3 3.6 2.3 5.3l-7 7.2 10.7 10.5 7-7.2c1.7.9 3.5 1.6 5.4 2.1l.1 10 15-.2-.1-10c1.9-.6 3.6-1.3 5.3-2.3l7.2 7 10.5-10.7-7.2-7c.9-1.7 1.6-3.5 2.1-5.4zm-35.5 4.6c-6.5.1-11.7-5.1-11.8-11.6-.1-6.5 5.1-11.7 11.6-11.8 6.5-.1 11.7 5.1 11.8 11.6 0 6.5-5.2 11.7-11.6 11.8z"/></g><g id="XMLID_190_"><path id="XMLID_183_" class="st1" d="M357.5 654.2H233.8c-4.1 0-7.4-3.3-7.4-7.4v-84.6c0-4.1 3.3-7.4 7.4-7.4h123.8c4.1 0 7.4 3.3 7.4 7.4v84.6c-.1 4.1-3.4 7.4-7.5 7.4z"/><path id="XMLID_134_" d="M364.9 570.9H226.4v-8.7c0-4.1 3.3-7.4 7.4-7.4h123.8c4.1 0 7.4 3.3 7.4 7.4v8.7z" style="fill:#bcbcbc"/><path id="XMLID_132_" class="st5" d="M357.5 654.2H233.8c-4.1 0-7.4-3.3-7.4-7.4v-84.6c0-4.1 3.3-7.4 7.4-7.4h123.8c4.1 0 7.4 3.3 7.4 7.4v84.6c-.1 4.1-3.4 7.4-7.5 7.4z"/><path id="XMLID_182_" class="st5" d="M357.5 654.2H233.8c-4.1 0-7.4-3.3-7.4-7.4v-84.6c0-4.1 3.3-7.4 7.4-7.4h123.8c4.1 0 7.4 3.3 7.4 7.4v84.6c-.1 4.1-3.4 7.4-7.5 7.4z"/><path id="XMLID_133_" class="st5" d="M364.9 570.9H226.4v-8.7c0-4.1 3.3-7.4 7.4-7.4h123.8c4.1 0 7.4 3.3 7.4 7.4v8.7z"/><g id="XMLID_135_"><g id="XMLID_169_"><path id="XMLID_172_" class="st25" d="M245.5 641.5h15.6"/><path id="XMLID_171_" class="st25" d="M234.5 641.5h1.1"/></g><g id="XMLID_165_"><path id="XMLID_168_" class="st25" d="M245.5 632.9H285"/><path id="XMLID_167_" class="st25" d="M234.5 632.9h1.1"/></g><g id="XMLID_160_"><path id="XMLID_163_" class="st28" d="M303.8 624.2h10.8"/><path id="XMLID_185_" class="st25" d="M274.4 624.2h20"/><path id="XMLID_164_" class="st29" d="M245.5 624.2h19.8"/><path id="XMLID_162_" class="st25" d="M234.5 624.2h1.1"/></g><g id="XMLID_156_"><path id="XMLID_173_" class="st25" d="M278.8 615.6H327"/><path id="XMLID_159_" class="st28" d="M245.5 615.6h25.2"/><path id="XMLID_158_" class="st25" d="M234.5 615.6h1.1"/></g><g id="XMLID_152_"><path id="XMLID_170_" class="st29" d="M278.8 607h18"/><path id="XMLID_155_" class="st30" d="M245.5 607h25.2"/><path id="XMLID_154_" class="st25" d="M234.5 607h1.1"/></g><g id="XMLID_148_"><path id="XMLID_157_" class="st28" d="M282.3 598.4h4.9"/><path id="XMLID_161_" class="st29" d="M263.3 598.4h11.1"/><path id="XMLID_151_" style="fill:none;stroke:#c383f2;stroke-width:4;stroke-linecap:round;stroke-linejoin:round;stroke-miterlimit:10" d="M245.5 598.4h9.2"/><path id="XMLID_150_" class="st25" d="M234.5 598.4h1.1"/></g><g id="XMLID_144_"><path id="XMLID_137_" class="st28" d="M318.3 589.7h8.7"/><path id="XMLID_149_" class="st29" d="M273.2 589.7h34.1"/><path id="XMLID_147_" class="st30" d="M245.5 589.7h20.3"/><path id="XMLID_146_" class="st25" d="M234.5 589.7h1.1"/></g><g id="XMLID_139_"><path id="XMLID_145_" class="st30" d="M296.8 581.1h17.8"/><path id="XMLID_138_" class="st32" d="M274.4 581.1h13.8"/><path id="XMLID_140_" class="st30" d="M259.4 581.1h7.8"/><path id="XMLID_143_" class="st32" d="M245.5 581.1h6.4"/><path id="XMLID_142_" class="st25" d="M234.5 581.1h1.1"/></g></g><g id="XMLID_153_"><circle id="XMLID_136_" class="st23" cx="240.1" cy="562.9" r="2.5"/><circle id="XMLID_166_" class="st1" cx="249.1" cy="562.9" r="2.5"/><circle id="XMLID_174_" class="st1" cx="258.2" cy="562.9" r="2.5"/></g></g><path id="XMLID_176_" class="st9" d="M406.8 579.7h-89.6c-4.4 0-8-3.6-8-8v-80.9c0-4.4 3.6-8 8-8h89.6c4.4 0 8 3.6 8 8v80.9c0 4.4-3.6 8-8 8z"/><path id="XMLID_184_" class="st9" d="M406.8 579.7h-89.6c-4.4 0-8-3.6-8-8v-80.9c0-4.4 3.6-8 8-8h89.6c4.4 0 8 3.6 8 8v80.9c0 4.4-3.6 8-8 8z"/><path id="XMLID_175_" class="st5" d="M406.8 579.7h-89.6c-4.4 0-8-3.6-8-8v-80.9c0-4.4 3.6-8 8-8h89.6c4.4 0 8 3.6 8 8v80.9c0 4.4-3.6 8-8 8z"/><path id="XMLID_186_" style="fill:#9483c4" d="M318.3 491h86.8v57.7h-86.8z"/><path id="XMLID_177_" class="st5" d="M318.3 491h86.8v57.7h-86.8z"/><path id="XMLID_179_" class="st5" d="M318.3 557.9h54.8"/><path id="XMLID_180_" class="st5" d="M318.3 567.1h32.4"/><path id="XMLID_178_" class="st5" d="m327 538.4 18.7-18.5 17.4 17.4"/><path id="XMLID_181_" class="st5" d="m395.7 538.4-22.6-29.5-18.1 20.2"/><circle id="XMLID_187_" class="st5" cx="395.5" cy="562.1" r="4.9"/><circle id="XMLID_189_" class="st3" cx="351.2" cy="508.9" r="6.2"/><circle id="XMLID_188_" class="st5" cx="351.2" cy="508.9" r="6.2"/><g id="XMLID_194_"><path id="XMLID_198_" class="st5" d="M307.5 454.3h26.8"/><path id="XMLID_195_" class="st5" d="M293.2 454.3h7.1"/><path id="XMLID_199_" class="st5" d="M320.9 441.9h13.4"/><path id="XMLID_196_" class="st5" d="M310.1 441.9h4"/></g><g id="XMLID_200_"><path id="XMLID_205_" class="st5" d="M278.5 532.7h20.9"/><path id="XMLID_204_" class="st5" d="M267.4 532.7h5.5"/><path id="XMLID_202_" class="st5" d="M290.9 520.3h8.5"/><path id="XMLID_201_" class="st5" d="M280.5 520.3h3.2"/></g><g id="XMLID_229_"><path id="XMLID_233_" class="st5" d="M611.8 387.6h19.8"/><path id="XMLID_232_" class="st5" d="M599.6 387.6h5.6"/><path id="XMLID_231_" class="st5" d="M623.1 375.2h8.5"/><path id="XMLID_230_" class="st5" d="M612.8 375.2h3.1"/></g><path id="XMLID_211_" class="st21" d="M627.2 457.5H549c-4.8 0-8.6-3.9-8.6-8.6V411c0-4.8 3.9-8.6 8.6-8.6h78.2c4.8 0 8.6 3.9 8.6 8.6v37.8c0 4.8-3.8 8.7-8.6 8.7z"/><path id="XMLID_197_" class="st6" d="M627.2 457.5H549c-4.8 0-8.6-3.9-8.6-8.6V411c0-4.8 3.9-8.6 8.6-8.6h78.2c4.8 0 8.6 3.9 8.6 8.6v37.8c0 4.8-3.8 8.7-8.6 8.7z"/><path id="XMLID_214_" class="st34" d="M588.1 417.2h33.8"/><path id="XMLID_216_" class="st34" d="M588.1 428.1h22.4"/><g id="XMLID_224_" style="opacity:.56"><path id="XMLID_217_" class="st9" d="M605.1 444.4h-13.6c-1.8 0-3.3-1.5-3.3-3.3 0-1.8 1.5-3.3 3.3-3.3h13.6c1.8 0 3.3 1.5 3.3 3.3 0 1.8-1.4 3.3-3.3 3.3z"/><path id="XMLID_213_" class="st36" d="M605.1 444.4h-13.6c-1.8 0-3.3-1.5-3.3-3.3v0c0-1.8 1.5-3.3 3.3-3.3h13.6c1.8 0 3.3 1.5 3.3 3.3v0c0 1.8-1.4 3.3-3.3 3.3z"/></g><g id="XMLID_226_"><path id="XMLID_206_" class="st36" d="M574 444.9h-17.9c-2.6 0-4.6-2.1-4.6-4.6v-20.9c0-2.6 2.1-4.6 4.6-4.6H574c2.6 0 4.6 2.1 4.6 4.6v20.9c0 2.5-2 4.6-4.6 4.6z"/><circle id="XMLID_225_" class="st36" cx="565.1" cy="426.4" r="4.8"/><path id="XMLID_227_" class="st36" d="M556 444.4c0-5 4.1-9.1 9.1-9.1s9.1 4.1 9.1 9.1"/></g></g></svg>