<svg xmlns="http://www.w3.org/2000/svg" style="clip-rule:evenodd;fill-rule:evenodd;image-rendering:optimizeQuality;shape-rendering:geometricPrecision;text-rendering:geometricPrecision" xml:space="preserve" version="1.1" id="svg39" width="142736.92" height="31286.576"><defs id="defs4"><style type="text/css" id="style2">.str4,.str5,.str6{stroke:#2b2a29;stroke-width:35.27}.str4,.str5{stroke:#727271}.str4{stroke:#898989}.str0,.str1,.str2,.str3{stroke:#9d9e9e;stroke-width:35.27}.str0,.str1,.str2{stroke:#b2b3b3}.str0,.str1{stroke:#c5c6c6}.str0{stroke:#d9dada}.fil0{fill:none}</style></defs><g id="Layer_x0020_1" transform="matrix(0 -1 4.78996 0 -.26 31286.602)"><path class="fil0 str0" d="M14 5706c7400 5381 11782 10079 0 19648" id="path6" style="fill:none;stroke:#d9dada;stroke-width:35.27000046"/><path class="fil0 str1" d="M14 5259c8715 6178 14873 10980 0 22209" id="path8" style="fill:none;stroke:#c5c6c6;stroke-width:35.27000046"/><path class="fil0 str2" d="M14 4822c9872 7035 18098 11788 0 24680" id="path10" style="fill:none;stroke:#b2b3b3;stroke-width:35.27000046"/><path class="fil0 str3" d="M14 4364c10423 7658 20594 12173 2400 25421" id="path12" style="fill:none;stroke:#9d9e9e;stroke-width:35.27000046"/><path class="fil0 str4" d="M14 3851c10728 8320 22837 12576 5161 25933" id="path14" style="fill:none;stroke:#898989;stroke-width:35.27000046"/><path class="fil0 str5" d="M14 3249c10845 9095 24962 13088 7883 26535" id="path16" style="fill:none;stroke:#727271;stroke-width:35.27000046"/><path class="fil0 str6" d="M14 2518c10748 10016 26979 13737 10564 27267" id="path18" style="fill:none;stroke:#2b2a29;stroke-width:35.27000046"/><path class="fil0 str6" d="M14 1587c10386 11137 28899 14576 13200 28198" id="path20" style="fill:none;stroke:#2b2a29;stroke-width:35.27000046"/><path class="fil0" d="M14 356c9664 12552 30734 15684 15787 29428" id="path22" style="fill:none;stroke:#5b5b5b;stroke-width:35.27000046"/><path class="fil0 str5" d="M915 10c9048 13248 31136 16296 17416 29774" id="path24" style="fill:none;stroke:#727271;stroke-width:35.27000046"/><path class="fil0 str4" d="M2119 10c8524 13646 31023 16700 18687 29774" id="path26" style="fill:none;stroke:#898989;stroke-width:35.27000046"/><path class="fil0 str3" d="M3367 10c7972 14031 30791 17113 19855 29774" id="path28" style="fill:none;stroke:#9d9e9e;stroke-width:35.27000046"/><path class="fil0 str2" d="M4658 10c7395 14400 30444 17535 20917 29774" id="path30" style="fill:none;stroke:#b2b3b3;stroke-width:35.27000046"/><path class="fil0 str1" d="M5989 10c6797 14752 29987 17962 21870 29774" id="path32" style="fill:none;stroke:#c5c6c6;stroke-width:35.27000046"/><path class="fil0 str0" d="M7360 10c6182 15084 29413 18393 22706 29774" id="path34" style="fill:none;stroke:#d9dada;stroke-width:35.27000046"/></g></svg>